<?xml version="1.0" standalone="no"?>
<!DOCTYPE svg PUBLIC "-//W3C//DTD SVG 1.1//EN" "http://www.w3.org/Graphics/SVG/1.1/DTD/svg11.dtd" >
<svg>
<metadata>
Created by FontForge 20110222 at Mon Nov  5 00:30:18 2012
 By Stefan Warting
Copyright (c) 2005 Parachute :, www.parachute.gr.  All rights reserved.
</metadata>
<defs>
<font id="PFSquareSansPro-Medium" horiz-adv-x="1818" >
  <font-face 
    font-family="PF Square Sans Pro Medium"
    font-weight="500"
    font-stretch="normal"
    units-per-em="1000"
    panose-1="2 0 5 0 0 0 0 2 0 4"
    ascent="750"
    descent="-250"
    x-height="490"
    cap-height="664"
    bbox="-178.667 -295 1760 913"
    underline-thickness="50"
    underline-position="-50"
    unicode-range="U+0020-FB05"
  />
<missing-glyph horiz-adv-x="449" 
d="M0 700h449v-700h-449v700zM343 70l-119 216l-118 -216h237zM343 630h-238l119 -215zM70 142l114 208l-114 209v-417zM379 142v417l-115 -209z" />
    <glyph glyph-name="ff" unicode="ff" horiz-adv-x="669" 
d="M552 733q10 0 25 -1t32 -3.5t35 -7t33 -10.5q13 -5 14.5 -12t-0.5 -16l-8 -40q-2 -11 -11 -12.5t-18 0.5q-30 4 -53 5.5t-33 1.5q-45 0 -64.5 -20t-19.5 -64v-64h118q11 0 15 -5t4 -14v-50q0 -10 -4 -14.5t-15 -4.5h-119v-383q0 -9 -3.5 -14t-14.5 -5h-71q-19 0 -19 19
v383h-170v-383q0 -9 -3.5 -14t-14.5 -5h-70q-20 0 -20 19v383h-46q-19 0 -19 19v49q0 20 19 20h46v55q0 80 45 124t142 44q27 0 66 -4t71 -16q43 40 131 40zM294 618q-44 0 -65.5 -18.5t-22.5 -60.5v-49h170v68q0 14 1 27.5t4 25.5q-30 4 -50 5.5t-37 1.5z" />
    <glyph glyph-name="fi" unicode="fi" horiz-adv-x="543" 
d="M287 716q15 0 34.5 -1t39.5 -3.5t40 -7t36 -11.5q11 -5 13 -12t0 -16l-7 -41q-2 -11 -8 -12.5t-14 -0.5q-32 4 -64 7t-56 3q-46 0 -70.5 -18.5t-24.5 -65.5v-47h260q11 0 14.5 -5.5t3.5 -14.5v-451q0 -9 -3.5 -14t-14.5 -5h-71q-20 0 -20 19v383h-170v-383q0 -9 -3.5 -14
t-14.5 -5h-70q-20 0 -20 19v383h-46q-19 0 -19 19v49q0 20 19 20h46v58q0 79 44.5 123.5t145.5 44.5z" />
    <glyph glyph-name="fl" unicode="fl" horiz-adv-x="531" 
d="M199 402v-383q0 -8 -3.5 -13.5t-14.5 -5.5h-71q-20 0 -20 19v383h-46q-19 0 -19 20v48q0 20 19 20h47v59q0 80 44 124t146 44q26 0 62 -3.5t65 -13.5l50 11q19 4 19 -17v-675q0 -8 -3.5 -13.5t-14.5 -5.5h-71q-20 0 -20 19v597q-20 2 -39.5 3.5t-33.5 1.5
q-46 0 -71 -18.5t-25 -64.5v-48h101q19 0 19 -20v-48q0 -20 -19 -20h-101z" />
    <glyph glyph-name="ffi" unicode="ffi" horiz-adv-x="819" 
d="M564 732q15 0 34.5 -1t39.5 -4t40 -7.5t36 -11.5q11 -4 13 -11.5t0 -16.5l-8 -40q-2 -13 -10.5 -12.5t-18.5 0.5q-29 3 -59.5 5.5t-52.5 2.5q-46 0 -70.5 -18.5t-24.5 -64.5v-63h259q11 0 14.5 -5.5t3.5 -14.5v-451q0 -9 -3.5 -14t-14.5 -5h-70q-20 0 -20 19
q0 97 -0.5 191.5t-0.5 191.5h-169v-383q0 -9 -3.5 -14t-14.5 -5h-71q-20 0 -20 19v89.5v87.5t0.5 95t0.5 111h-169v-383q0 -9 -3.5 -14t-14.5 -5h-70q-20 0 -20 19v383h-46q-19 0 -19 19v49q0 20 19 20h46v55q0 80 45 124t142 44q32 -1 70.5 -5t68.5 -15q23 19 57.5 29
t83.5 10zM374 554q0 31 6 57q-29 4 -49.5 5.5t-36.5 1.5q-27 0 -44.5 -7.5t-27 -21t-13 -32.5t-3.5 -43v-24h168v64z" />
    <glyph glyph-name="ffl" unicode="ffl" horiz-adv-x="819" 
d="M564 732q26 0 62 -3.5t66 -13.5l49 11q19 5 19 -15v-692q0 -9 -3.5 -14t-14.5 -5h-70q-20 0 -20 19q0 154 -0.5 306t-0.5 306q-20 2 -39.5 3.5t-33.5 1.5q-46 0 -70.5 -18.5t-24.5 -64.5v-63h100q11 0 15 -5t4 -15v-49q0 -10 -4 -14.5t-15 -4.5h-101v-383q0 -9 -3.5 -14
t-14.5 -5h-71q-19 0 -19 19v383h-169v-383q0 -9 -3.5 -14t-14.5 -5h-70q-20 0 -20 19v383h-46q-19 0 -19 19v49q0 20 19 20h46v55q0 79 45 124t142 44q32 -1 70.5 -5t68.5 -15q23 19 57.5 29t83.5 10zM206 490h168v64q0 31 6 57q-29 4 -49.5 5.5t-36.5 1.5q-45 0 -66.5 -20
t-21.5 -64v-44z" />
    <glyph glyph-name="ft" unicode="ft" horiz-adv-x="646" 
d="M269 717q17 0 49 -3.5t63 -14.5q12 -5 14.5 -11.5t0.5 -15.5l-8 -43q-3 -16 -18 -13q-22 4 -44 5t-36 1q-45 0 -64.5 -20t-19.5 -64v-48h173v87q0 14 4.5 17.5t15.5 6.5l66 18q20 5 20 -17v-112h107q12 0 15.5 -5t3.5 -14v-50q0 -10 -3.5 -14.5t-15.5 -4.5h-107v-257
q0 -21 6 -31.5t16 -15t24 -4.5h31q11 0 26.5 1t32.5 3q8 1 11 -2t5 -12l7 -46q3 -18 -13 -25q-13 -6 -30.5 -10t-36 -6.5t-35 -3.5t-28.5 -1q-45 0 -70 15t-36.5 37.5t-13.5 49.5t-2 51l-1 257h-173v-383q0 -9 -3.5 -14t-14.5 -5h-70q-20 0 -20 19v383h-46q-19 0 -19 19v49
q0 20 19 20h47v69q1 36 11 65.5t30 50t52 31.5t78 11z" />
    <glyph glyph-name="fj" unicode="fj" horiz-adv-x="543" 
d="M288 717q15 0 34.5 -1t39.5 -4t39.5 -7.5t35.5 -11.5q12 -5 14 -12t0 -16l-8 -40q-2 -11 -8.5 -12.5t-20.5 0.5q-29 3 -60 5.5t-52 2.5q-46 0 -71 -18.5t-25 -64.5v-48h259q20 0 20 -19v-482q0 -49 -11 -86.5t-37 -63t-68.5 -37.5t-105.5 -10q-5 0 -13.5 4t-9.5 16l-4 47
q-1 11 3 15.5t13 6.5q35 7 58.5 13.5t38 17.5t20.5 28.5t6 46.5v415h-169v-383q0 -8 -3.5 -13.5t-14.5 -5.5h-71q-20 0 -20 19v383h-46q-19 0 -19 20v48q0 20 19 20h46v59q0 80 44.5 124t146.5 44z" />
    <glyph glyph-name="ffj" unicode="ffj" horiz-adv-x="819" 
d="M482 402v-383q0 -9 -3.5 -14t-14.5 -5h-71q-20 0 -20 19v89.5v87.5t0.5 95t0.5 111h-169v-383q0 -9 -3.5 -14t-14.5 -5h-70q-20 0 -20 19v383h-46q-19 0 -19 19v49q0 20 19 20h46v55q0 81 44.5 124.5t142.5 43.5q32 -1 70.5 -5t68.5 -15q23 19 57.5 29t83.5 10
q15 0 34.5 -1t39.5 -4t40 -7.5t36 -11.5q11 -4 13 -11.5t0 -16.5l-8 -40q-2 -13 -11 -12.5t-18 0.5q-29 3 -59.5 5.5t-52.5 2.5q-46 0 -70.5 -18.5t-24.5 -64.5v-63h259q19 0 19 -20v-481q0 -49 -11 -86.5t-37 -63t-68.5 -37.5t-105.5 -10q-5 0 -13.5 4t-9.5 16l-4 47
q-1 11 3 15.5t13 6.5q35 7 58.5 13.5t38 17.5t20.5 28.5t6 46.5v415h-169zM294 618q-44 0 -65.5 -18.5t-22.5 -60.5v-49h168v66q0 31 6 55q-29 4 -49.5 5.5t-36.5 1.5z" />
    <glyph glyph-name=".notdef" horiz-adv-x="449" 
d="M0 700h449v-700h-449v700zM343 70l-119 216l-118 -216h237zM343 630h-238l119 -215zM70 142l114 208l-114 209v-417zM379 142v417l-115 -209z" />
    <glyph glyph-name="quotedbl" unicode="&#x22;" horiz-adv-x="320" 
d="M254 463q-2 -11 -13 -11h-43q-12 0 -12 11l-10 187q0 13 15 13h60q8 0 10 -5t2 -8zM133 463q0 -11 -13 -11h-43q-10 0 -10 11l-11 187q0 13 15 13h59q9 0 11.5 -5t2.5 -8z" />
    <glyph glyph-name="numbersign" unicode="#" horiz-adv-x="588" 
d="M322 227h-99l-52 -212q-3 -15 -14 -15h-52q-17 0 -14 17l52 210h-108q-16 0 -12 13l11 44q4 15 20 15h106l24 98h-107q-8 0 -11.5 2.5t-1.5 11.5l12 42q3 8 7 11.5t13 3.5h106l43 179q2 8 5 11.5t12 3.5h52q16 0 12 -17l-43 -177h98l44 179q2 8 5 11.5t12 3.5h52
q16 0 13 -15l-45 -179h110q18 0 14 -15l-11 -42q-2 -7 -6 -10.5t-12 -3.5h-112l-25 -98h111q17 0 13 -16l-11 -42q-4 -14 -18 -14h-112l-52 -212q-2 -8 -5 -11.5t-10 -3.5h-51q-19 0 -14 17zM241 299h99l24 98h-99z" />
    <glyph glyph-name="dollar" unicode="$" horiz-adv-x="574" 
d="M247 739q0 12 14 12h52q8 0 10 -4t2 -9v-79q16 -1 35 -3t38.5 -5t38 -7.5t34.5 -10.5q17 -6 19.5 -13t0.5 -17l-9 -38q-2 -12 -8.5 -15.5t-20.5 -1.5q-33 5 -75 9t-87 4q-63 0 -88.5 -23t-25.5 -64q0 -24 6.5 -38t20.5 -23t36.5 -14.5t54.5 -11.5q43 -8 83 -18.5
t70.5 -31t48.5 -55t18 -89.5q0 -48 -15 -82t-40.5 -56.5t-60 -35.5t-74.5 -17v-85q0 -4 -2 -8t-10 -4h-52q-14 0 -14 11v83q-40 2 -86.5 8.5t-78.5 19.5q-17 6 -19.5 13t-0.5 17l8 40q3 11 8.5 14t18.5 1q19 -2 43 -4.5t48 -4.5t46 -3.5t39 -1.5q127 0 127 86q0 26 -6 43
t-19.5 28.5t-36 18.5t-55.5 13q-44 8 -84 19t-70.5 30.5t-48.5 51.5t-18 82q0 84 48.5 132t136.5 56v81z" />
    <glyph glyph-name="ampersand" unicode="&#x26;" horiz-adv-x="715" 
d="M661 -44q-5 -7 -11.5 -9.5t-18.5 2.5q-15 7 -34.5 19t-40.5 26t-41 29.5t-37 30.5q-49 -32 -105.5 -48.5t-113.5 -16.5q-45 0 -85.5 11t-70.5 33.5t-47.5 58t-17.5 85.5q0 67 41 123t114 98q-23 34 -34.5 67.5t-11.5 55.5q0 32 10.5 60t30.5 48.5t49 32.5t67 12
q35 0 63.5 -10.5t48.5 -29t31 -44t11 -54.5q0 -54 -35 -95t-95 -73q35 -52 73 -98.5t84 -91.5q40 42 67.5 97t36.5 121q2 14 5 17t17 3h45q14 -1 18 -7t3 -20q-2 -40 -14 -80t-29.5 -76.5t-38.5 -67t-41 -51.5q29 -26 62 -49.5t65 -42.5q9 -5 9.5 -10t-5.5 -14zM260 74
q35 -1 73 10.5t76 35.5q-23 22 -47 48.5t-46 54t-41.5 53.5t-32.5 47q-48 -28 -76 -63t-28 -78q0 -29 9.5 -49.5t26 -33.5t39 -19t47.5 -6zM359 533q0 24 -16.5 40t-41.5 16q-15 0 -26 -6t-17.5 -15.5t-10 -20.5t-3.5 -21q0 -35 35 -84q35 19 57.5 40t22.5 51z" />
    <glyph glyph-name="quotesingle" unicode="'" horiz-adv-x="215" 
d="M139 463q0 -11 -13 -11h-43q-11 0 -11 11l-10 187q0 13 14 13h60q9 0 11 -5t2 -8z" />
    <glyph glyph-name="parenleft" unicode="(" horiz-adv-x="311" 
d="M167 308q0 -124 28 -217.5t66 -153.5q7 -11 5 -16t-11 -10l-35 -20q-9 -5 -15 -5t-13 10q-24 32 -48 73.5t-43.5 93t-31.5 112.5t-12 133q0 65 12.5 122.5t32 107t43.5 90.5t47 73q7 10 13 10.5t14 -4.5l36 -21q9 -5 11 -10t-5 -16q-38 -61 -66 -148t-28 -204z" />
    <glyph glyph-name="parenright" unicode=")" horiz-adv-x="313" 
d="M154 308q0 117 -28 204t-66 148q-6 11 -4.5 16t10.5 10l36 21q8 5 14 4.5t14 -10.5q23 -32 46.5 -73t43 -90.5t32 -107t12.5 -122.5q0 -72 -12 -133t-31.5 -112.5t-43 -93t-47.5 -73.5q-8 -10 -14 -10t-15 5l-35 20q-9 5 -10.5 10t4.5 16q19 30 36 68.5t30 85t20.5 101
t7.5 116.5z" />
    <glyph glyph-name="asterisk" unicode="*" horiz-adv-x="383" 
d="M329 419q-6 -8 -11 -9t-14 3l-71 38l-5 -77q-1 -11 -3.5 -13.5t-13.5 -2.5h-34q-10 0 -12 2.5t-4 13.5l-5 77l-72 -35q-6 -3 -11.5 -3t-10.5 8l-16 24q-3 5 -2 10t9 10l65 46l-66 40q-7 5 -9 10t4 15l12 22q6 11 11.5 11t14.5 -5l71 -34l4 78q1 10 4 12.5t15 2.5h30
q11 0 15 -3.5t5 -12.5l3 -77l73 35q8 5 12 4.5t10 -10.5l14 -22q8 -12 -1 -19l-72 -47l69 -47q9 -6 9.5 -10.5t-5.5 -13.5z" />
    <glyph glyph-name="plus" unicode="+" horiz-adv-x="574" 
d="M335 366h144q17 0 17 -16v-51q0 -16 -17 -16h-144v-150q0 -17 -15 -17h-63q-17 0 -17 17v150h-146q-16 0 -16 16v51q0 16 16 16h146v142q0 17 17 17h62q16 0 16 -17v-142z" />
    <glyph glyph-name="comma" unicode="," horiz-adv-x="214" 
d="M172 26q0 -32 -8 -58.5t-21 -48.5t-29.5 -38.5t-33.5 -26.5q-7 -4 -14 -4t-13 6l-18 18q-7 7 -5.5 12t9.5 13q18 17 25.5 35.5t7.5 36.5q0 17 -6.5 34t-17.5 30q-8 9 -8.5 16.5t11.5 15.5l51 39q11 8 19 6t16 -10q17 -16 26 -37t9 -39z" />
    <glyph glyph-name="hyphen" unicode="-" horiz-adv-x="388" 
d="M340 363q17 0 17 -16v-51q0 -16 -17 -16h-290q-17 0 -17 16v51q0 16 17 16h290z" />
    <glyph glyph-name="period" unicode="." horiz-adv-x="206" 
d="M163 51q0 -12 -2.5 -22.5t-9 -19t-18.5 -13.5t-31 -5q-20 0 -32 5t-18.5 13.5t-8.5 19t-2 22.5q0 25 12 42t49 17q38 0 49.5 -16.5t11.5 -42.5z" />
    <glyph glyph-name="slash" unicode="/" horiz-adv-x="284" 
d="M100 -49q-2 -8 -7 -11t-10 -3h-60q-18 0 -13 17q3 13 11.5 48.5t20 84.5t25.5 108.5t29 121t29 120.5t26 108.5t20.5 84.5t11.5 48q3 15 18 15h59q14 0 11 -19z" />
    <glyph glyph-name="zero" unicode="0" horiz-adv-x="574" 
d="M287 -9q-59 0 -100.5 16t-69 43.5t-43.5 63t-23.5 74t-9.5 78.5t-2 75q0 24 2 58t10 70.5t24 73t43.5 65t68.5 46.5t100 18q87 0 137.5 -31t76.5 -79t33.5 -106.5t7.5 -114.5q0 -31 -2 -69.5t-10.5 -77.5t-25 -75.5t-45 -65t-70.5 -45.5t-102 -17zM287 574q-43 0 -69 -19
t-40.5 -52t-19 -77.5t-4.5 -94.5q0 -52 4.5 -96t18.5 -76.5t40 -50.5t70 -18t71.5 18t43 50t21 76t5.5 97q0 57 -4.5 102t-19.5 76.5t-43 48t-74 16.5z" />
    <glyph glyph-name="one" unicode="1" horiz-adv-x="574" 
d="M126 0q-17 0 -17 17v63q0 17 17 17h114v449h-104q-10 0 -14 2.5t-4 12.5v34q0 8 2 14.5t12 10.5l92 34q12 6 23.5 8t25.5 2h59q13 0 16.5 -5t3.5 -15v-547h124q17 0 17 -17v-63q0 -17 -17 -17h-350z" />
    <glyph glyph-name="two" unicode="2" horiz-adv-x="574" 
d="M206 97h285q17 0 17 -17v-63q0 -17 -16 -17h-428q-17 0 -17 17v57q0 20 13 33q36 35 68 65q27 26 52 50t34 33q5 5 16 15.5t25.5 24t30 29t29.5 30.5q29 29 47.5 58t18.5 65q0 24 -4.5 42t-17.5 29t-37 16.5t-63 5.5q-45 0 -91 -4t-79 -9q-14 -2 -19 1.5t-7 14.5l-7 40
q-2 9 0.5 16.5t19.5 14.5q20 8 46 13t52 8t49.5 4.5t37.5 1.5q66 0 111 -12.5t72.5 -36t39.5 -57t12 -76.5q0 -33 -5.5 -59t-17 -48.5t-29 -44.5t-42.5 -47l-44.5 -44.5t-43 -41.5t-49 -46t-61.5 -58z" />
    <glyph glyph-name="three" unicode="3" horiz-adv-x="574" 
d="M515 239q0 -74 -19 -121.5t-54 -75.5t-84 -39t-110 -11q-14 0 -37 1.5t-49 4.5t-51.5 8t-44.5 13q-17 7 -19.5 14t-0.5 18l7 39q2 9 7.5 13.5t19.5 2.5q38 -5 81.5 -10t85.5 -5q30 0 57.5 4.5t48.5 19.5t33.5 42.5t12.5 73.5q0 32 -12 48t-44 22l-152 29q-14 2 -19 8
t-5 19v33q0 13 2.5 19.5t8.5 12.5l156 142l-1 2h-259q-18 0 -18 18v62q0 16 17 16h395q11 0 15.5 -5t4.5 -13v-52q0 -13 -4 -22.5t-17 -21.5l-145 -134v-3l65 -13q59 -11 93.5 -50t34.5 -109z" />
    <glyph glyph-name="four" unicode="4" horiz-adv-x="574" 
d="M351 511l-201 -246l-1 -3h205v248zM463 18q0 -8 -3.5 -13t-14.5 -5h-75q-17 0 -17 17v148l-314 1q-8 0 -14 4t-6 14v57q0 7 1.5 14t8.5 15l313 377q7 8 14 11.5t19 3.5h72q9 0 12.5 -4.5t3.5 -10.5v-384h74q16 0 16 -16v-64q0 -17 -16 -17l-74 -1v-147z" />
    <glyph glyph-name="five" unicode="5" horiz-adv-x="574" 
d="M398 231q0 36 -21.5 53t-60.5 24l-220 37q-20 4 -25.5 14t-3.5 28l40 252q2 14 8.5 19t20.5 5h329q17 0 17 -16v-63q0 -17 -18 -17h-261l-21 -136l190 -28q64 -10 103.5 -49.5t39.5 -113.5q0 -73 -18.5 -121t-53 -76t-83 -39.5t-107.5 -11.5q-14 0 -37 1.5t-49 4.5
t-51.5 8t-44.5 13q-17 7 -19.5 14t-0.5 18l7 39q2 9 7.5 13.5t19.5 2.5q38 -5 81 -9.5t85 -4.5q31 0 57.5 4.5t46.5 19.5t31.5 42.5t11.5 72.5z" />
    <glyph glyph-name="six" unicode="6" horiz-adv-x="574" 
d="M537 192q0 -56 -20.5 -94t-55.5 -62t-80.5 -34.5t-94.5 -10.5q-89 0 -138 23.5t-72.5 66t-28.5 101t-5 127.5q0 41 3 83.5t12.5 83t27 76t46.5 62t71.5 42t102.5 15.5q12 0 32.5 -1t45 -3.5t50.5 -8t49 -14.5q16 -6 19 -13t1 -17l-9 -40q-2 -10 -7.5 -14.5t-16.5 -2.5
q-35 5 -77 9t-88 4q-42 0 -69 -13t-43 -36.5t-23.5 -56t-9.5 -70.5q33 4 58.5 6.5t46.5 4t39.5 2t39.5 0.5q97 0 145.5 -52.5t48.5 -162.5zM423 191q0 58 -20.5 88t-78.5 30q-25 0 -66.5 -2.5t-101.5 -9.5q-1 -47 1.5 -90t17.5 -71q11 -22 37 -35.5t78 -13.5q24 0 48 4
t42.5 15.5t30.5 31.5t12 53z" />
    <glyph glyph-name="seven" unicode="7" horiz-adv-x="574" 
d="M226 -3q-5 -9 -10.5 -11.5t-15.5 2.5l-66 30q-11 5 -12 11t4 15l263 523h-330q-17 0 -17 16v63q0 18 17 18h440q11 0 15.5 -5.5t4.5 -13.5v-47q0 -15 -4.5 -27t-10.5 -23z" />
    <glyph glyph-name="eight" unicode="8" horiz-adv-x="574" 
d="M285 672q51 0 93 -11t72.5 -34t47 -58.5t16.5 -84.5q0 -18 -6 -37.5t-17 -37.5t-28 -32.5t-38 -23.5v-2q52 -19 81.5 -62.5t29.5 -104.5q0 -45 -18 -81t-51.5 -60.5t-80.5 -38t-104 -13.5q-58 0 -104 11t-78.5 34t-50 59t-17.5 87q0 60 26.5 103t79.5 66q-38 18 -61 55
t-23 77q0 94 63 141.5t168 47.5zM398 482q0 50 -32 71.5t-81 21.5q-64 0 -90.5 -24t-26.5 -69q0 -20 8.5 -34.5t24 -25t37 -17.5t46.5 -12q63 10 88.5 32t25.5 57zM419 188q0 30 -11 50t-30.5 34t-45 22.5t-55.5 15.5q-23 -5 -45.5 -12t-41.5 -19.5t-30.5 -33.5t-11.5 -52
q0 -29 10.5 -49t29 -32.5t43 -18t51.5 -5.5t52 6.5t43.5 19t30 31.5t11.5 43z" />
    <glyph glyph-name="nine" unicode="9" horiz-adv-x="574" 
d="M40 467q0 55 20.5 94t55 63.5t80 35.5t94.5 11q87 0 136.5 -24t73.5 -66t29.5 -100.5t5.5 -127.5q0 -41 -3 -83.5t-12.5 -83t-27 -76t-47 -62t-72 -42t-102.5 -15.5q-11 0 -31.5 0.5t-45 3.5t-50.5 8.5t-48 14.5q-16 5 -19.5 12t-0.5 18l8 39q3 11 8 15t16 2q35 -5 77 -9
t87 -4q42 0 69 13t43.5 36.5t24 55.5t9.5 70q-33 -3 -58.5 -5.5t-46.5 -3.5t-39.5 -1.5t-39.5 -0.5q-98 0 -146 51t-48 161zM154 469q0 -29 4.5 -51t15.5 -36.5t30.5 -22t48.5 -7.5q24 0 66 3t102 10q0 22 -0.5 45.5t-2.5 45t-5.5 39.5t-9.5 29q-11 23 -38 36t-78 13
q-24 0 -48 -4t-42.5 -15.5t-30.5 -31.5t-12 -53z" />
    <glyph glyph-name="colon" unicode=":" horiz-adv-x="212" 
d="M167 51q0 -12 -2.5 -22.5t-9 -19t-18.5 -13.5t-31 -5q-20 0 -32 5t-18.5 13.5t-8.5 19t-2 22.5q0 25 12 42t49 17q38 0 49.5 -16.5t11.5 -42.5zM167 387q0 -12 -2.5 -22.5t-9 -19t-18.5 -13.5t-31 -5q-20 0 -32 5t-18.5 13.5t-8.5 19.5t-2 22q0 25 12 42t49 17
q38 0 49.5 -16.5t11.5 -42.5z" />
    <glyph glyph-name="semicolon" unicode=";" horiz-adv-x="212" 
d="M167 387q0 -12 -2.5 -22.5t-9 -19t-18.5 -13.5t-31 -5q-20 0 -32 5t-18.5 13.5t-8.5 19.5t-2 22q0 25 12 42t49 17q38 0 49.5 -16.5t11.5 -42.5zM169 26q0 -32 -8 -58.5t-21 -48.5t-29.5 -38.5t-33.5 -26.5q-15 -8 -27 2l-18 18q-7 7 -5.5 12t9.5 13q18 17 25.5 35.5
t7.5 36.5q0 17 -6.5 34t-17.5 30q-8 9 -8.5 16.5t11.5 15.5l51 39q11 8 19 6t16 -10q17 -16 26 -37t9 -39z" />
    <glyph glyph-name="less" unicode="&#x3c;" horiz-adv-x="574" 
d="M479 182q7 -3 10 -7t3 -13v-74q0 -15 -14 -8l-383 201q-5 2 -9 6t-4 14v48q0 9 3.5 12.5t8.5 7.5l383 200q14 7 14 -9v-70q0 -9 -3.5 -12.5t-9.5 -6.5l-267 -143v-4l268 -142v0z" />
    <glyph glyph-name="equal" unicode="=" horiz-adv-x="574" 
d="M479 452q17 0 17 -16v-52q0 -16 -17 -16h-384q-17 0 -17 16v51q0 17 17 17h384zM479 281q17 0 17 -16v-52q0 -15 -17 -15h-384q-17 0 -17 15v52q0 16 17 16h384z" />
    <glyph glyph-name="greater" unicode="&#x3e;" horiz-adv-x="574" 
d="M363 324v4l-267 143q-6 3 -9.5 6.5t-3.5 12.5v70q0 16 14 9l383 -200q5 -4 8.5 -7.5t3.5 -12.5v-48q0 -10 -4 -14t-9 -6l-383 -201q-14 -7 -14 8v74q0 9 3 13t10 7z" />
    <glyph glyph-name="question" unicode="?" horiz-adv-x="389" 
d="M364 515q0 -26 -7.5 -46.5t-19.5 -36t-27 -28t-29 -22.5q-20 -15 -36.5 -29.5t-28 -30.5t-17.5 -36t-6 -45v-48q0 -8 -2.5 -13.5t-11.5 -5.5h-64q-10 0 -14 3.5t-6 13.5q-2 17 -2.5 33t-0.5 27q0 35 9 62.5t24.5 50t36.5 42.5t46 40q19 15 31 28.5t12 33.5
q0 38 -23.5 53.5t-76.5 15.5q-23 0 -51 -2.5t-52 -4.5q-14 -2 -17.5 2t-5.5 12l-6 41q-2 11 0.5 16.5t15.5 10.5q33 14 68 17.5t61 3.5q99 0 149.5 -41t50.5 -117zM208 50q0 -12 -2 -22.5t-8.5 -18.5t-18.5 -13t-31 -5q-20 0 -32 5t-18 13t-8 19t-2 22q0 24 12 41t48 17
q37 0 48.5 -16.5t11.5 -41.5z" />
    <glyph glyph-name="at" unicode="@" horiz-adv-x="853" 
d="M447 701q88 0 155 -26.5t112 -73t67.5 -109.5t22.5 -136q0 -53 -15.5 -93t-40 -66.5t-56.5 -40t-65 -13.5q-90 0 -120 62q-29 -17 -62 -30t-71 -13q-58 0 -83.5 27.5t-25.5 80.5q0 67 36.5 97t108.5 30h84q0 22 -3 37t-11 23t-22.5 11.5t-37.5 3.5q-17 0 -43.5 -2
t-52.5 -5q-11 -2 -17.5 -1t-8.5 13l-5 25q-2 10 2.5 14t11.5 7q23 10 57 15t63 5q46 0 75 -10t45 -28t21.5 -43.5t5.5 -56.5v-141q0 -6 1.5 -14.5t7.5 -16t17 -13t31 -5.5q40 0 68 36.5t28 103.5q0 60 -18.5 110.5t-54.5 87t-87.5 57t-117.5 20.5q-70 0 -128.5 -22t-101 -61
t-66.5 -91.5t-24 -113.5q0 -63 22 -116t61.5 -91.5t95 -59.5t123.5 -21q14 0 48 3t70 13q9 3 15.5 2.5t10.5 -10.5l10 -27q2 -6 1.5 -13t-13.5 -14q-25 -13 -65 -20t-81 -7q-87 0 -156 26.5t-118 74.5t-75 114t-26 145q0 78 31 144t84 114t125 75t155 27zM344 272
q0 -22 9.5 -32t34.5 -10t53.5 11t52.5 24q0 17 -0.5 35t-0.5 35h-88q-29 0 -45 -13.5t-16 -49.5z" />
    <glyph glyph-name="A" unicode="A" horiz-adv-x="579" 
d="M129 21q-4 -12 -10 -16.5t-17 -4.5h-78q-18 0 -11 20l202 622q4 11 9 16t19 5h87q14 0 19 -5.5t8 -15.5l206 -624q5 -18 -10 -18h-88q-12 0 -16.5 5t-8.5 16l-42 144h-224zM329 401l-41 144h-4l-40 -142l-42 -144h169z" />
    <glyph glyph-name="B" unicode="B" horiz-adv-x="585" 
d="M539 189q0 -44 -15.5 -79t-42 -59.5t-61.5 -37.5t-74 -13h-254q-13 0 -17.5 5t-4.5 14v625q0 19 20 19h229q100 0 150.5 -48t50.5 -128q0 -14 -3.5 -33t-12.5 -38t-24.5 -36.5t-39.5 -29.5l1 -2q30 -10 49 -29t30 -41.5t15 -46t4 -42.5zM421 196q0 40 -24.5 70t-78.5 30
h-135v-198h135q30 0 50 8t32 21.5t16.5 31t4.5 37.5zM402 478q0 38 -23.5 63t-76.5 25h-119v-174h130q38 0 63.5 24.5t25.5 61.5z" />
    <glyph glyph-name="C" unicode="C" horiz-adv-x="562" 
d="M62 326q0 64 10 126t39.5 110.5t82 78.5t138.5 30q18 0 41.5 -1.5t48.5 -5t49 -9t44 -13.5q12 -5 16.5 -12t2.5 -19l-9 -41q-2 -9 -7 -13t-19 -2q-37 5 -79.5 9t-81.5 4q-51 0 -82 -19t-47.5 -52t-21.5 -76.5t-5 -92.5t6 -92t23 -74.5t47.5 -49.5t79.5 -18q44 0 82 4
t79 9q14 2 19 -2t8 -14l8 -38q6 -22 -17 -32q-18 -8 -42.5 -13.5t-50 -9.5t-50 -5.5t-42.5 -1.5q-84 0 -136.5 28.5t-82 75.5t-40.5 107t-11 124z" />
    <glyph glyph-name="D" unicode="D" horiz-adv-x="631" 
d="M92 0q-13 0 -17.5 5t-4.5 14v625q0 19 19 19h203q83 0 137 -26.5t85.5 -71.5t44 -105t12.5 -127q0 -68 -12 -128.5t-43 -106t-85.5 -72t-138.5 -26.5h-200zM453 326q0 70 -12.5 116.5t-34.5 73.5t-52.5 38t-66.5 11h-104v-466h97q34 0 65 9t55 34t38.5 69.5t14.5 114.5z
" />
    <glyph glyph-name="E" unicode="E" horiz-adv-x="528" 
d="M71 644q0 20 20 20h368q19 0 19 -19v-62q0 -18 -20 -18h-273v-172h242q20 0 20 -18v-62q0 -18 -20 -18h-242v-197h280q18 0 18 -19v-61q0 -18 -19 -18h-373q-20 0 -20 18v626z" />
    <glyph glyph-name="F" unicode="F" horiz-adv-x="499" 
d="M73 645q0 19 20 19h361q19 0 19 -19v-62q0 -18 -20 -18h-267v-172h233q19 0 19 -18v-62q0 -19 -20 -19h-231v-275q0 -19 -19 -19h-75q-20 0 -20 19v626z" />
    <glyph glyph-name="G" unicode="G" horiz-adv-x="622" 
d="M184 328q0 -47 6 -90t23 -75.5t47.5 -51.5t80.5 -19q23 0 53 3t50 9v167h-81q-20 0 -20 19v59q0 18 20 18h173q11 0 16 -6.5t5 -12.5v-29v-48v-58v-60t-0.5 -53t-0.5 -37q0 -15 -5.5 -26t-22.5 -17q-44 -15 -95 -22t-95 -7q-80 0 -133 25.5t-84.5 70.5t-44.5 106.5
t-13 133.5q0 64 10.5 125.5t40 110t82.5 78.5t137 30q18 0 41.5 -1.5t48.5 -5t49 -9t44 -13.5q12 -5 16.5 -11.5t2.5 -19.5l-10 -42q-2 -9 -6.5 -12.5t-18.5 -1.5q-37 5 -79 9t-80 4q-51 0 -81.5 -19t-47.5 -52t-22.5 -76.5t-5.5 -92.5z" />
    <glyph glyph-name="H" unicode="H" horiz-adv-x="618" 
d="M435 644q0 20 20 20h75q11 0 14.5 -5.5t3.5 -14.5v-625q0 -8 -3.5 -13.5t-14.5 -5.5h-75q-20 0 -20 19v280h-252v-280q0 -8 -3.5 -13.5t-14.5 -5.5h-75q-20 0 -20 19v625q0 20 20 20h75q11 0 14.5 -5.5t3.5 -14.5v-246h252v246z" />
    <glyph glyph-name="I" unicode="I" horiz-adv-x="276" 
d="M80 644q0 20 19 20h76q19 0 19 -20v-625q0 -19 -19 -19h-76q-19 0 -19 19v625z" />
    <glyph glyph-name="J" unicode="J" horiz-adv-x="442" 
d="M246 644q0 20 20 20h75q19 0 19 -20v-476q0 -85 -47 -131t-154 -46q-29 0 -62.5 4.5t-64.5 16.5q-18 7 -22.5 13.5t-0.5 18.5l10 45q3 10 7 12.5t15 0.5q23 -3 51.5 -5.5t50.5 -2.5q32 0 52 6t31.5 17.5t15.5 28.5t4 39v459z" />
    <glyph glyph-name="K" unicode="K" horiz-adv-x="580" 
d="M181 344l76 98l168 207q7 8 14 11.5t19 3.5h91q11 0 13.5 -6t-4.5 -14l-217 -264l224 -359q6 -10 2 -15.5t-12 -5.5h-92q-13 0 -19.5 5t-12.5 14l-164 272l-88 -109v-163q0 -8 -3.5 -13.5t-14.5 -5.5h-75q-20 0 -20 19v625q0 20 20 20h75q11 0 14.5 -5.5t3.5 -14.5v-300
h2z" />
    <glyph glyph-name="L" unicode="L" horiz-adv-x="502" 
d="M185 98h286q18 0 18 -17v-63q0 -18 -19 -18h-378q-20 0 -20 18v626q0 20 19 20h75q19 0 19 -20v-546z" />
    <glyph glyph-name="M" unicode="M" horiz-adv-x="757" 
d="M381 238l61 130l136 276q5 10 11.5 15t21.5 5h58q10 0 13.5 -5.5t3.5 -12.5v-627q0 -8 -3.5 -13.5t-14.5 -5.5h-73q-20 0 -20 19v401h-3l-35 -77l-110 -224q-5 -9 -11.5 -14t-17.5 -5h-38q-13 0 -19 4.5t-11 12.5l-114 233l-33 70h-2v-401q0 -8 -3.5 -13.5t-14.5 -5.5
h-73q-19 0 -19 19v627q0 18 18 18h62q15 0 21 -4t11 -15l136 -280l59 -127h3z" />
    <glyph glyph-name="N" unicode="N" horiz-adv-x="647" 
d="M183 457h-3v-438q0 -19 -19 -19h-72q-20 0 -20 19v626q0 18 19 18h57q23 0 30.5 -10t17.5 -24l126 -196l144 -225h3v435q0 10 4 15t15 5h72q19 0 19 -20v-625q0 -18 -19 -18h-57q-14 0 -20.5 4.5t-12.5 14.5l-217 331z" />
    <glyph glyph-name="O" unicode="O" horiz-adv-x="660" 
d="M600 341q0 -58 -8 -120t-35.5 -113t-82 -84t-147.5 -33q-61 0 -104.5 15t-73.5 41t-47.5 60.5t-26.5 73.5t-12 80t-3 80q0 30 3 66.5t13 73t28 71t48 61.5t73 43t103 16q89 0 143 -29t82.5 -76.5t37.5 -106.5t9 -119zM485 331q0 60 -7.5 105.5t-25.5 76t-48 46t-76 15.5
q-43 0 -71.5 -16.5t-46 -47.5t-25 -76t-7.5 -103q0 -56 6.5 -101t23.5 -76t46 -47.5t74 -16.5q46 0 76 16t48 46.5t25.5 75.5t7.5 103z" />
    <glyph glyph-name="P" unicode="P" horiz-adv-x="538" 
d="M183 19q0 -8 -3.5 -13.5t-14.5 -5.5h-75q-20 0 -20 19v626q0 19 20 19h208q45 0 84.5 -12.5t68.5 -37t45.5 -62t16.5 -87.5q0 -35 -9.5 -71.5t-34 -66.5t-66 -49.5t-105.5 -19.5h-115v-239zM398 462q0 54 -31 79t-82 25h-102v-213h106q60 0 84.5 31.5t24.5 77.5z" />
    <glyph glyph-name="Q" unicode="Q" horiz-adv-x="663" 
d="M601 341q0 -41 -3.5 -84t-14.5 -83t-31.5 -74.5t-55.5 -58.5l117 -33q11 -4 13 -10.5t-2 -15.5l-27 -61q-7 -22 -32 -12l-217 83q-5 -1 -10 -1h-10q-92 0 -145.5 33t-80.5 84t-34 113t-7 120q0 30 3 66.5t13 73t27.5 71t47.5 61.5t73 43t103 16q89 0 143 -29t83 -76.5
t38 -106.5t9 -119zM485 331q0 60 -7.5 105.5t-25.5 76t-48 46t-76 15.5q-42 0 -71 -16.5t-46 -47.5t-24.5 -76t-7.5 -103q0 -56 7 -101t24.5 -76t46 -47.5t71.5 -16.5q44 0 74 16t48.5 46.5t26.5 75.5t8 103z" />
    <glyph glyph-name="R" unicode="R" horiz-adv-x="558" 
d="M524 21q4 -9 0.5 -15t-11.5 -6h-86q-11 0 -17.5 3t-11.5 14l-117 251h-102v-248q0 -20 -19 -20h-74q-20 0 -20 19v626q0 19 20 19h222q39 0 75.5 -11t65 -34.5t46 -60.5t17.5 -89q0 -27 -6.5 -54t-20.5 -51.5t-36.5 -45t-55.5 -32.5zM395 469q0 28 -9 46.5t-24 29.5
t-35 15.5t-42 4.5h-106v-202h104q18 0 38 4t36.5 15t27 32t10.5 55z" />
    <glyph glyph-name="S" unicode="S" horiz-adv-x="550" 
d="M262 -9q-19 0 -44 1.5t-51.5 5t-52.5 9t-45 13.5q-17 7 -19.5 14t-0.5 17l9 41q3 13 8.5 15t18.5 0q19 -2 43 -4.5t48 -4.5t46.5 -3.5t39.5 -1.5q128 0 128 88q0 27 -6 44.5t-20 29.5t-36.5 19t-56.5 13q-44 9 -84.5 20t-71.5 31t-49 53t-18 84q0 95 60.5 145t166.5 50
q14 0 36.5 -1t48 -3.5t51.5 -8t48 -14.5q17 -7 19.5 -14t0.5 -17l-10 -41q-3 -12 -9 -14.5t-20 -1.5q-34 5 -74.5 9t-85.5 4q-64 0 -89.5 -23.5t-25.5 -65.5q0 -24 6.5 -38.5t20.5 -23.5t36.5 -14.5t55.5 -11.5q43 -9 83 -20t70.5 -32t49 -56t18.5 -92t-20 -95t-53.5 -61.5
t-77.5 -33.5t-92 -10z" />
    <glyph glyph-name="T" unicode="T" horiz-adv-x="498" 
d="M484 583q0 -18 -20 -18h-159v-546q0 -8 -3.5 -13.5t-14.5 -5.5h-75q-19 0 -19 19v546h-158q-12 0 -16 4.5t-4 13.5v62q0 9 4 14t15 5h431q19 0 19 -19v-62v0z" />
    <glyph glyph-name="U" unicode="U" horiz-adv-x="628" 
d="M314 92q66 0 100.5 36.5t34.5 114.5v401q0 20 20 20h75q11 0 14.5 -5.5t3.5 -14.5l-1 -401q0 -30 -3.5 -59.5t-14.5 -58.5q-15 -36 -38.5 -61t-53.5 -41t-65 -23.5t-72 -7.5q-158 0 -216 111q-16 30 -23 65.5t-7 74.5v401q0 20 19 20h75q19 0 19 -20v-401
q0 -74 33.5 -112.5t99.5 -38.5z" />
    <glyph glyph-name="V" unicode="V" horiz-adv-x="593" 
d="M226 367l71 -229h3l70 230l85 274q6 21 28 21h79q11 0 12 -6t-2 -14l-206 -622q-4 -10 -9.5 -15.5t-20.5 -5.5h-79q-14 0 -20 5t-9 15l-207 624q-7 19 13 19h75q14 0 20 -4.5t9 -15.5z" />
    <glyph glyph-name="W" unicode="W" horiz-adv-x="842" 
d="M419 337l-21 -71l-73 -245q-3 -11 -8.5 -16t-19.5 -5h-72q-14 0 -20 5t-8 15l-179 624q-5 20 13 20h79q12 0 17.5 -4.5t8.5 -15.5q25 -91 46 -166q9 -32 17.5 -63.5t16 -57.5t12.5 -45t7 -25l32 -125h3l29 103q1 4 6 22.5t12.5 44t16 54.5t16 55t12.5 44.5t7 23.5
l-41 135q-2 8 0.5 14t10.5 6h75q23 0 28 -20q27 -93 48 -170q9 -33 18 -65t16.5 -59t12.5 -46.5t7 -25.5l30 -116h4l28 119q2 6 7 25.5t12 46.5t15.5 59t17.5 64q20 76 45 168q5 20 28 20h76q18 0 11 -22l-173 -621q-3 -11 -9.5 -16t-20.5 -5h-69q-16 0 -21.5 5.5t-8.5 15.5
l-73 247l-20 70z" />
    <glyph glyph-name="X" unicode="X" horiz-adv-x="551" 
d="M335 340l193 -321q4 -6 2.5 -12.5t-12.5 -6.5h-87q-11 0 -16.5 3.5t-11.5 13.5l-71 125l-58 106l-56 -102l-73 -128q-5 -10 -10.5 -14t-18.5 -4h-87q-10 0 -12 6.5t3 14.5l192 319l-179 302q-5 8 -2.5 15t12.5 7h87q13 0 17 -4t9 -13l64 -116l54 -97l55 101l62 111
q5 10 10.5 13.5t16.5 3.5h86q13 1 14.5 -6t-2.5 -14z" />
    <glyph glyph-name="Y" unicode="Y" horiz-adv-x="560" 
d="M221 273l-206 372q-3 7 -0.5 12.5t10.5 5.5h85q13 0 18 -3.5t10 -13.5l81 -156l57 -110h6l60 113l81 150q5 11 10.5 15.5t17.5 4.5h82q10 0 12.5 -5t-1.5 -13l-211 -372v-254q0 -8 -3.5 -13.5t-14.5 -5.5h-74q-20 0 -20 19v254z" />
    <glyph glyph-name="Z" unicode="Z" horiz-adv-x="515" 
d="M168 98h291q11 0 15 -4.5t4 -13.5v-61q0 -9 -3.5 -14t-14.5 -5h-403q-18 0 -18 18v55q0 8 2 17.5t8 17.5l298 457h-269q-11 0 -15 4.5t-4 13.5v62q0 9 3.5 14t14.5 5h380q19 0 19 -17l-1 -55q0 -11 -2.5 -18.5t-7.5 -16.5z" />
    <glyph glyph-name="bracketleft" unicode="[" horiz-adv-x="271" 
d="M142 -9h66q18 0 18 -17v-55q0 -17 -18 -17h-149q-20 0 -20 19v756q0 18 19 18h151q17 0 17 -16v-57q0 -16 -19 -16h-65v-615z" />
    <glyph glyph-name="backslash" unicode="\" horiz-adv-x="284" 
d="M10 674q-3 19 11 19h59q16 0 19 -15l173 -724q3 -17 -13 -17h-60q-14 0 -17 14z" />
    <glyph glyph-name="bracketright" unicode="]" horiz-adv-x="270" 
d="M131 606h-67q-19 0 -19 16v57q0 16 17 16h152q20 0 20 -18v-757q0 -18 -20 -18h-151q-18 0 -18 17v55q0 17 18 17h68v615z" />
    <glyph glyph-name="asciicircum" unicode="^" horiz-adv-x="528" 
d="M264 576l-187 -216q-12 -10 -24 -1l-26 21q-7 5 -6.5 8.5t5.5 10.5l179 249q6 8 12 11.5t20 3.5l59 -1q17 0 22.5 -3t10.5 -11l171 -249q5 -8 5 -12t-5 -9l-28 -21q-6 -5 -11 -5.5t-11 5.5z" />
    <glyph glyph-name="underscore" unicode="_" horiz-adv-x="500" 
d="M494 -67q18 0 18 -16v-37q0 -16 -17 -16h-490q-17 0 -17 15v37q0 17 17 17h489z" />
    <glyph glyph-name="grave" unicode="`" horiz-adv-x="515" 
d="M223 738q7 3 12 3t10 -8l88 -150q8 -12 -3 -18l-37 -24q-10 -6 -19 4l-110 137q-5 5 -5 10.5t8 10.5z" />
    <glyph glyph-name="a" unicode="a" horiz-adv-x="540" 
d="M357 223h-122q-38 0 -60 -17.5t-22 -66.5q0 -33 13.5 -45.5t48.5 -12.5q16 0 35 4t38 11t37 15.5t32 16.5v95zM363 57q-38 -29 -85.5 -47t-98.5 -18q-40 0 -66.5 10.5t-42 29t-22 44.5t-6.5 58q-1 88 46 127.5t142 39.5h128v26q0 22 -4.5 37.5t-16.5 25.5t-32 14t-51 4
q-12 0 -29.5 -1t-36 -2t-37 -3t-33.5 -3q-15 -2 -20.5 -0.5t-7.5 12.5l-9 37q-2 10 2 16.5t21 13.5q16 6 38 10t45 6.5t45.5 4t40.5 1.5q65 0 103.5 -13t58.5 -36.5t26 -57.5t6 -76v-193q0 -15 1.5 -23.5t5 -13t10.5 -6.5t19 -3q11 -1 15 -4t4 -11v-42q0 -17 -24 -21
q-12 -2 -24 -3.5t-23 -1.5q-35 0 -56.5 13t-29.5 48z" />
    <glyph glyph-name="b" unicode="b" horiz-adv-x="527" 
d="M484 249q0 -61 -9.5 -109t-33.5 -81t-66 -50.5t-107 -17.5q-24 0 -50.5 1.5t-52 5t-49 8.5t-41.5 11q-17 7 -22 19t-5 25v624q0 19 20 19h71q12 0 16 -5.5t4 -13.5v-210q38 14 69 19t55 5q62 0 101 -18t61.5 -51t30.5 -79t8 -102zM370 240q0 44 -5 75t-15.5 50t-27.5 28
t-41 10q-16 0 -29 -0.5t-26.5 -2.5t-29.5 -5.5t-37 -8.5v-289q24 -4 50.5 -6t50.5 -2q25 0 45 5t34.5 20.5t22.5 45.5t8 80z" />
    <glyph glyph-name="c" unicode="c" horiz-adv-x="448" 
d="M426 46q3 -11 0 -18t-17 -13q-29 -12 -72 -17.5t-80 -5.5q-70 0 -112.5 21t-65 56t-29.5 81.5t-7 97.5q0 46 7.5 91.5t30 81t65 57.5t111.5 22q17 0 37.5 -1t41 -4t40 -7.5t35.5 -11.5q18 -8 15 -28l-7 -40q-3 -11 -10 -13t-21 -1q-31 3 -63.5 6t-58.5 3q-61 0 -85 -35
t-24 -118q0 -47 5.5 -78t18.5 -50t33.5 -26.5t50.5 -7.5q23 0 60.5 2.5t68.5 6.5q12 2 18 0t8 -15z" />
    <glyph glyph-name="d" unicode="d" horiz-adv-x="529" 
d="M475 19q0 -9 -3.5 -14t-14.5 -5h-72q-18 0 -18 18v32q-1 0 -1.5 0.5t-1.5 0.5q-13 -9 -31 -19.5t-39 -19.5t-43.5 -14.5t-44.5 -5.5q-49 0 -80.5 17.5t-50 49.5t-26 77.5t-7.5 102.5q0 61 8.5 109.5t30.5 82.5t60.5 51.5t99.5 17.5q62 0 124 -23q1 0 1 0.5t1 0.5v207
q0 10 3.5 15t15.5 5h71q12 0 15 -5.5t3 -14.5v-666zM366 387q-35 10 -62.5 13.5t-52.5 3.5q-27 0 -46 -8t-30 -27t-16 -50.5t-5 -78.5q0 -48 4.5 -77.5t14.5 -45t24 -21t34 -5.5q15 0 34 5t38 12t35.5 14.5t27.5 13.5v251z" />
    <glyph glyph-name="e" unicode="e" horiz-adv-x="508" 
d="M157 215q1 -38 8.5 -63t22.5 -39.5t37 -20.5t53 -6q27 0 64 4t66 7q14 2 19.5 -0.5t7.5 -16.5l6 -33q2 -11 -0.5 -18t-16.5 -13q-15 -6 -35 -10.5t-42 -7.5t-44 -5t-40 -2q-72 0 -115 21t-66 56t-30.5 80.5t-7.5 94.5q0 36 6 81t27.5 84t64 65.5t115.5 26.5
q67 0 108.5 -20t64.5 -51.5t31.5 -72t9.5 -80.5q1 -27 -9 -44t-40 -17h-265zM257 410q-28 0 -46 -8t-29.5 -23.5t-16.5 -38t-7 -50.5h198q0 23 -4 44.5t-14.5 38.5t-30 27t-50.5 10z" />
    <glyph glyph-name="f" unicode="f" horiz-adv-x="391" 
d="M206 19q0 -8 -3.5 -13.5t-14.5 -5.5h-71q-20 0 -20 19v383h-46q-19 0 -19 20v48q0 20 19 20h47v53q0 38 9.5 69t30.5 53t54.5 34t81.5 12q10 0 25.5 -1t32.5 -4t34.5 -7.5t33.5 -10.5q11 -5 13 -12.5t0 -15.5l-7 -40q-3 -10 -9.5 -12t-19.5 0q-31 4 -53.5 5.5t-32.5 1.5
q-45 0 -65 -19.5t-20 -63.5v-42h119q11 0 14.5 -5t3.5 -14v-49q0 -11 -3.5 -15.5t-14.5 -4.5h-119v-383z" />
    <glyph glyph-name="g" unicode="g" horiz-adv-x="529" 
d="M265 500q48 0 100 -7t89 -19q18 -6 22.5 -18.5t4.5 -26.5v-423q0 -43 -6 -80t-28 -64t-63.5 -42t-113.5 -15q-39 0 -84.5 5t-76.5 18q-16 6 -19 13.5t-1 15.5l8 37q2 12 8.5 14t20.5 0q34 -5 71.5 -7.5t66.5 -2.5q32 0 52.5 5t32.5 15.5t16.5 27.5t4.5 40v33
q-38 -14 -68.5 -19t-54.5 -5q-61 0 -100 18t-61.5 50.5t-31 78t-8.5 101.5q0 59 10 106.5t35 81t67.5 51.5t106.5 18zM160 252q0 -46 5.5 -77t17 -49.5t30 -26.5t44.5 -8q22 0 51.5 4t61.5 13v285q-23 4 -49.5 6.5t-50.5 2.5q-23 0 -43 -5t-35 -20.5t-23.5 -45.5t-8.5 -79z
" />
    <glyph glyph-name="h" unicode="h" horiz-adv-x="532" 
d="M479 19q0 -19 -20 -19h-71q-20 0 -20 19q0 73 0.5 144.5t0.5 144.5q0 42 -13.5 67.5t-58.5 25.5q-15 0 -34.5 -5.5t-39 -12.5t-36.5 -15t-27 -12v-337q0 -9 -4 -14t-15 -5h-71q-18 0 -18 19v667q0 19 18 19h71q20 0 20 -19v-242q13 8 32 17.5t41 18t46 14t47 5.5
q52 0 82 -15.5t45.5 -41.5t20 -60.5t4.5 -72.5v-290v0z" />
    <glyph glyph-name="i" unicode="i" horiz-adv-x="247" 
d="M183 620q0 -12 -2 -22.5t-8.5 -18.5t-18 -12.5t-30.5 -4.5q-20 0 -31.5 5t-17.5 13t-8 18.5t-2 21.5q0 24 11.5 40.5t47.5 16.5q37 0 48 -15.5t11 -41.5zM177 19q0 -8 -3.5 -13.5t-14.5 -5.5h-71q-20 0 -20 19v452q0 19 20 19h71q11 0 14.5 -5.5t3.5 -13.5v-452z" />
    <glyph glyph-name="j" unicode="j" horiz-adv-x="263" 
d="M192 -11q0 -49 -11 -86.5t-37.5 -63t-69 -37.5t-105.5 -10q-5 0 -13 4t-9 16l-4 47q-2 12 1.5 16t14.5 6q35 7 58.5 13.5t38 17.5t20.5 28.5t6 46.5v484q0 19 20 19h70q20 0 20 -19v-482zM196 620q0 -12 -2 -22.5t-8.5 -18.5t-18 -12.5t-30.5 -4.5q-20 0 -31.5 5
t-17.5 13t-8 18.5t-2 21.5q0 24 12 40.5t47 16.5q37 0 48 -15.5t11 -41.5z" />
    <glyph glyph-name="k" unicode="k" horiz-adv-x="483" 
d="M168 309l77 81l83 84q8 8 15 12.5t21 4.5h80q14 0 16.5 -7t-5.5 -16l-160 -163l180 -282q5 -9 1.5 -16t-14.5 -7h-77q-16 0 -23 5t-12 14l-128 205l-57 -58v-147q0 -8 -4 -13.5t-15 -5.5h-71q-19 0 -19 19v667q0 20 19 20h71q11 0 15 -5.5t4 -14.5v-376z" />
    <glyph glyph-name="l" unicode="l" horiz-adv-x="265" 
d="M175 124q0 -23 10.5 -28.5t36.5 -5.5q11 -1 14.5 -3t5.5 -10l4 -51q1 -12 -13 -19t-33 -9.5t-32 -2.5q-57 0 -79.5 25.5t-22.5 76.5v589q0 19 19 19h71q19 0 19 -19v-562z" />
    <glyph glyph-name="m" unicode="m" horiz-adv-x="824" 
d="M770 19q0 -9 -3.5 -14t-14.5 -5h-72q-19 0 -19 19v284q0 56 -15 75.5t-53 19.5q-14 0 -31.5 -5t-35 -11.5t-33.5 -14.5l-28 -14q0 -8 0.5 -21t0.5 -30v-283q0 -9 -4 -14t-15 -5h-73q-17 0 -17 19v289q0 46 -14 68t-52 22q-13 0 -29.5 -4t-34 -11t-34.5 -15t-31 -15v-334
q0 -19 -19 -19h-72q-18 0 -18 19v451q0 20 18 20h71q20 0 20 -20v-29l1 -1q15 10 32 20.5t36.5 18.5t39.5 13.5t41 6.5q43 0 78.5 -13.5t58.5 -56.5q38 28 83 49t93 21q49 0 78 -15t44 -40.5t19 -59.5t4 -71v-294v0z" />
    <glyph glyph-name="n" unicode="n" horiz-adv-x="528" 
d="M477 19q0 -9 -4 -14t-15 -5h-72q-19 0 -19 19l1 281q0 44 -14.5 71t-57.5 27q-15 0 -34.5 -5t-39 -12.5t-36.5 -15t-27 -12.5v-334q0 -19 -19 -19h-71q-19 0 -19 19v451q0 20 19 20h71q19 0 19 -20v-30q1 0 1.5 -0.5t1.5 -0.5q14 10 33.5 20.5t41.5 19.5t46 14.5t47 5.5
q51 0 80 -15.5t44 -41.5t19 -60.5t4 -72.5v-290v0z" />
    <glyph glyph-name="o" unicode="o" horiz-adv-x="523" 
d="M479 253q0 -43 -5.5 -89t-27.5 -84.5t-66 -63t-122 -24.5q-75 0 -118 24.5t-64.5 63t-26.5 84.5t-5 89q0 35 6.5 78t28.5 80.5t64.5 63t114.5 25.5q73 0 116.5 -22t66.5 -57.5t30.5 -79.5t7.5 -88zM367 246q0 40 -4 69.5t-16 49t-33 29.5t-55 10q-32 0 -52 -10t-31.5 -30
t-16 -49.5t-4.5 -68.5q0 -40 4.5 -69.5t15.5 -49t31 -29.5t52 -10q34 0 55.5 9.5t33.5 29t16 49.5t4 70z" />
    <glyph glyph-name="p" unicode="p" horiz-adv-x="521" 
d="M486 248q0 -61 -9 -109t-31.5 -81t-61 -50t-97.5 -17q-25 0 -57.5 5t-67.5 17l-1 -1v-176q0 -8 -3.5 -14t-15.5 -6h-71q-12 0 -15.5 5t-3.5 15v634q0 20 19 20h71q11 0 14.5 -5.5t3.5 -14.5v-30l3 -2q13 9 31.5 19.5t39.5 19.5t43 15t44 6q49 0 81 -18t50.5 -50.5
t26 -78.5t7.5 -103zM373 249q0 48 -4.5 77t-14.5 45t-24.5 21.5t-34.5 5.5q-15 0 -34 -5t-37.5 -11.5t-35 -14.5t-27.5 -14v-250q34 -10 61.5 -13.5t53.5 -3.5q27 0 45.5 7.5t30 26.5t16.5 50.5t5 78.5z" />
    <glyph glyph-name="q" unicode="q" horiz-adv-x="529" 
d="M480 -164q0 -9 -3.5 -14.5t-14.5 -5.5h-72q-12 0 -16 5t-4 15v178l-1 1q-38 -14 -68.5 -18.5t-54.5 -4.5q-60 0 -99 18t-61.5 51t-31.5 79t-9 102q0 59 10 107t35.5 81.5t67.5 51.5t107 18q24 0 49.5 -1.5t51 -5t48 -8.5t40.5 -12q17 -6 21.5 -18t4.5 -26v-593zM371 393
q-25 4 -51.5 6.5t-50.5 2.5q-23 0 -43 -5t-35 -21t-23.5 -46t-8.5 -79q0 -47 5.5 -78.5t17 -50.5t30 -27.5t44.5 -8.5q23 0 53 4.5t62 13.5v289z" />
    <glyph glyph-name="r" unicode="r" horiz-adv-x="364" 
d="M182 19q0 -19 -19 -19h-72q-19 0 -19 19v451q0 20 19 20h71q20 0 20 -20v-44l2 -2q11 10 29 21.5t38.5 21t41.5 17.5t39 11q10 2 16 -1t8 -16l7 -67q1 -11 -1 -16t-18 -8q-21 -4 -44 -9.5t-45 -12t-41 -12.5t-32 -12v-322z" />
    <glyph glyph-name="s" unicode="s" horiz-adv-x="459" 
d="M420 147q0 -44 -17 -73.5t-45.5 -47.5t-64.5 -26t-75 -8q-38 0 -82 5.5t-73 16.5q-15 6 -19 13.5t-2 19.5l7 33q2 12 8 14.5t18 0.5q16 -3 35.5 -5t39 -3.5t37 -2.5t30.5 -1q48 0 69 13.5t21 43.5q0 17 -3.5 28t-12.5 18t-24.5 11.5t-39.5 7.5q-37 5 -70 13t-58.5 23.5
t-40.5 41t-15 66.5q0 74 52 112.5t136 38.5q15 0 35 -1t40.5 -4t40.5 -7t36 -10q25 -10 21 -30l-8 -36q-2 -11 -7.5 -13.5t-19.5 -0.5q-32 4 -70 7.5t-66 3.5q-48 0 -63.5 -13.5t-15.5 -42.5t19.5 -38t65.5 -16q36 -5 68.5 -13t57.5 -24t40 -43t15 -72z" />
    <glyph glyph-name="t" unicode="t" horiz-adv-x="361" 
d="M359 38q3 -17 -13 -25q-13 -6 -30.5 -10t-36 -6.5t-35 -3.5t-28.5 -1q-44 0 -68.5 12.5t-36.5 34.5t-15 51t-3 61v251h-50q-11 0 -15 4.5t-4 14.5v49q0 10 4 15t15 5h51v103q0 11 5.5 15.5t13.5 6.5l67 18q20 5 20 -12v-131h107q12 0 15.5 -5t3.5 -14v-50
q0 -10 -3.5 -14.5t-15.5 -4.5h-107v-249q0 -20 3 -31t10.5 -16.5t20.5 -6.5t33 -1q11 0 31.5 1t35.5 3q8 1 12 -2t6 -12z" />
    <glyph glyph-name="u" unicode="u" horiz-adv-x="531" 
d="M478 19q0 -19 -19 -19h-71q-11 0 -15 5t-4 14v31l-2 1q-15 -10 -34.5 -20.5t-41.5 -19.5t-45.5 -14.5t-46.5 -5.5q-51 0 -80.5 14t-44.5 39t-19 59t-4 73v294q0 20 19 20h73q18 0 18 -20v-281q0 -23 3 -41t11 -30.5t22 -19.5t37 -7q16 0 35.5 5t38.5 12.5t35 15t26 12.5
v334q0 9 4 14.5t15 5.5h71q19 0 19 -20v-451v0z" />
    <glyph glyph-name="v" unicode="v" horiz-adv-x="499" 
d="M253 123q0 3 6 21.5t13 40.5q8 26 19 57l80 232q3 8 7.5 12t15.5 4h76q20 0 12 -19l-170 -450q-4 -11 -10 -16t-18 -5h-67q-14 0 -19 4.5t-9 15.5l-170 450q-3 8 -1 14t12 6h79q11 0 15.5 -3.5t8.5 -14.5l80 -234q9 -29 17 -54q7 -21 12.5 -39.5t7.5 -21.5h3z" />
    <glyph glyph-name="w" unicode="w" horiz-adv-x="719" 
d="M446 287l46 -154l1 1q1 0 2 -1l47 166l50 173q2 11 6 14.5t13 3.5h80q11 0 11.5 -5.5t-1.5 -12.5l-147 -451q-5 -17 -13.5 -19t-15.5 -2h-57q-21 0 -27 20l-35 105l-42 127h-2l-42 -128l-34 -101q-7 -23 -32 -23h-52q-18 0 -23.5 6.5t-10.5 20.5l-150 444q-2 7 0 13t11 6
h80q10 0 14.5 -4t7.5 -14l51 -169l50 -173h3l48 151l31 92l-31 98q-2 7 0.5 13t10.5 6h74q11 0 15 -4t7 -15z" />
    <glyph glyph-name="x" unicode="x" horiz-adv-x="470" 
d="M296 250l159 -229q5 -8 2 -14.5t-13 -6.5h-85q-10 0 -15.5 3.5t-10.5 11.5l-100 156l-100 -156q-9 -15 -27 -15h-84q-10 0 -12.5 6t2.5 15l159 229l-150 220q-5 7 -2.5 13.5t12.5 6.5h85q11 0 14.5 -3.5t9.5 -11.5l94 -145l93 145q5 8 9 11.5t13 3.5h89q12 0 14 -6
t-3 -14z" />
    <glyph glyph-name="y" unicode="y" horiz-adv-x="491" 
d="M249 140q11 31 20.5 58t16.5 47q8 24 15 44l62 184q3 9 8 13t16 4h74q12 0 13 -6t-2 -14l-233 -636q-4 -10 -9 -14t-18 -4h-68q-12 0 -13.5 6t1.5 14l63 169l-175 465q-3 8 -1.5 14t12.5 6h77q10 0 14 -2t8 -13l65 -186l50 -149h4z" />
    <glyph glyph-name="z" unicode="z" horiz-adv-x="450" 
d="M396 93q20 0 20 -18v-56q0 -19 -19 -19h-349q-17 0 -17 17v44q0 8 1.5 16t9.5 17l240 305h-218q-19 0 -19 19v54q0 18 19 18h328q10 0 14.5 -3t4.5 -14v-49q0 -18 -12 -33l-234 -298h231z" />
    <glyph glyph-name="braceleft" unicode="{" horiz-adv-x="300" 
d="M187 11q0 -20 7 -29.5t28 -11.5l28 -2q8 -1 12.5 -4t4.5 -12v-42q0 -15 -15 -17q-20 -3 -37.5 -4t-29.5 -1q-28 0 -47 9t-30.5 23.5t-16.5 33t-5 38.5v185q0 17 -1 31.5t-5.5 25.5t-13.5 19.5t-26 13.5q-14 5 -14 16v35q0 11 13 14q17 5 26.5 13.5t14 20.5t5.5 26.5
t1 31.5v174q0 20 5.5 39t17.5 33.5t31 23.5t46 9q12 0 29 -1.5t37 -3.5q15 -3 15 -18v-42q0 -10 -4.5 -13t-12.5 -3l-28 -2q-21 -2 -27.5 -11.5t-6.5 -30.5v-161q0 -14 -2 -31.5t-8.5 -34.5t-18.5 -31t-31 -21v-2q21 -10 33 -22.5t17.5 -27t7 -31t1.5 -34.5v-171z" />
    <glyph glyph-name="bar" unicode="|" horiz-adv-x="263" 
d="M85 677q0 19 20 19h54q11 0 14.5 -5t3.5 -14v-772q0 -8 -3.5 -13.5t-14.5 -5.5h-54q-20 0 -20 19v772z" />
    <glyph glyph-name="braceright" unicode="}" horiz-adv-x="300" 
d="M105 182q0 18 1.5 34.5t7 31t17.5 27t33 22.5l1 2q-19 7 -31 21t-18.5 31t-9 34.5t-2.5 31.5v161q0 21 -6.5 30.5t-27.5 11.5l-28 2q-8 0 -12 3t-4 13v42q0 15 15 18q20 2 36.5 3.5t28.5 1.5q27 0 46 -9t31 -23.5t17.5 -33.5t5.5 -39v-174q0 -17 1 -31.5t5.5 -26.5
t14 -20.5t26.5 -13.5q13 -3 13 -14v-35q0 -11 -14 -16q-17 -5 -26 -13.5t-13.5 -19.5t-5.5 -25.5t-1 -31.5v-185q0 -20 -5 -38.5t-16 -33t-30 -23.5t-47 -9q-12 0 -30 1t-37 4q-15 1 -15 17v42q0 9 4 12t12 4l28 2q21 2 28 11.5t7 29.5v171z" />
    <glyph glyph-name="asciitilde" unicode="~" horiz-adv-x="574" 
d="M383 227q-20 0 -44.5 8.5t-49 19t-48 19t-42.5 8.5q-18 0 -32 -7.5t-35 -33.5q-5 -5 -8 -7.5t-14 2.5l-29 18q-8 3 -8.5 8.5t1.5 10.5q12 27 27 44.5t32.5 28t35 15t34.5 4.5q24 0 50 -8t51 -18t47.5 -18t40.5 -8q21 0 34 9t26 28q4 5 9 8.5t14 -2.5l30 -18
q9 -5 9.5 -9.5t-1.5 -9.5q-24 -51 -56 -71.5t-74 -20.5z" />
    <glyph glyph-name="dieresistonos" unicode="&#x385;" horiz-adv-x="412" 
d="M75 557q-19 0 -30 4.5t-17 12.5t-7.5 18t-1.5 21q0 23 10.5 38t45.5 15t45 -14.5t10 -38.5q0 -23 -10 -39.5t-45 -16.5zM335 557q-36 0 -45.5 17t-9.5 39q0 23 11 38t44 15q35 0 45.5 -14.5t10.5 -38.5q0 -23 -10 -39.5t-46 -16.5zM294 709q15 -8 4 -22l-101 -140
q-5 -5 -8.5 -7t-11.5 1l-39 18q-10 6 -5 19l80 155q6 13 22 6z" />
    <glyph glyph-name="tonos" unicode="&#x384;" horiz-adv-x="514" 
d="M374 709q15 -8 4 -22l-101 -140q-5 -5 -8.5 -7t-11.5 1l-39 18q-10 6 -5 19l80 155q6 13 22 6z" />
    <glyph glyph-name="dieresis" unicode="&#xa8;" horiz-adv-x="515" 
d="M179 557q-19 0 -30 4.5t-17 12.5t-7.5 18t-1.5 21q0 23 10.5 38t45.5 15t45 -14.5t10 -38.5q0 -23 -10 -39.5t-45 -16.5zM373 557q-36 0 -45.5 17t-9.5 39q0 23 11 38t44 15q35 0 45.5 -14.5t10.5 -38.5q0 -23 -10 -39.5t-46 -16.5z" />
    <glyph glyph-name="sterling" unicode="&#xa3;" horiz-adv-x="574" 
d="M324 669q15 0 35.5 -1t43.5 -4t47 -8.5t45 -13.5q9 -4 13 -7.5t2 -11.5l-9 -52q-2 -9 -7 -11.5t-13 -2.5l-66 8t-73 4q-48 0 -73.5 -23t-27.5 -66v-53.5t1 -54.5h163q19 0 19 -17v-50q0 -11 -4 -14.5t-15 -3.5h-161v-31.5t-1 -30.5q-1 -18 -2.5 -37t-5 -37t-9 -32.5
t-14.5 -23.5h45.5t70.5 -0.5t80.5 -0.5h76.5q18 0 18 -18v-60q0 -11 -4 -13.5t-15 -2.5h-404q-18 0 -18 16q-1 13 -1 25v24q0 17 19 30q29 20 39 52t13 65q1 7 2 26.5t1 48.5h-48q-11 0 -15 3.5t-4 14.5v50q0 17 19 17h46q-1 33 -1 65.5v64.5q2 75 50.5 121t141.5 46z" />
    <glyph glyph-name="trademark" unicode="&#x2122;" horiz-adv-x="692" 
d="M634 663q12 0 12 -12v-286q0 -14 -11 -14h-46q-5 0 -9 3t-4 11v175h-2l-28 -56q-10 -17 -21 -37.5t-19 -34.5q-6 -11 -17 -11h-19q-7 0 -10.5 2.5t-6.5 7.5l-36 70l-31 59h-1q0 -44 0.5 -87t0.5 -88q0 -14 -14 -14h-44q-14 0 -14 14v286q0 12 13 12h46q8 0 11.5 -3.5
t6.5 -9.5l90 -164h1l3.5 7t10 18.5t14.5 26.5l16 30q19 36 45 82q4 6 7.5 9.5t11.5 3.5h44zM290 613q0 -15 -14 -15h-81v-233q0 -14 -15 -14h-42q-15 0 -15 14v233h-81q-14 0 -14 15v36q0 13 13 13h236q13 0 13 -13v-36z" />
    <glyph glyph-name="bullet" unicode="&#x2022;" horiz-adv-x="332" 
d="M167 153q-23 0 -43.5 8.5t-35.5 24t-24 36t-9 44.5q0 23 9 43.5t24 36t35.5 24.5t43.5 9t43.5 -9t35.5 -24.5t24 -36t9 -43.5q0 -24 -9 -44.5t-24 -36t-35.5 -24t-43.5 -8.5z" />
    <glyph glyph-name="sfthyphen" unicode="&#xad;" horiz-adv-x="388" 
d="M340 363q17 0 17 -16v-51q0 -16 -17 -16h-290q-17 0 -17 16v51q0 16 17 16h290z" />
    <glyph glyph-name="dagger" unicode="&#x2020;" horiz-adv-x="501" 
d="M45 407q-20 0 -20 19v54q0 11 5.5 14.5t13.5 3.5h154v174q0 20 20 20h66q11 0 15 -5.5t4 -14.5v-174h155q8 0 13.5 -3.5t5.5 -14.5v-54q0 -19 -19 -19h-155v-435q0 -8 -4 -13.5t-15 -5.5h-66q-20 0 -20 19v435h-153z" />
    <glyph glyph-name="Gamma" unicode="&#x393;" horiz-adv-x="482" 
d="M186 19q0 -8 -3.5 -13.5t-14.5 -5.5h-76q-20 0 -20 19v626q0 19 20 19h362q19 0 19 -19v-62q0 -18 -20 -18h-267v-546z" />
    <glyph glyph-name="Delta" unicode="&#x394;" horiz-adv-x="579" 
d="M562 18q2 -6 0.5 -12t-9.5 -6h-527q-11 0 -12 6t1 14l201 622q4 11 9.5 16t20.5 5h79q17 0 22 -5.5t9 -16.5zM418 97q-3 10 -11 37.5t-19 64.5t-24 80.5t-26 85.5q-14 44 -27.5 92t-22.5 85h-4q-5 -20 -9.5 -37t-9.5 -34t-10.5 -35.5t-12.5 -42.5l-92 -296h268z" />
    <glyph glyph-name="Delta" unicode="&#x2206;" horiz-adv-x="579" 
d="M562 18q2 -6 0.5 -12t-9.5 -6h-527q-11 0 -12 6t1 14l201 622q4 11 9.5 16t20.5 5h79q17 0 22 -5.5t9 -16.5zM418 97q-3 10 -11 37.5t-19 64.5t-24 80.5t-26 85.5q-14 44 -27.5 92t-22.5 85h-4q-5 -20 -9.5 -37t-9.5 -34t-10.5 -35.5t-12.5 -42.5l-92 -296h268z" />
    <glyph glyph-name="Theta" unicode="&#x398;" horiz-adv-x="667" 
d="M607 341q0 -39 -3 -80t-13.5 -80t-29 -73.5t-49 -60.5t-75.5 -41t-107 -15q-93 0 -146.5 33t-81 84t-35 113t-7.5 120q0 30 3 66.5t13 73t28 71t48 61.5t73.5 43t104.5 16q90 0 144.5 -29t84 -76.5t39 -106.5t9.5 -119zM491 331q0 60 -7.5 105.5t-26 76t-49.5 46
t-77 15.5q-43 0 -72.5 -16.5t-47.5 -47.5t-25.5 -76t-7.5 -103q0 -56 7.5 -101t25 -76t47 -47.5t73.5 -16.5q88 0 124 62t36 179zM236 293q-8 0 -13 3.5t-5 14.5v61q0 10 4.5 13t13.5 3h197q9 0 13.5 -3t4.5 -13v-61q0 -11 -5 -14.5t-13 -3.5h-197z" />
    <glyph glyph-name="Lambda" unicode="&#x39b;" horiz-adv-x="579" 
d="M562 18q2 -6 0.5 -12t-9.5 -6h-87q-11 0 -16 4.5t-8 15.5q-8 27 -21 70t-28 93.5t-31 104t-31 102.5q-11 38 -23 80t-20 72h-4q-5 -20 -9.5 -37l-9 -34t-10 -35.5t-12.5 -41.5q-10 -31 -21 -68t-23 -74.5t-23.5 -74t-21 -68t-16.5 -54.5t-10 -34q-4 -13 -10 -17t-17 -4
h-75q-11 0 -12 6t1 14l201 622q4 11 9.5 16t20.5 5h79q17 0 22 -5.5t9 -16.5z" />
    <glyph glyph-name="Xi" unicode="&#x39e;" horiz-adv-x="540" 
d="M479 664q19 0 19 -19v-62q0 -18 -20 -18h-153v-172h122q19 0 19 -18v-62q0 -18 -19 -18h-122v-197h161q19 0 19 -19v-61q0 -18 -20 -18h-433q-20 0 -20 18v61q0 19 19 19h162v197h-123q-19 0 -19 18v62q0 18 19 18h123v172h-154q-20 0 -20 18v62q0 19 19 19h421v0z" />
    <glyph glyph-name="Pi" unicode="&#x3a0;" horiz-adv-x="619" 
d="M531 664q11 0 14.5 -5.5t3.5 -14.5v-625q0 -8 -3.5 -13.5t-14.5 -5.5h-75q-20 0 -20 19v546h-253v-546q0 -8 -3.5 -13.5t-14.5 -5.5h-75q-19 0 -19 19v625q0 20 19 20h441z" />
    <glyph glyph-name="germandbls" unicode="&#xdf;" horiz-adv-x="525" 
d="M160 9q0 -19 -20 -19h-71q-19 0 -19 19v500q0 55 18.5 94t47 63t63 35t65.5 11q43 0 79 -11t61.5 -32.5t40 -54.5t14.5 -76q0 -12 -3.5 -29t-11 -34.5t-19 -34t-28.5 -28.5q34 -11 54.5 -31t31 -46t13.5 -57.5t3 -65.5q0 -107 -47 -164.5t-143 -56.5q-12 0 -27.5 1
t-27.5 5q-8 2 -13.5 6.5t-4.5 15.5l5 48q1 8 5 11t18 3l30 3q52 4 72 37.5t20 95.5q0 36 -5.5 61t-18.5 40.5t-34.5 23.5t-53.5 10q-8 0 -11.5 4.5t-3.5 9.5v41q0 17 17 20q36 11 56 40.5t20 65.5q0 39 -22 61.5t-63 22.5q-38 0 -62.5 -25.5t-24.5 -76.5v-506z" />
    <glyph glyph-name="registered" unicode="&#xae;" horiz-adv-x="527" 
d="M489 505q0 -47 -17.5 -87.5t-48 -70.5t-71.5 -47.5t-87 -17.5q-47 0 -88 17.5t-71.5 47.5t-48 70.5t-17.5 87.5q0 46 17.5 86.5t48 70.5t71.5 47.5t88 17.5q48 0 89 -17.5t71 -47.5t47 -70.5t17 -86.5zM443 505q0 37 -14 69.5t-38 56.5t-56.5 38t-69.5 14
q-38 0 -70.5 -14t-57 -38t-38.5 -56.5t-14 -69.5t14 -69.5t38.5 -57t57 -38.5t70.5 -14q37 0 69.5 14t56.5 38.5t38 57t14 69.5zM365 383q2 -4 1.5 -7t-4.5 -3h-40q-9 0 -13 8q-11 23 -22 46.5t-23 47.5h-33v-92q0 -10 -9 -10h-32q-9 0 -9 10v243q0 9 11 9h86q31 0 56.5 -18
t25.5 -60q0 -22 -9.5 -42.5t-35.5 -31.5zM309 556q0 21 -11.5 28.5t-28.5 7.5h-38v-74h38q14 0 27 6.5t13 31.5z" />
    <glyph glyph-name="copyright" unicode="&#xa9;" horiz-adv-x="808" 
d="M403 -15q-74 0 -138.5 27.5t-112.5 74.5t-75.5 111t-27.5 137t27.5 137t75.5 111t112.5 74.5t138.5 27.5q75 0 140 -27.5t112.5 -74.5t74.5 -111t27 -137t-28 -137t-76 -111t-112.5 -74.5t-137.5 -27.5zM403 624q-60 0 -112.5 -23t-92 -62t-62 -91.5t-22.5 -112.5
t22.5 -112.5t62 -91.5t92 -61.5t112.5 -22.5t112.5 22.5t91.5 61.5t61.5 91.5t22.5 112.5t-22.5 112.5t-61.5 91.5t-91.5 62t-112.5 23zM243 325q0 39 6 76.5t24 66.5t50 47t83 18q22 0 54 -3.5t56 -13.5q15 -6 12 -18l-5 -25q-3 -12 -16 -9q-20 3 -47 5.5t-50 2.5
q-31 0 -50 -11.5t-29 -31.5t-13 -46.5t-3 -56.5t3.5 -55.5t14 -45t29 -30.5t48.5 -11q26 0 49 2t48 5q13 3 16 -9l5 -22q3 -13 -10 -19q-23 -10 -56 -14t-56 -4q-50 0 -82 17t-50 45.5t-24.5 64.5t-6.5 75z" />
    <glyph glyph-name="Sigma" unicode="&#x3a3;" horiz-adv-x="486" 
d="M468 19q0 -10 -4 -14.5t-15 -4.5h-398q-18 0 -18 18v35v14.5t1 13.5t4.5 16t11.5 21l136 224l-150 221q-6 9 -6.5 19.5t-0.5 21.5v40q0 19 19 19h388q11 0 15 -5t4 -14v-62q0 -9 -4 -13.5t-15 -4.5h-279l139 -201q9 -12 9 -21q0 -13 -15 -32l-128 -212h287q19 0 19 -18
v-61v0z" />
    <glyph glyph-name="section" unicode="&#xa7;" horiz-adv-x="439" 
d="M232 671q42 0 85 -8t69 -24q17 -8 11 -25l-12 -35q-5 -14 -12.5 -14t-20.5 3q-12 2 -27.5 4.5t-30.5 4t-28.5 2.5t-22.5 1q-45 0 -73 -15.5t-28 -47.5q0 -20 12.5 -35t30.5 -26.5t37.5 -20t33.5 -15.5q25 -13 51.5 -26t48.5 -30.5t36 -41.5t14 -58q0 -36 -13.5 -70
t-45.5 -67q28 -25 42.5 -52.5t14.5 -61.5q0 -52 -21 -84.5t-52.5 -51t-69.5 -25t-71 -6.5q-37 1 -77.5 9.5t-64.5 22.5q-9 5 -11 10.5t1 14.5l12 35q5 14 11 14.5t22 -2.5q65 -13 115 -13q48 0 76 18t28 56q0 20 -20.5 38t-48.5 34t-57 28.5t-46 22.5q-16 9 -32.5 20.5
t-29.5 27t-21 35t-8 44.5q0 33 14.5 69.5t43.5 67.5q-31 23 -44 51.5t-13 63.5q0 40 15.5 70t42 49.5t61.5 29t73 9.5zM306 246q0 26 -16 42.5t-39 28.5q-19 10 -40 18.5t-42 19.5q-33 -38 -33 -75q0 -25 16.5 -41t39.5 -29q19 -11 41 -19t42 -18q16 20 23.5 36.5t7.5 36.5z
" />
    <glyph glyph-name="degree" unicode="&#xb0;" horiz-adv-x="369" 
d="M191 389q-35 0 -62 11t-46 30t-29 44.5t-10 55.5q0 28 11.5 54t31.5 45.5t47 31t57 11.5t56 -11.5t45.5 -31t30.5 -45.5t11 -54q0 -30 -11 -55.5t-30.5 -44.5t-45.5 -30t-56 -11zM188 600q-29 0 -50 -21.5t-21 -50.5t20.5 -50t50.5 -21q29 0 50 21t21 50t-21 50.5
t-50 21.5z" />
    <glyph glyph-name="periodcentered" unicode="&#xb7;" horiz-adv-x="212" 
d="M167 260q0 -12 -2.5 -22.5t-9 -19t-18.5 -13.5t-31 -5q-20 0 -32 5t-18.5 13.5t-8.5 19.5t-2 22q0 25 12 42t49 17q38 0 49.5 -16.5t11.5 -42.5z" />
    <glyph glyph-name="yen" unicode="&#xa5;" horiz-adv-x="574" 
d="M492 221q9 0 12 -3t3 -11v-37q0 -13 -14 -13h-153v-138q0 -9 -3.5 -14t-14.5 -5h-72q-19 0 -19 19v138h-152q-14 0 -14 13v38q0 13 15 13h412zM79 262q-7 0 -10.5 2.5t-3.5 10.5v38q0 12 15 12h126l-170 319q-3 6 -1.5 12t11.5 6h82q12 0 17 -3.5t10 -13.5l130 -268h6
q33 66 65 132.5t65 132.5q5 11 10 15.5t18 4.5h79q8 0 11 -6t-1 -13l-172 -318h127q14 0 14 -13v-37q0 -13 -14 -13h-414z" />
    <glyph glyph-name="Phi" unicode="&#x3a6;" horiz-adv-x="778" 
d="M334 644q0 20 20 20h75q11 0 15 -5.5t4 -14.5v-17q85 -6 138.5 -35.5t82.5 -71t39.5 -89t10.5 -90.5q0 -50 -12 -99.5t-43 -91t-83 -70t-133 -35.5v-26q0 -8 -4 -13.5t-15 -5.5h-75q-19 0 -19 19v26q-87 4 -141.5 34t-84.5 73t-40.5 93t-10.5 96q0 37 11 84t41.5 89.5
t84 74.5t139.5 38v17zM174 336q0 -42 8.5 -76t27.5 -59t50 -40.5t75 -20.5v393q-44 -4 -74.5 -20.5t-50 -43t-28 -60.5t-8.5 -73zM605 335q0 36 -7 70t-25 61t-48.5 44.5t-76.5 21.5v-391q85 7 121 59t36 135z" />
    <glyph glyph-name="Psi" unicode="&#x3a8;" horiz-adv-x="739" 
d="M310 644q0 20 20 20h76q11 0 14.5 -5.5t3.5 -14.5v-395q30 3 55 14.5t44 31.5t29.5 48.5t10.5 64.5v236q0 20 20 20h72q11 0 14.5 -5.5t3.5 -14.5v-236q0 -53 -16.5 -98.5t-48.5 -80t-78.5 -55.5t-106.5 -24v-131q0 -8 -3.5 -13.5t-14.5 -5.5h-75q-20 0 -20 19v131
q-66 4 -113 25.5t-77.5 56t-44.5 80t-14 96.5v236q0 20 19 20h73q11 0 15 -5.5t4 -14.5v-236q0 -36 10.5 -64.5t29 -49t43.5 -32t55 -13.5v395z" />
    <glyph glyph-name="Omega" unicode="&#x3a9;" horiz-adv-x="670" 
d="M537 96h67q20 0 20 -17v-60q0 -10 -4 -14.5t-15 -4.5h-209q-11 0 -14.5 5t-3.5 13v73q0 9 4 13.5t12 8.5q16 4 29 14q40 30 57 82.5t17 125.5q0 48 -7 91.5t-25 76t-49.5 51.5t-79.5 19q-45 0 -75.5 -17.5t-49.5 -49t-27 -75t-8 -95.5q0 -91 22 -146.5t72 -76.5
q8 -3 12 -7.5t4 -14.5v-73q0 -8 -3.5 -13t-14.5 -5h-209q-11 0 -14.5 4.5t-3.5 14.5v60q0 9 4 13t15 4h69l3 2q-23 17 -37 45.5t-22.5 62t-11.5 69.5t-3 68q0 52 11 109.5t42 106t84.5 80.5t139.5 32q85 0 139 -29t85 -75.5t42.5 -105t11.5 -118.5q0 -31 -3.5 -65.5
t-12.5 -67t-24 -61.5t-37 -50z" />
    <glyph glyph-name="guillemotleft" unicode="&#xab;" horiz-adv-x="480" 
d="M146 337q5 5 11.5 10t15.5 5h86q6 0 8 -4t-2 -8l-121 -148l115 -146q3 -4 2.5 -10t-8.5 -6h-82q-10 0 -15.5 6t-10.5 11l-102 129q-9 11 -7.5 18.5t7.5 14.5zM327 337q4 5 10.5 10t15.5 5h86q6 0 8 -4t-2 -8l-121 -148l115 -146q3 -4 2.5 -9.5t-8.5 -5.5h-81
q-10 0 -16 5.5t-11 10.5l-102 129q-8 11 -6.5 18.5t6.5 14.5z" />
    <glyph glyph-name="guillemotright" unicode="&#xbb;" horiz-adv-x="480" 
d="M438 208q8 -11 7.5 -18t-7.5 -15l-103 -129q-5 -6 -11 -11t-15 -5h-86q-6 0 -7 5t2 9l120 147l-118 146q-3 5 -2 10t9 5h82q10 0 16 -5.5t11 -10.5zM258 208q8 -10 7 -17.5t-7 -15.5l-104 -129q-4 -6 -10 -11t-15 -5h-86q-6 0 -7 5t2 9l120 147l-118 146q-3 5 -1.5 10
t9.5 5h80q11 0 17 -5.5t11 -10.5z" />
    <glyph glyph-name="ellipsis" unicode="&#x2026;" horiz-adv-x="696" 
d="M161 51q0 -12 -2 -22.5t-8.5 -19t-18.5 -13.5t-31 -5q-20 0 -32 5t-18.5 13.5t-8.5 19t-2 22.5q0 25 11.5 42t49.5 17q37 0 48.5 -17t11.5 -42zM407 51q0 -12 -2 -22.5t-8.5 -19t-18.5 -13.5t-31 -5q-20 0 -32 5t-18.5 13.5t-8.5 19t-2 22.5q0 25 12 42t49 17t48.5 -17
t11.5 -42zM655 51q0 -12 -2 -22.5t-9 -19t-19 -13.5t-31 -5q-20 0 -32 5t-18.5 13.5t-8.5 19t-2 22.5q0 25 12 42t49 17q38 0 49.5 -16.5t11.5 -42.5z" />
    <glyph glyph-name="oe" unicode="&#x153;" horiz-adv-x="839" 
d="M484 210q1 -39 7.5 -64t20 -39.5t35.5 -20.5t54 -6q14 0 31.5 1t36 2.5t36.5 3.5t33 4q14 2 19.5 -0.5t8.5 -16.5l6 -32q2 -12 -1.5 -19t-17.5 -13t-35 -10.5t-44 -7.5t-45.5 -5t-40.5 -2q-65 0 -105 18.5t-63 50.5q-23 -28 -62 -45t-100 -17q-75 0 -118 24.5t-64.5 63
t-26.5 84.5t-5 89q0 35 6.5 78t28.5 80.5t64.5 63t114.5 25.5q65 0 105.5 -19t63.5 -51q23 28 61 45.5t97 17.5q67 0 109 -19.5t65 -51.5t32 -72t10 -81q1 -27 -9 -43t-39 -16h-269zM367 246q0 40 -4 69.5t-16 49t-33 29.5t-55 10q-32 0 -52 -10t-31.5 -30t-16 -49.5
t-4.5 -68.5q0 -40 4.5 -69.5t15.5 -49t31 -29.5t52 -10q34 0 55.5 9.5t33.5 29t16 49.5t4 70zM584 403q-29 0 -47 -8t-29 -23.5t-16 -37t-7 -48.5h198q-1 21 -4.5 42t-14 37.5t-30 27t-50.5 10.5z" />
    <glyph glyph-name="endash" unicode="&#x2013;" horiz-adv-x="500" 
d="M457 292q11 0 14.5 -4.5t3.5 -12.5v-43q0 -17 -17 -17h-417q-17 0 -17 17v43q0 17 18 17h415z" />
    <glyph glyph-name="afii00208" unicode="&#x2015;" horiz-adv-x="1000" 
d="M956 292q11 0 14.5 -4.5t3.5 -12.5v-43q0 -17 -17 -17h-915q-17 0 -17 17v43q0 17 17 17h914z" />
    <glyph glyph-name="quotedblleft" unicode="&#x201c;" horiz-adv-x="382" 
d="M47 524q0 31 8 58t21 49t29.5 38t33.5 27q7 4 14 4t13 -6l18 -18q7 -7 5.5 -12t-9.5 -13q-18 -17 -25.5 -35.5t-7.5 -36.5q0 -17 6.5 -34t17.5 -30q8 -9 8.5 -16.5t-11.5 -15.5l-51 -39q-11 -8 -19 -6t-16 10q-17 16 -26 37t-9 39zM196 524q0 31 8 58t21 49t29.5 38
t33.5 27q7 4 14 4t13 -6l18 -18q7 -7 5.5 -12t-9.5 -13q-18 -17 -25.5 -35.5t-7.5 -36.5q0 -17 6.5 -34t17.5 -30q8 -9 8.5 -16.5t-11.5 -15.5l-51 -39q-11 -8 -19 -6t-16 10q-17 16 -26 37t-9 39z" />
    <glyph glyph-name="quotedblright" unicode="&#x201d;" horiz-adv-x="382" 
d="M343 612q0 -32 -8 -58.5t-21 -48.5t-29.5 -38.5t-33.5 -26.5q-7 -4 -14 -4t-13 6l-18 18q-7 7 -5.5 12t9.5 13q18 17 25.5 35.5t7.5 36.5q0 17 -6.5 34t-17.5 30q-8 9 -8.5 16.5t11.5 15.5l51 39q11 8 19 6t16 -10q17 -16 26 -37t9 -39zM194 612q0 -32 -8 -58.5
t-21 -48.5t-29.5 -38.5t-33.5 -26.5q-7 -4 -14 -4t-13 6l-18 18q-7 7 -5.5 12t9.5 13q18 17 25.5 35.5t7.5 36.5q0 17 -6.5 34t-17.5 30q-8 9 -8.5 16.5t11.5 15.5l51 39q11 8 19 6t16 -10q17 -16 26 -37t9 -39z" />
    <glyph glyph-name="quoteleft" unicode="&#x2018;" horiz-adv-x="242" 
d="M55 522q0 31 8 58t21 49t29.5 38t33.5 27q7 4 14 4t13 -6l18 -18q7 -7 5.5 -12t-9.5 -13q-18 -17 -25.5 -35.5t-7.5 -36.5q0 -17 6.5 -34t17.5 -30q8 -9 8.5 -16.5t-11.5 -15.5l-51 -39q-11 -8 -19 -6t-16 10q-17 16 -26 37t-9 39z" />
    <glyph glyph-name="quoteright" unicode="&#x2019;" horiz-adv-x="242" 
d="M193 610q0 -32 -8 -58.5t-21 -48.5t-29.5 -38.5t-33.5 -26.5q-7 -4 -14 -4t-13 6l-18 18q-7 7 -5.5 12t9.5 13q18 17 25.5 35.5t7.5 36.5q0 17 -6.5 34t-17.5 30q-8 9 -8.5 16.5t11.5 15.5l51 39q11 8 19 6t16 -10q17 -16 26 -37t9 -39z" />
    <glyph glyph-name="divide" unicode="&#xf7;" horiz-adv-x="574" 
d="M95 284q-17 0 -17 16v51q0 16 17 16h384q17 0 17 -16v-51q0 -16 -17 -16h-384zM285 424q-20 0 -32 5t-18 13t-8 19t-2 23q0 25 11.5 41t48.5 16q38 0 49 -15.5t11 -41.5q0 -25 -10.5 -42.5t-49.5 -17.5zM285 102q-20 0 -32 5t-18 13.5t-8 19t-2 22.5q0 25 11.5 41.5
t48.5 16.5q38 0 49 -15.5t11 -42.5q0 -24 -10.5 -42t-49.5 -18z" />
    <glyph glyph-name="alpha" unicode="&#x3b1;" horiz-adv-x="544" 
d="M152 238q0 -48 4.5 -77t14 -45.5t24.5 -22t35 -5.5q15 0 33.5 5t37.5 11.5t35.5 14.5t28.5 14v241q-33 14 -62 20t-43 6q-54 0 -81 -36.5t-27 -125.5zM474 121q0 -29 6 -35t27 -8q11 -1 14.5 -4t3.5 -11v-42q0 -17 -23 -21q-12 -2 -24 -3.5t-23 -1.5q-36 0 -57 13t-28 48
l-2 1q-39 -29 -80.5 -47.5t-84.5 -18.5q-48 0 -79.5 17.5t-50 50t-26 78.5t-7.5 103q0 58 11.5 105.5t36 81.5t61.5 53t88 19q24 0 59 -8t70 -30l2 1v10q0 10 3.5 14t15.5 4h68q12 0 15.5 -5.5t3.5 -14.5v-349z" />
    <glyph glyph-name="beta" unicode="&#x3b2;" horiz-adv-x="523" 
d="M481 237q0 -68 -12.5 -114.5t-39 -76t-68.5 -42.5t-100 -13q-23 1 -48.5 5t-54.5 15h-2v-138q0 -9 -4 -14t-15 -5h-71q-19 0 -19 19v619q0 54 15.5 94.5t43 68t64.5 41.5t79 14q91 0 143 -45.5t52 -131.5q0 -14 -4 -31t-12 -34t-20.5 -32t-29.5 -24q33 -10 53 -28t31 -41
t15 -50.5t4 -55.5zM367 233q0 66 -23 90.5t-70 24.5q-12 0 -20 -0.5t-31 -2.5q-6 -1 -11 1.5t-5 10.5v50q0 7 3 12t12 7q22 4 42.5 11.5t35.5 20t24 31.5t9 48q0 35 -22 57.5t-64 22.5q-26 0 -43.5 -10t-28 -27t-14.5 -39t-4 -46v-392q33 -10 59.5 -13.5t50.5 -3.5
q54 0 77 32t23 115z" />
    <glyph glyph-name="psi" unicode="&#x3c8;" horiz-adv-x="644" 
d="M374 -156q0 -8 -3.5 -13.5t-14.5 -5.5h-71q-19 0 -19 19v147q-100 2 -157.5 52.5t-57.5 140.5v286q0 20 20 20h72q18 0 18 -20v-284q0 -21 6.5 -40t20 -33t33 -22t45.5 -8v433q0 19 19 19h71q11 0 14.5 -5t3.5 -14v-433q61 4 84 32.5t23 70.5v284q0 20 20 20h71
q18 0 18 -20v-286q0 -85 -54.5 -136.5t-161.5 -57.5v-146v0z" />
    <glyph glyph-name="delta" unicode="&#x3b4;" horiz-adv-x="527" 
d="M481 246q0 -42 -6.5 -86.5t-29 -82t-67 -61.5t-119.5 -24q-74 0 -117 24t-65 61t-27.5 82t-5.5 87q0 25 5 53.5t18 56.5t34 52t53 41q-37 18 -54 46.5t-17 65.5q0 75 51 113t136 38q32 1 73.5 -4t73.5 -18q14 -5 18.5 -11.5t2.5 -18.5l-7 -34q-2 -11 -6 -14.5t-15 -1.5
q-35 5 -71 8t-67 3q-34 0 -56.5 -11t-22.5 -45q0 -19 16 -32t40.5 -23.5t53.5 -21t56 -25.5q30 -17 52.5 -35.5t38 -43.5t23.5 -58.5t8 -79.5zM370 239q2 65 -25 105t-96 57q-45 -21 -68.5 -58.5t-23.5 -103.5q0 -38 4.5 -66.5t16 -47.5t31.5 -28.5t51 -9.5q33 0 54.5 10
t33.5 29t17 47.5t5 65.5z" />
    <glyph glyph-name="epsilon" unicode="&#x3b5;" horiz-adv-x="453" 
d="M121 263q-35 12 -51.5 36t-16.5 54q0 44 19 72.5t48 45.5t64.5 23.5t67.5 6.5q16 0 37 -1t42 -4t41 -7.5t34 -11.5q9 -4 13 -9.5t2 -16.5l-7 -36q-2 -12 -7.5 -15t-21.5 -1q-31 3 -65.5 6t-60.5 3q-16 0 -32 -2t-29 -8t-21 -17.5t-8 -29.5t9 -28.5t22.5 -16t29.5 -7
t31 -1.5h42q11 0 15 -5t4 -13v-43q0 -19 -19 -19h-44q-17 0 -34.5 -1.5t-31.5 -8t-23.5 -19.5t-9.5 -35q0 -42 26.5 -55.5t73.5 -13.5q31 0 66.5 2.5t70.5 7.5q11 2 17 -0.5t8 -14.5l7 -32q2 -12 -0.5 -18.5t-16.5 -12.5q-15 -8 -36 -12.5t-42.5 -7.5t-42 -4t-33.5 -1
q-36 0 -73.5 6.5t-69 23.5t-51.5 47.5t-20 77.5q0 34 19 66t58 48v2z" />
    <glyph glyph-name="phi" unicode="&#x3c6;" horiz-adv-x="686" 
d="M640 245q0 -54 -14.5 -99.5t-44.5 -79t-76 -53t-109 -22.5v-147q0 -20 -19 -20h-70q-20 0 -20 20v146q-78 3 -125.5 27t-73.5 61t-35 81.5t-9 89.5q0 36 7 71t23.5 65.5t43.5 55.5t66 42q17 9 27 -8l27 -47q6 -12 -7 -20q-21 -12 -35.5 -31t-23.5 -41t-13 -46.5t-4 -48.5
q0 -31 7 -59t22.5 -50t41 -35t62.5 -14v378q0 38 41 38h63q76 0 124 -22.5t75.5 -58.5t38 -81.5t10.5 -91.5zM530 239q0 31 -6 60.5t-21 52t-41 36.5t-66 14v-317q69 2 101.5 42t32.5 112z" />
    <glyph glyph-name="gamma" unicode="&#x3b3;" horiz-adv-x="491" 
d="M298 264q19 53 37.5 104.5t36.5 104.5q3 9 7.5 13t16.5 4h75q14 0 14 -9q0 -3 -2 -11q-45 -116 -89.5 -231.5t-89.5 -231.5v-172q0 -9 -4 -14t-15 -5h-72q-19 0 -19 19v169l-135 377q-4 10 -8.5 19t-19.5 9h-3q-8 0 -11.5 0.5t-5.5 8.5l-10 54q-1 5 1 8.5t10 6.5
q14 6 31.5 9.5t29.5 3.5q37 0 52 -18.5t27 -56.5l76 -231l22 -64h4q4 12 10.5 32t13.5 41t12.5 38t7.5 23z" />
    <glyph glyph-name="eta" unicode="&#x3b7;" horiz-adv-x="528" 
d="M477 19q0 -9 -4 -14t-15 -5h-72q-19 0 -19 19l1 281q0 44 -14.5 71t-57.5 27q-15 0 -34.5 -5t-39 -12.5t-36.5 -15t-27 -12.5v-334q0 -19 -19 -19h-71q-19 0 -19 19v451q0 20 19 20h71q19 0 19 -20v-30q1 0 1.5 -0.5t1.5 -0.5q14 10 33.5 20.5t41.5 19.5t46 14.5t47 5.5
q51 0 80 -15.5t44 -41.5t19 -60.5t4 -72.5v-290v0z" />
    <glyph glyph-name="iota" unicode="&#x3b9;" horiz-adv-x="247" 
d="M177 19q0 -8 -3.5 -13.5t-14.5 -5.5h-71q-20 0 -20 19v452q0 19 20 19h71q11 0 14.5 -5.5t3.5 -13.5v-452z" />
    <glyph glyph-name="xi" unicode="&#x3be;" horiz-adv-x="435" 
d="M135 384q-48 18 -70 54t-22 76q0 48 15.5 84.5t44 61t68 37t87.5 12.5q16 0 37.5 -1t44 -4t43.5 -8t36 -12q8 -3 12.5 -8.5t2.5 -16.5l-7 -37q-2 -11 -7 -14t-22 -1q-15 1 -33 2.5t-36.5 2.5t-35.5 2t-30 1q-53 0 -79 -28t-25 -73q0 -25 11.5 -41.5t29.5 -26t39.5 -13.5
t42.5 -4h85q19 0 19 -17v-50q0 -18 -19 -18h-79q-67 0 -103.5 -35t-36.5 -112q0 -41 15 -64t41 -34.5t59.5 -14.5t71.5 -3h40q17 0 23.5 -3t11.5 -15l15 -33q5 -10 4 -18.5t-9 -23.5q-7 -12 -15.5 -30t-17 -38t-16.5 -39.5t-13 -35.5q-6 -17 -12.5 -21.5t-20.5 0.5l-49 16
q-10 4 -14.5 9.5t0.5 22.5q3 11 8.5 26.5t12 31t14 31t14.5 26.5q-60 1 -111 10t-87.5 32t-57.5 63t-21 104q0 25 4.5 52.5t16 53t31 46t48.5 32.5z" />
    <glyph glyph-name="lambda" unicode="&#x3bb;" horiz-adv-x="478" 
d="M475 19q1 -11 -11 -16t-29 -6t-29 -1q-35 0 -51.5 13t-27.5 42q-8 23 -14 40.5t-11.5 34t-11 34t-12.5 40.5l-42 144h-1l-46 -122l-76 -207q-3 -8 -6 -11.5t-11 -3.5h-82q-9 0 -10.5 6t0.5 12l186 459q-8 23 -14 46.5t-14 46.5q-9 29 -18 41.5t-34 12.5q-5 0 -11.5 -0.5
t-11.5 -0.5q-12 0 -13 10q-2 13 -4 25t-4 26v3q0 7 12 12q18 6 38.5 8t34.5 2q39 0 64 -18t42 -69l162 -517q4 -13 9 -21.5t20 -8.5h10q11 0 12 -7z" />
    <glyph glyph-name="mu" unicode="&#xb5;" horiz-adv-x="531" 
d="M478 19q0 -19 -19 -19h-71q-11 0 -15 5t-4 14v30q-1 1 -1 2q-12 -9 -29.5 -18.5t-38 -18t-43 -13.5t-44.5 -5q-32 0 -51 11v-5.5t-0.5 -20t-0.5 -50.5v-95q0 -8 -3.5 -14t-16.5 -6h-71q-11 0 -15 5t-4 15v634q0 20 19 20h73q19 0 19 -20v-297q0 -41 15.5 -61.5
t56.5 -20.5q16 0 35.5 5t38 12.5t34.5 15t27 12.5v334q0 9 4 14.5t15 5.5h71q19 0 19 -20v-451v0z" />
    <glyph glyph-name="mu" unicode="&#x3bc;" horiz-adv-x="531" 
d="M478 19q0 -19 -19 -19h-71q-11 0 -15 5t-4 14v30q-1 1 -1 2q-12 -9 -29.5 -18.5t-38 -18t-43 -13.5t-44.5 -5q-32 0 -51 11v-5.5t-0.5 -20t-0.5 -50.5v-95q0 -8 -3.5 -14t-16.5 -6h-71q-11 0 -15 5t-4 15v634q0 20 19 20h73q19 0 19 -20v-297q0 -41 15.5 -61.5
t56.5 -20.5q16 0 35.5 5t38 12.5t34.5 15t27 12.5v334q0 9 4 14.5t15 5.5h71q19 0 19 -20v-451v0z" />
    <glyph glyph-name="omicron" unicode="&#x3bf;" horiz-adv-x="523" 
d="M479 253q0 -43 -5.5 -89t-27.5 -84.5t-66 -63t-122 -24.5q-75 0 -118 24.5t-64.5 63t-26.5 84.5t-5 89q0 35 6.5 78t28.5 80.5t64.5 63t114.5 25.5q73 0 116.5 -22t66.5 -57.5t30.5 -79.5t7.5 -88zM367 246q0 40 -4 69.5t-16 49t-33 29.5t-55 10q-32 0 -52 -10t-31.5 -30
t-16 -49.5t-4.5 -68.5q0 -40 4.5 -69.5t15.5 -49t31 -29.5t52 -10q34 0 55.5 9.5t33.5 29t16 49.5t4 70z" />
    <glyph glyph-name="pi" unicode="&#x3c0;" horiz-adv-x="532" 
d="M480 19q0 -19 -20 -19h-71q-19 0 -19 19l1 379h-210v-379q0 -8 -4 -13.5t-15 -5.5h-71q-19 0 -19 19v452q0 19 19 19h390q11 0 15 -4t4 -15v-452z" />
    <glyph glyph-name="rho" unicode="&#x3c1;" horiz-adv-x="528" 
d="M482 248q0 -61 -9 -108.5t-31.5 -80.5t-61.5 -50.5t-99 -17.5q-24 0 -57.5 5.5t-67.5 16.5v-177q0 -8 -3.5 -14t-15.5 -6h-71q-12 0 -15.5 5t-3.5 15v413q0 128 56.5 189.5t160.5 61.5q61 0 103 -18t67.5 -51t36.5 -79.5t11 -103.5zM369 251q0 45 -8 74t-21.5 46.5
t-33 24t-41.5 6.5q-39 0 -60.5 -15t-32.5 -37.5t-13.5 -50t-2.5 -52.5v-145q33 -9 61 -12.5t53 -3.5q26 0 44.5 7t30.5 25.5t18 50.5t6 82z" />
    <glyph glyph-name="sigma" unicode="&#x3c3;" horiz-adv-x="538" 
d="M429 396q15 -13 24.5 -30.5t14.5 -37.5t6.5 -41.5t1.5 -42.5q0 -39 -5.5 -83.5t-27.5 -82t-66.5 -62t-121.5 -24.5q-76 0 -118.5 24.5t-63.5 62t-25.5 83t-4.5 87.5q0 35 6.5 77t29 78.5t66 61.5t116.5 25h242q11 0 15 -5t4 -14v-54q0 -10 -4 -14.5t-15 -4.5h-72z
M365 242q0 40 -4.5 69.5t-16.5 48.5t-33 28t-55 9q-31 0 -51 -9.5t-31.5 -28.5t-16 -48.5t-4.5 -68.5q0 -41 4.5 -70t16 -47.5t31.5 -27.5t51 -9q33 0 54 8.5t33 27t17 48t5 70.5z" />
    <glyph glyph-name="tau" unicode="&#x3c4;" horiz-adv-x="386" 
d="M334 490q12 0 15.5 -5t3.5 -14v-53q0 -10 -3.5 -14.5t-15.5 -4.5h-110v-243q0 -27 5.5 -40.5t19.5 -19t37.5 -4.5t58.5 3q13 1 17.5 -1t6.5 -13l7 -42q1 -18 -13 -24q-13 -6 -29.5 -10.5t-33.5 -7t-32.5 -3.5t-27.5 -1q-36 0 -59.5 8.5t-38 24.5t-20.5 38.5t-6 50.5v284
h-83q-19 0 -19 19v52q0 20 19 20h301z" />
    <glyph glyph-name="theta" unicode="&#x3b8;" horiz-adv-x="548" 
d="M506 361q0 -42 -2.5 -86t-10 -85t-23 -77t-41.5 -63t-65 -42.5t-93 -15.5q-80 0 -125.5 31.5t-68.5 83.5t-28.5 118.5t-5.5 135.5q0 36 2.5 76t11 78.5t24 73.5t41 61.5t62 42.5t87.5 16q76 0 122.5 -28t71.5 -75.5t33 -110.5t8 -134zM155 328q1 -122 25.5 -182t91.5 -60
q34 0 57.5 13.5t37.5 42.5t20 75t6 111h-238zM272 617q-59 0 -85.5 -52t-29.5 -153h235q-3 105 -29 155t-91 50z" />
    <glyph glyph-name="omega" unicode="&#x3c9;" horiz-adv-x="765" 
d="M380 61q-18 -29 -54 -49t-87 -20q-58 0 -95.5 20t-59.5 54t-31 79.5t-9 95.5q0 37 5.5 74.5t21 71t44.5 61.5t76 46q10 4 18 4t13 -10l23 -41q6 -10 3 -15.5t-14 -13.5q-25 -17 -40.5 -35t-23.5 -39.5t-11 -47t-3 -56.5q0 -33 4.5 -61t15 -48.5t27 -32.5t41.5 -12
q28 0 45 9t26 23.5t12 33t3 37.5v130q0 19 20 19h65q11 0 14.5 -5t3.5 -14v-130q0 -19 4.5 -37.5t15 -33t27 -23.5t40.5 -9q45 0 67 35t22 119q0 34 -3 59.5t-12 46t-24.5 38t-39.5 34.5q-12 7 -13.5 13.5t3.5 15.5l21 37q9 19 32 10q46 -17 75 -44.5t45.5 -61.5t22 -72
t5.5 -75q0 -50 -9 -95t-31 -79.5t-60 -54.5t-96 -20q-51 0 -87.5 20t-54.5 49h-3z" />
    <glyph glyph-name="sigma1" unicode="&#x3c2;" horiz-adv-x="459" 
d="M420 147q0 -44 -17 -73.5t-45.5 -47.5t-64.5 -26t-75 -8q-38 0 -82 5t-73 17q-14 6 -18.5 13t-2.5 20l5 31q2 13 9 15.5t19 0.5q16 -2 35.5 -4t39 -3.5t37 -2.5t30.5 -1q48 0 69 13.5t21 43.5q0 17 -3.5 28t-12.5 18t-24.5 11.5t-39.5 7.5q-37 5 -70 13t-58.5 23.5
t-40.5 41t-15 66.5q0 74 52 112.5t136 38.5q15 0 35 -1t40.5 -4t40.5 -7t36 -10q25 -10 21 -30l-7 -35q-2 -11 -10 -13.5t-26 -0.5q-33 4 -66.5 7t-61.5 3q-48 0 -63.5 -13.5t-15.5 -42.5t19.5 -38t65.5 -16q36 -5 68.5 -13t57.5 -24t40 -43t15 -72z" />
    <glyph glyph-name="upsilon" unicode="&#x3c5;" horiz-adv-x="528" 
d="M162 188q0 -21 3.5 -39.5t14 -32t30 -21.5t51.5 -8q30 0 50 8t32 21.5t17 32t5 39.5v283q0 19 19 19h72q19 0 19 -19v-288q0 -40 -12.5 -75t-39 -60.5t-67 -40t-95.5 -14.5q-56 0 -95.5 13.5t-64.5 38.5t-36.5 60t-11.5 78v288q0 8 4 13.5t15 5.5h71q19 0 19 -19v-283v0z
" />
    <glyph glyph-name="zeta" unicode="&#x3b6;" horiz-adv-x="484" 
d="M468 425q0 -10 -1.5 -17.5t-11.5 -12.5q-45 -24 -96.5 -51t-96 -57t-74 -62.5t-29.5 -66.5q0 -22 14.5 -37t41 -24.5t63.5 -13.5t81 -4q11 0 21.5 0.5t21.5 0.5q17 0 23 -3.5t12 -15.5l15 -31q5 -12 3.5 -20t-9.5 -22q-8 -13 -16.5 -30.5t-16.5 -36t-15.5 -38
t-12.5 -35.5q-5 -17 -12.5 -21t-20.5 1l-50 18q-11 4 -12.5 9.5t0.5 16.5q3 12 8.5 27t12 31.5t14 31.5t14.5 27q-51 1 -104 8t-96 25t-70 49.5t-27 80.5q0 42 22.5 79.5t57.5 68.5t77.5 56.5t83.5 43.5h-209q-19 0 -19 20v52q0 18 19 18h376q11 0 14.5 -4t3.5 -12v-49v0z
" />
    <glyph glyph-name="Euro" unicode="&#x20ac;" horiz-adv-x="574" 
d="M445 309q14 0 14 -14v-37q0 -6 -2.5 -9t-10.5 -3h-236q4 -33 13.5 -60.5t27 -48t44 -32t64.5 -11.5q45 0 79.5 3.5t75.5 8.5q13 2 18.5 -2t7.5 -14l9 -37q6 -24 -17 -32q-19 -8 -42 -13.5t-47.5 -9.5t-47.5 -5.5t-42 -1.5q-70 0 -118 20.5t-78.5 55t-46.5 81t-22 98.5
l-50 -1q-15 0 -15 14v38q0 12 15 12h407zM38 350q-15 0 -15 13v38q0 13 15 13h50q6 52 22 98.5t46.5 81.5t78.5 56t118 21q18 0 40.5 -1.5t46.5 -4.5t47 -8.5t43 -13.5q13 -5 17 -12t2 -19l-9 -41q-2 -10 -7.5 -13.5t-18.5 -1.5q-32 4 -74 8t-80 4q-39 0 -66 -11.5t-44 -32
t-26.5 -49t-13.5 -61.5h235q9 0 11.5 -3t2.5 -11v-37q0 -6 -2.5 -9.5t-10.5 -3.5h-408z" />
    <glyph glyph-name="emdash" unicode="&#x2014;" horiz-adv-x="1000" 
d="M952 292q11 0 14.5 -4.5t3.5 -12.5v-43q0 -17 -17 -17h-906q-17 0 -17 17v43q0 17 18 17h904z" />
    <glyph glyph-name="AE" unicode="&#xc6;" horiz-adv-x="902" 
d="M445 165h-225l-86 -146q-7 -11 -14 -15t-18 -4h-82q-20 0 -9 19l363 625q6 11 13 15.5t21 4.5h424q20 0 20 -19v-62q0 -18 -20 -18h-273v-172h242q19 0 19 -18v-62q0 -18 -19 -18h-242v-197h280q18 0 18 -19v-61q0 -18 -19 -18h-373q-14 0 -17 4t-3 12v149zM442 561
l-169 -302h172v302h-3z" />
    <glyph glyph-name="Oslash" unicode="&#xd8;" horiz-adv-x="660" 
d="M600 341q0 -58 -8 -120t-35.5 -113t-82 -84t-147.5 -33q-60 0 -102 14t-72 38l-29 -39q-5 -6 -9 -8.5t-12 2.5l-24 17q-7 5 -6.5 9t5.5 11l37 50q-36 54 -45.5 122t-9.5 134q0 30 3 66.5t13 73t28 71t48 61.5t73 43t103 16q63 0 107 -14.5t75 -40.5l30 40q6 7 9.5 10
t11.5 -3l24 -18q8 -5 7.5 -9t-5.5 -11l-39 -52q32 -48 42 -109t10 -124zM178 331q0 -42 3.5 -77t11.5 -64l250 336q-19 23 -46.5 35.5t-68.5 12.5q-43 0 -71.5 -16.5t-46 -47.5t-25 -76t-7.5 -103zM485 331q0 42 -3.5 76.5t-11.5 61.5l-249 -335q17 -22 43 -33t64 -11
q46 0 76 16t48 46.5t25.5 75.5t7.5 103z" />
    <glyph glyph-name="florin" unicode="&#x192;" horiz-adv-x="574" 
d="M48 -9q4 11 9 14t16 1t26.5 -3t25.5 -1q21 0 34.5 8t21.5 22.5t13 35t9 46.5l34 211h-68q-11 0 -15.5 3.5t-4.5 14.5v46q0 11 3.5 15.5t14.5 4.5h80l18 106q4 24 12.5 53t26 54t47.5 41.5t77 16.5q25 0 51 -4.5t49 -12.5q10 -5 5 -21l-11 -42q-3 -10 -8.5 -12t-16.5 0
q-10 1 -26 3t-21 2q-24 0 -38 -6.5t-22.5 -19.5t-13 -31t-8.5 -41l-14 -86h81q20 0 20 -17v-49q0 -12 -3.5 -15t-15.5 -3h-93l-42 -266q-4 -24 -14 -49.5t-28 -46.5t-45 -35t-66 -14q-24 0 -53 4.5t-47 12.5q-14 5 -8 22z" />
    <glyph glyph-name="daggerdbl" unicode="&#x2021;" horiz-adv-x="501" 
d="M24 219q0 11 6 15t14 4h154v168h-154q-20 0 -20 19v55q0 11 6 14.5t14 3.5h154v177q2 17 19 17h66q11 0 15 -5t4 -14v-175h156q8 0 13.5 -3.5t5.5 -14.5v-55q0 -19 -20 -19h-155v-168h155q9 0 14.5 -4t5.5 -15v-54q0 -11 -5 -14.5t-14 -3.5h-156v-177q0 -7 -3.5 -12
t-14.5 -5h-66q-11 0 -15 4.5t-5 12.5v177h-154q-10 0 -15 3.5t-5 14.5v54v0z" />
    <glyph glyph-name="ae" unicode="&#xe6;" horiz-adv-x="816" 
d="M576 499q67 0 109.5 -20t66 -52.5t32 -73.5t8.5 -83q0 -25 -10 -41t-39 -16h-269q1 -38 8 -62.5t20.5 -39t35.5 -20t54 -5.5q14 0 31.5 1t36.5 2.5t37 3.5t32 4q11 3 17.5 1.5t9.5 -14.5l8 -38q5 -22 -19 -30q-15 -6 -36 -10.5t-44 -7.5t-45.5 -5t-40.5 -2
q-71 0 -113.5 19.5t-65.5 53.5q-8 -6 -16 -11.5t-18 -11.5q-37 -22 -82 -35.5t-100 -13.5q-41 0 -68 10t-43 29t-22.5 44.5t-6.5 57.5q0 84 46 120.5t142 36.5h128v37q0 22 -4.5 37.5t-16.5 25t-32 13.5t-51 4q-12 0 -29 -1t-36 -2t-37.5 -3t-34.5 -3q-9 -1 -16.5 -0.5
t-10.5 13.5l-9 37q-2 11 2 16.5t21 12.5q16 6 38 10t45 7t45.5 4t40.5 1q62 0 98.5 -13t56.5 -39q24 23 59.5 37.5t86.5 14.5zM217 80q15 0 35.5 5t41.5 12.5t41 17t35 17.5q-5 22 -7 39.5t-3 41.5h-120q-43 0 -64 -16.5t-21 -60.5q0 -29 13.5 -42.5t48.5 -13.5zM675 289
q-1 21 -5 42.5t-14.5 39t-29.5 28t-51 10.5q-29 0 -47.5 -8.5t-29 -24t-15.5 -38t-7 -49.5h199z" />
    <glyph glyph-name="oslash" unicode="&#xf8;" horiz-adv-x="523" 
d="M479 253q0 -43 -5.5 -89t-27.5 -84.5t-66 -63t-122 -24.5q-42 0 -72.5 7.5t-53.5 21.5l-16 -21q-5 -6 -9 -8.5t-12 2.5l-24 17q-7 5 -6.5 9t5.5 11l20 27q-16 20 -25 43.5t-13.5 49t-6 51.5t-1.5 51q0 35 6.5 78t28.5 80.5t64.5 63t114.5 25.5q46 0 79.5 -9t57.5 -25
l23 30q6 7 9.5 10t11.5 -3l24 -18q8 -5 7.5 -9t-5.5 -11l-29 -38q26 -36 34.5 -81.5t8.5 -92.5zM155 246q0 -28 1.5 -50.5t6.5 -39.5l170 226q-25 22 -74 22q-32 0 -52 -10t-31.5 -30t-16 -49.5t-4.5 -68.5zM367 246q0 47 -6 80l-166 -222q22 -16 63 -16q34 0 55.5 9.5
t33.5 29t16 49.5t4 70z" />
    <glyph glyph-name="Thorn" unicode="&#xde;" horiz-adv-x="536" 
d="M178 19q0 -8 -3.5 -13.5t-14.5 -5.5h-75q-20 0 -20 19v625q0 20 19 20h75q11 0 15 -5.5t4 -14.5v-105h115q44 0 83 -12t68.5 -37t46.5 -62t17 -87q0 -35 -10 -71.5t-34.5 -66.5t-66 -49.5t-103.5 -19.5h-116v-115zM393 339q0 53 -31 78t-82 25h-102v-213h108
q30 0 50.5 8.5t33 23.5t18 35t5.5 43z" />
    <glyph glyph-name="thorn" unicode="&#xfe;" horiz-adv-x="525" 
d="M491 248q0 -61 -9 -109t-31.5 -81t-61 -50t-97.5 -17q-25 0 -57.5 5t-67.5 17l-1 -1v-176q0 -8 -3.5 -14t-15.5 -6h-71q-12 0 -16 5t-4 15v808q0 19 20 19h71q11 0 14.5 -5t3.5 -14v-204l3 -2q13 9 31.5 19.5t39.5 19.5t43 15t44 6q49 0 81 -18t50.5 -50.5t26 -78.5
t7.5 -103zM378 249q0 48 -4.5 77t-14.5 45t-24.5 21.5t-34.5 5.5q-15 0 -34 -5t-37.5 -11.5t-35 -14.5t-27.5 -14v-250q34 -10 61.5 -13.5t53.5 -3.5q27 0 45.5 7.5t30 26.5t16.5 50.5t5 78.5z" />
    <glyph glyph-name="OE" unicode="&#x152;" horiz-adv-x="811" 
d="M765 17q0 -17 -19 -17h-348q-39 -9 -85 -9q-92 0 -145.5 33t-80.5 84t-34.5 113t-7.5 120q0 30 3 66.5t13 73t28 71t48 61t73 42.5t103 16q43 0 81 -8h347q19 0 19 -18v-62q0 -19 -20 -19q-68 0 -135 0.5t-134 0.5v-172h238q19 0 19 -19v-61q0 -18 -19 -18h-238v-197h276
q18 0 18 -20v-61zM313 90q12 0 23 1t21 4v473q-22 5 -44 5q-42 0 -71 -16t-46 -47t-24.5 -76.5t-7.5 -103.5q0 -56 7 -100.5t24.5 -75.5t46 -47.5t71.5 -16.5z" />
    <glyph glyph-name="Eogonek" unicode="&#x118;" horiz-adv-x="528" 
d="M426 -90q0 -23 13 -31.5t33 -8.5q14 0 28 1.5t28 6.5q5 2 8.5 1.5t5.5 -6.5l9 -30q2 -7 -0.5 -10.5t-7.5 -5.5q-17 -8 -41.5 -14.5t-56.5 -5.5q-48 1 -72.5 27.5t-24.5 65.5q0 22 9.5 47.5t33.5 52.5h-300q-20 0 -20 18v626q0 20 20 20h368q19 0 19 -19v-62
q0 -18 -20 -18h-273v-172h242q20 0 20 -18v-62q0 -18 -20 -18h-242v-197h280q18 0 18 -19v-61q0 -18 -19 -18h-3q-20 -28 -27.5 -50.5t-7.5 -39.5z" />
    <glyph glyph-name="Dcroat" unicode="&#x110;" horiz-adv-x="631" 
d="M92 0q-13 0 -17.5 5t-4.5 14v277h-57q-17 0 -17 15v49q0 17 17 17h57v267q0 19 19 19h203q83 0 137 -26.5t85.5 -71.5t44 -105t12.5 -127q0 -68 -12 -128.5t-43 -106t-85.5 -72t-138.5 -26.5h-200zM183 296v-197h97q34 0 65 9t55 34t38.5 69.5t14.5 114.5t-12.5 116.5
t-34.5 73.5t-52.5 38t-66.5 11h-104v-188h103q17 0 17 -16v-50q0 -15 -17 -15h-103z" />
    <glyph glyph-name="Lslash" unicode="&#x141;" horiz-adv-x="528" 
d="M193 363l106 61q15 8 23 -6l20 -35q8 -14 -6 -22l-143 -81v-182h286q18 0 18 -17v-63q0 -18 -19 -18h-378q-20 0 -20 18v198l-39 -22q-14 -8 -22 5l-20 35q-5 8 -3.5 13t9.5 10l75 42v345q0 20 19 20h75q19 0 19 -20v-281z" />
    <glyph glyph-name="Aogonek" unicode="&#x104;" horiz-adv-x="579" 
d="M507 -90q0 -23 13 -31.5t33 -8.5q14 0 28 1.5t28 6.5q5 2 8.5 1.5t5.5 -6.5l9 -30q2 -7 -0.5 -10.5t-7.5 -5.5q-17 -8 -41.5 -14.5t-56.5 -5.5q-48 1 -72.5 27.5t-24.5 65.5q0 22 9.5 47.5t33.5 52.5h-7q-12 0 -16.5 5t-8.5 16l-42 144h-224l-45 -144q-4 -12 -10 -16.5
t-17 -4.5h-78q-18 0 -11 20l202 622q4 11 9 16t19 5h87q14 0 19 -5.5t8 -15.5l206 -624q5 -18 -10 -18h-11q-20 -28 -27.5 -50.5t-7.5 -39.5zM329 401l-41 144h-4l-40 -142l-42 -144h169z" />
    <glyph glyph-name="aogonek" unicode="&#x105;" horiz-adv-x="540" 
d="M452 -90q0 -23 13 -31.5t33 -8.5q14 0 28 1.5t28 6.5q5 2 8.5 1.5t5.5 -6.5l9 -30q2 -7 -0.5 -10.5t-7.5 -5.5q-17 -8 -41.5 -14.5t-56.5 -5.5q-48 1 -72.5 27.5t-24.5 65.5q0 21 9.5 46.5t32.5 52.5q-20 5 -33 18t-18 39l-2 1q-38 -29 -85.5 -47t-98.5 -18
q-40 0 -66.5 10.5t-42 29t-22 44.5t-6.5 58q-1 88 46 127.5t142 39.5h128v26q0 22 -4.5 37.5t-16.5 25.5t-32 14t-51 4q-12 0 -29.5 -1t-36 -2t-37 -3t-33.5 -3q-15 -2 -20.5 -0.5t-7.5 12.5l-9 37q-2 10 2 16.5t21 13.5q16 6 38 10t45 6.5t45.5 4t40.5 1.5q65 0 103.5 -13
t58.5 -36.5t26 -57.5t6 -76v-193q0 -15 1.5 -23.5t5 -13t10.5 -6.5t19 -3q11 -1 15 -4t4 -11v-42q0 -17 -24 -21l-13 -2q-20 -27 -26.5 -49t-6.5 -39zM357 223h-122q-38 0 -60 -17.5t-22 -66.5q0 -33 13.5 -45.5t48.5 -12.5q16 0 35 4t38 11t37 15.5t32 16.5v95z" />
    <glyph glyph-name="lslash" unicode="&#x142;" horiz-adv-x="292" 
d="M192 409l58 33q15 8 23 -6l20 -35q8 -14 -6 -22l-95 -54v-201q0 -23 10.5 -28.5t36.5 -5.5q11 -1 14.5 -3t5.5 -10l4 -51q1 -12 -13 -19t-33 -9.5t-32 -2.5q-57 0 -79.5 25.5t-22.5 76.5v167l-42 -23q-14 -9 -22 5l-20 35q-5 8 -3.5 13t9.5 9l78 44v339q0 19 19 19h71
q19 0 19 -19v-277z" />
    <glyph glyph-name="eogonek" unicode="&#x119;" horiz-adv-x="508" 
d="M348 -90q0 -23 13 -31.5t33 -8.5q14 0 28 1.5t28 6.5q5 2 8.5 1.5t5.5 -6.5l9 -30q2 -7 -0.5 -10.5t-7.5 -5.5q-17 -8 -41.5 -14.5t-56.5 -5.5q-48 1 -72.5 27.5t-24.5 65.5q0 20 8 43.5t29 49.5q-12 -1 -23 -1.5t-21 -0.5q-72 0 -115 21t-66 56t-30.5 80.5t-7.5 94.5
q0 36 6 81t27.5 84t64 65.5t115.5 26.5q67 0 108.5 -20t64.5 -51.5t31.5 -72t9.5 -80.5q1 -27 -9 -44t-40 -17h-265q1 -38 8.5 -63t22.5 -39.5t37 -20.5t53 -6q27 0 64 4t66 7q14 2 19.5 -0.5t7.5 -16.5l6 -33q2 -11 -0.5 -18t-16.5 -13q-8 -3 -17 -6t-20 -5
q-23 -29 -31 -53.5t-8 -41.5zM257 410q-28 0 -46 -8t-29.5 -23.5t-16.5 -38t-7 -50.5h198q0 23 -4 44.5t-14.5 38.5t-30 27t-50.5 10z" />
    <glyph glyph-name="dcroat" unicode="&#x111;" horiz-adv-x="535" 
d="M475 19q0 -9 -3.5 -14t-14.5 -5h-71q-19 0 -19 19v31q-1 0 -1.5 0.5t-1.5 0.5q-11 -8 -27.5 -17.5t-36 -18t-40.5 -14.5t-42 -7q-5 -1 -9.5 -1h-8.5q-7 0 -12.5 0.5t-11.5 1.5q-40 5 -66 23.5t-41 49t-21 72.5t-6 93q0 61 8.5 109t30.5 80t60.5 49t99.5 17q24 0 56.5 -5
t67.5 -18q1 0 1 0.5t1 0.5v76h-143q-15 0 -15 13v44q0 9 3.5 11.5t11.5 2.5h143v72q0 10 3.5 15t15.5 5h71q12 0 15 -5.5t3 -14.5v-72h51q8 0 11.5 -2.5t3.5 -11.5v-44q0 -13 -14 -13h-52v-523zM366 375q-35 10 -62.5 13.5t-52.5 3.5q-27 0 -46 -8t-30 -26.5t-16 -49
t-5 -74.5q0 -46 4.5 -74t14.5 -43.5t24 -20.5t34 -5q15 0 34 5t38 12t35.5 14.5t27.5 13.5v239z" />
    <glyph glyph-name="brokenbar" unicode="&#xa6;" horiz-adv-x="263" 
d="M85 266q0 19 20 19h54q11 0 14.5 -5t3.5 -14v-361q0 -8 -3.5 -13.5t-14.5 -5.5h-54q-20 0 -20 19v361zM85 674q0 20 20 20h54q11 0 14.5 -5.5t3.5 -14.5v-328q0 -8 -3.5 -13.5t-14.5 -5.5h-54q-20 0 -20 19v328z" />
    <glyph glyph-name="guilsinglright" unicode="&#x203a;" horiz-adv-x="297" 
d="M258 208q8 -10 7 -17.5t-7 -15.5l-104 -129q-4 -6 -10 -11t-15 -5h-86q-6 0 -7 5t2 9l120 147l-118 146q-3 5 -1.5 10t9.5 5h80q11 0 17 -5.5t11 -10.5z" />
    <glyph glyph-name="guilsinglleft" unicode="&#x2039;" horiz-adv-x="297" 
d="M144 336q5 5 11 10.5t16 5.5h81q8 0 9.5 -5t-1.5 -10l-118 -146l119 -147q3 -4 2.5 -9t-6.5 -5h-86q-9 0 -15 5t-11 11l-104 129q-6 8 -6.5 15.5t7.5 17.5z" />
    <glyph glyph-name="dotaccent" unicode="&#x2d9;" horiz-adv-x="403" 
d="M260 617q0 -11 -2 -21.5t-8.5 -18.5t-18 -12.5t-29.5 -4.5q-19 0 -30.5 5t-17.5 13t-8 18t-2 21q0 23 11.5 39t46.5 16q36 0 47 -15.5t11 -39.5z" />
    <glyph glyph-name="cent" unicode="&#xa2;" horiz-adv-x="574" 
d="M479 46q2 -11 -0.5 -18t-16.5 -13q-23 -10 -53.5 -15t-61.5 -7v-118q0 -9 -3 -14t-12 -5h-40q-17 0 -17 19v119q-59 5 -94.5 27t-54.5 56.5t-24.5 78.5t-5.5 92q0 44 6 86.5t25 77t54 58t94 28.5v123q0 20 17 20h40q9 0 12 -5.5t3 -14.5v-123q29 -2 60.5 -7t56.5 -15
q18 -8 15 -28l-7 -40q-2 -11 -11 -13t-21 -1q-30 3 -63 6t-58 3q-61 0 -85 -35t-24 -118q0 -47 5.5 -78t18 -50t33 -26.5t50.5 -7.5q12 0 28 0.5t33.5 2t35.5 3t33 3.5q11 2 17 -0.5t8 -14.5z" />
    <glyph glyph-name="exclamdown" unicode="&#xa1;" horiz-adv-x="254" 
d="M178 -163q0 -11 -4 -14.5t-14 -3.5h-71q-16 0 -16 18l13 449q1 18 15 18h49q9 0 12.5 -4.5t4.5 -13.5zM186 433q0 -25 -11 -41t-48 -16t-48.5 16t-11.5 41q0 12 2 22.5t8.5 18.5t18 13t31.5 5q19 0 30.5 -5t18 -13t8.5 -18.5t2 -22.5z" />
    <glyph glyph-name="questiondown" unicode="&#xbf;" horiz-adv-x="389" 
d="M19 -33q0 27 7.5 47t19.5 36t27 28t29 23q20 15 36.5 29.5t28 30.5t17.5 35.5t6 45.5v9.5v13.5t-0.5 14t-0.5 11q0 8 3 13.5t12 5.5h65q9 0 12.5 -3.5t5.5 -13.5q3 -17 3.5 -33t0.5 -28q0 -35 -9 -62.5t-25 -50t-37 -42t-46 -39.5q-19 -15 -31 -28.5t-12 -34.5
q0 -38 23.5 -53t76.5 -15q24 0 52 2t51 5q14 2 18 -2t6 -12l5 -41q2 -11 0 -16.5t-15 -10.5q-34 -14 -68.5 -17.5t-60.5 -3.5q-99 0 -149.5 41t-50.5 116zM175 433q0 12 2 22.5t8.5 18.5t18 13t30.5 5q20 0 32 -5t18 -13.5t8 -19t2 -21.5q0 -24 -12 -41t-48 -17
q-37 0 -48 16t-11 42z" />
    <glyph glyph-name="Uogonek" unicode="&#x172;" horiz-adv-x="628" 
d="M312 -90q0 -23 13 -31.5t33 -8.5q14 0 28 1.5t28 6.5q5 2 8.5 1.5t5.5 -6.5l9 -30q2 -7 -0.5 -10.5t-7.5 -5.5q-17 -8 -41.5 -14.5t-56.5 -5.5q-48 1 -72.5 27.5t-24.5 65.5q0 20 8.5 44t29.5 50q-124 13 -174 109q-16 30 -23 65.5t-7 74.5v401q0 20 19 20h75
q19 0 19 -20v-401q0 -74 33.5 -112.5t99.5 -38.5t100.5 36.5t34.5 114.5v401q0 20 20 20h75q11 0 14.5 -5.5t3.5 -14.5l-1 -401q0 -30 -3.5 -59.5t-14.5 -58.5q-27 -65 -81 -96t-120 -36q-18 -26 -24 -46.5t-6 -36.5z" />
    <glyph glyph-name="uogonek" unicode="&#x173;" horiz-adv-x="531" 
d="M421 -90q0 -23 13 -31.5t33 -8.5q14 0 28 1.5t28 6.5q5 2 8.5 1.5t5.5 -6.5l9 -30q2 -7 -0.5 -10.5t-7.5 -5.5q-17 -8 -41.5 -14.5t-56.5 -5.5q-48 1 -72.5 27.5t-24.5 65.5q0 22 9.5 47.5t33.5 52.5q-17 0 -17 19v31l-2 1q-15 -10 -34.5 -20.5t-41.5 -19.5t-45.5 -14.5
t-46.5 -5.5q-51 0 -80.5 14t-44.5 39t-19 59t-4 73v294q0 20 19 20h73q18 0 18 -20v-281q0 -23 3 -41t11 -30.5t22 -19.5t37 -7q16 0 35.5 5t38.5 12.5t35 15t26 12.5v334q0 9 4 14.5t15 5.5h71q19 0 19 -20v-451q0 -19 -19 -19h-3q-20 -28 -27.5 -50.5t-7.5 -39.5z" />
    <glyph glyph-name="quotesinglbase" unicode="&#x201a;" horiz-adv-x="214" 
d="M172 26q0 -32 -8 -58.5t-21 -48.5t-29.5 -38.5t-33.5 -26.5q-7 -4 -14 -4t-13 6l-18 18q-7 7 -5.5 12t9.5 13q18 17 25.5 35.5t7.5 36.5q0 17 -6.5 34t-17.5 30q-8 9 -8.5 16.5t11.5 15.5l51 39q11 8 19 6t16 -10q17 -16 26 -37t9 -39z" />
    <glyph glyph-name="quotedblbase" unicode="&#x201e;" horiz-adv-x="368" 
d="M172 26q0 -32 -8 -58.5t-21 -48.5t-29.5 -38.5t-33.5 -26.5q-7 -4 -14 -4t-13 6l-18 18q-7 7 -5.5 12t9.5 13q18 17 25.5 35.5t7.5 36.5q0 17 -6.5 34t-17.5 30q-8 9 -8.5 16.5t11.5 15.5l51 39q11 8 19 6t16 -10q17 -16 26 -37t9 -39zM330 26q0 -32 -8 -58.5t-21 -48.5
t-29.5 -38.5t-33.5 -26.5q-7 -4 -14 -4t-13 6l-18 18q-7 7 -5.5 12t9.5 13q18 17 25.5 35.5t7.5 36.5q0 17 -6.5 34t-17.5 30q-8 9 -8.5 16.5t11.5 15.5l51 39q11 8 19 6t16 -10q17 -16 26 -37t9 -39z" />
    <glyph glyph-name="tilde" unicode="&#x2dc;" horiz-adv-x="522" 
d="M341 548q-17 0 -37.5 8t-41.5 17.5t-41 17.5t-35 8q-11 0 -25 -6t-30 -32q-4 -6 -7.5 -7.5t-13.5 3.5l-28 12q-11 4 -6 19q20 53 51 74t59 21q20 0 41 -8t41.5 -17t38.5 -17t33 -8q32 0 52 37q4 6 8.5 8t13.5 -2l28 -13q8 -3 8.5 -8t-1.5 -11q-20 -52 -47 -74t-61 -22z
" />
    <glyph glyph-name="macron" unicode="&#xaf;" horiz-adv-x="515" 
d="M136 569q-17 0 -17 16v52q0 17 17 17h275q17 0 17 -16v-53q0 -16 -17 -16h-275z" />
    <glyph glyph-name="logicalnot" unicode="&#xac;" horiz-adv-x="574" 
d="M479 370q17 0 17 -17v-217q0 -11 -4.5 -14t-12.5 -3h-54q-9 0 -13.5 3t-4.5 13v152h-312q-17 0 -17 18v47q0 18 18 18h383z" />
    <glyph glyph-name="cedilla" unicode="&#xb8;" horiz-adv-x="425" 
d="M275 -119q0 20 -15 25t-53 7q-22 2 -14 23l26 74q0 1 2.5 3.5t6.5 2.5h36q4 0 4.5 -2.5t-0.5 -4.5l-21 -55q30 -1 49 -7t29.5 -16t14.5 -22.5t4 -26.5q0 -42 -30 -66t-89 -24q-14 0 -36.5 3t-39.5 8q-10 3 -8 12l7 28q1 7 11 6q14 -2 31 -4t29 -2q23 0 39.5 6.5
t16.5 31.5z" />
    <glyph glyph-name="eth" unicode="&#xf0;" horiz-adv-x="521" 
d="M480 332q0 -68 -8 -130t-32 -108.5t-69.5 -74t-120.5 -27.5q-72 0 -113.5 24t-62.5 60t-26.5 78t-5.5 78q0 34 8.5 75t31.5 76.5t65 59t110 23.5q35 0 67.5 -12t49.5 -32h2q0 14 -1.5 33t-5 38.5t-9 38t-14.5 32.5l-44 -45q-5 -5 -10 -5t-10 5l-25 22q-10 9 0 19l43 44
q-15 10 -36.5 13.5t-44.5 3.5q-18 0 -35.5 -1.5t-34.5 -3.5q-6 0 -10 1t-5 8l-8 46q-2 8 0.5 12.5t12.5 8.5q27 10 57 13.5t54 3.5q75 0 123 -31l47 47q6 6 10 7t11 -6l26 -23q11 -8 0 -19l-49 -49q21 -24 33 -61t18.5 -79t8.5 -84.5t2 -78.5zM362 227q0 31 -4 57t-15 45
t-31.5 30t-53.5 11q-31 0 -51.5 -9.5t-32.5 -28.5t-17 -46t-5 -61q0 -29 4 -54t15 -43t31 -28.5t53 -10.5t54 11t33 30t16 44t4 53z" />
    <glyph glyph-name="plusminus" unicode="&#xb1;" horiz-adv-x="574" 
d="M335 386h144q17 0 17 -16v-50q0 -16 -17 -16h-144v-147q0 -17 -15 -17h-63q-17 0 -17 17v147h-146q-16 0 -16 16v50q0 16 16 16h146v137q0 17 17 17h62q16 0 16 -17v-137zM96 25q-17 0 -17 16v45q0 17 17 17h383q16 0 16 -16v-46q0 -16 -16 -16h-383z" />
    <glyph glyph-name="multiply" unicode="&#xd7;" horiz-adv-x="574" 
d="M288 388l117 117q7 7 12 7.5t12 -6.5l42 -42q11 -12 0 -23l-118 -118l118 -118q7 -7 7.5 -12t-6.5 -12l-40 -40q-11 -11 -23 2l-118 119l-122 -123q-12 -12 -23 -1l-42 43q-7 7 -7 11.5t7 11.5l122 122l-120 121q-12 11 -1 21l39 40q8 7 12.5 7t10.5 -6z" />
    <glyph glyph-name="paragraph" unicode="&#xb6;" horiz-adv-x="510" 
d="M465 664q20 0 20 -19v-54q0 -21 -20 -21h-22v-650q0 -12 -5 -16t-15 -4h-49q-10 0 -15 4t-5 16v651h-95v-651q0 -12 -5 -16t-15 -4h-48q-11 0 -16 4t-5 16v374q-36 1 -63.5 16t-46.5 38.5t-29 53t-10 59.5q0 49 14 87t39.5 64t61 39t77.5 13h252z" />
    <glyph glyph-name="dotlessi" unicode="&#x131;" horiz-adv-x="243" 
d="M176 19q0 -8 -3.5 -13.5t-14.5 -5.5h-71q-20 0 -20 19v452q0 19 20 19h71q11 0 14.5 -5.5t3.5 -13.5v-452z" />
    <glyph glyph-name="acute" unicode="&#xb4;" horiz-adv-x="514" 
d="M396 709q15 -8 4 -22l-102 -140q-8 -11 -19 -6l-39 18q-11 6 -5 19l80 155q6 13 22 6z" />
    <glyph glyph-name="circumflex" unicode="&#x2c6;" horiz-adv-x="521" 
d="M141 538q-8 -7 -12 -7.5t-11 5.5l-27 25q-6 5 -6 8.5t6 10.5l106 125q6 8 12 11t20 3h55q16 0 22 -2.5t11 -9.5l105 -127q11 -11 1 -20l-27 -24q-12 -9 -22 0l-119 105z" />
    <glyph glyph-name="currency" unicode="&#xa4;" horiz-adv-x="518" 
d="M152 284q0 -54 26.5 -85t77.5 -31q54 0 82.5 32.5t28.5 83.5q0 54 -28.5 84.5t-82.5 30.5q-51 0 -77.5 -30.5t-26.5 -84.5zM58 283q0 17 6 47t23 61l-55 55q-8 8 -8.5 14t7.5 14l37 35q10 10 15 9t13 -9l52 -52q20 12 46.5 19.5t60.5 8.5q67 0 114 -30l58 58q9 9 14.5 9
t13.5 -7l38 -38q8 -8 7.5 -13.5t-8.5 -13.5l-62 -61q15 -26 22 -53t7 -49q0 -23 -7 -55t-25 -62l63 -62q9 -8 10.5 -14t-7.5 -15l-35 -36q-9 -9 -15.5 -8.5t-14.5 9.5l-63 63q-22 -13 -49.5 -20.5t-60.5 -6.5q-31 0 -54.5 5.5t-43.5 15.5l-62 -60q-8 -9 -14 -10.5t-15 7.5
l-38 38q-6 7 -5.5 13t9.5 14l58 57q-19 31 -25.5 65t-6.5 58z" />
    <glyph glyph-name="hungarumlaut" unicode="&#x2dd;" horiz-adv-x="544" 
d="M313 709q13 -8 4 -22l-102 -140q-8 -11 -19 -6l-40 18q-5 3 -7 7t3 12l79 155q8 13 22 6zM460 709q13 -8 4 -22l-102 -140q-4 -5 -7.5 -7t-11.5 1l-39 18q-11 6 -5 19l80 155q7 13 21 6z" />
    <glyph glyph-name="caron" unicode="&#x2c7;" horiz-adv-x="471" 
d="M238 611l118 105q11 10 22 0l27 -24q10 -9 0 -20l-105 -127q-6 -7 -11.5 -9.5t-22.5 -2.5h-54q-14 0 -20.5 3t-12.5 11l-106 125q-6 7 -5.5 10.5t5.5 8.5l27 25q7 6 11.5 5.5t11.5 -7.5z" />
    <glyph glyph-name="breve" unicode="&#x2d8;" horiz-adv-x="524" 
d="M274 536q-49 0 -95.5 25.5t-70.5 78.5q-4 8 -7 17t5 16l27 22q9 6 14 3.5t12 -9.5q30 -36 54.5 -53t61.5 -17q17 0 30.5 4t26 13t25.5 22t29 31q12 14 25 5l27 -17q10 -6 6.5 -16t-7.5 -19q-27 -53 -70 -79.5t-93 -26.5z" />
    <glyph glyph-name="ogonek" unicode="&#x2db;" horiz-adv-x="464" 
d="M236 -90q0 -23 13 -31.5t33 -8.5q14 0 28 1.5t28 6.5q5 2 8.5 1.5t5.5 -6.5l9 -30q2 -7 -0.5 -10.5t-7.5 -5.5q-17 -8 -41.5 -14.5t-56.5 -5.5q-48 1 -72.5 27.5t-24.5 65.5q0 26 14 57.5t52 64.5h64v-1q-31 -35 -41.5 -63t-10.5 -48z" />
    <glyph glyph-name="exclam" unicode="!" horiz-adv-x="254" 
d="M168 196q-1 -18 -15 -18h-49q-16 0 -16 18l-12 448q0 11 4 15t14 4h70q17 0 17 -19zM185 48q0 -12 -2 -22.5t-8.5 -18.5t-18 -13t-30.5 -5q-20 0 -31.5 5t-17.5 13t-8 19t-2 22q0 25 11.5 41t47.5 16q37 0 48 -16t11 -41z" />
    <glyph glyph-name="afii10026" unicode="&#x418;" horiz-adv-x="652" 
d="M69 643q0 20 19 20h73q20 0 20 -20v-446h2l45 71l235 374q5 8 12.5 14.5t21.5 6.5h66q10 0 14 -5.5t4 -12.5v-626q0 -19 -19 -19h-74q-19 0 -19 19v453h-2l-284 -451q-6 -10 -14 -15.5t-22 -5.5h-59q-19 0 -19 18v625z" />
    <glyph glyph-name="afii10049" unicode="&#x42f;" horiz-adv-x="577" 
d="M62 463q0 52 18 89.5t48 62.5t68 37t77 12h215q20 0 20 -19v-626q0 -19 -20 -19h-74q-19 0 -19 20v256h-94q-15 0 -30 -4t-28 -14t-24 -27t-19 -43l-49 -164q-5 -14 -11 -19t-22 -5h-64q-16 0 -19 6.5t1 18.5l52 173q11 38 27 64.5t44 42.5q-26 9 -44.5 25.5t-30 38
t-17 46t-5.5 48.5zM179 466q0 -32 10.5 -51t26.5 -29t36 -13.5t39 -3.5h104v196h-107q-18 0 -37.5 -5t-35.5 -16.5t-26 -30.5t-10 -47z" />
    <glyph glyph-name="afii10045" unicode="&#x42b;" horiz-adv-x="786" 
d="M417 198q0 48 -24 77.5t-83 29.5h-128v-209h122q51 0 82 25.5t31 76.5zM68 644q0 19 20 19h75q19 0 19 -19v-244h131q66 0 108 -19t66.5 -48t34 -65.5t9.5 -70.5q0 -50 -17.5 -87t-47.5 -61.5t-69.5 -36.5t-84.5 -12h-224q-20 0 -20 18v626zM603 644q0 20 20 20h75
q19 0 19 -20v-625q0 -19 -19 -19h-75q-20 0 -20 19v625z" />
    <glyph glyph-name="afii10018" unicode="&#x411;" horiz-adv-x="559" 
d="M70 644q0 18 16 19h370q19 0 19 -19v-61q0 -19 -20 -19h-271v-164h133q65 0 107 -19t66 -48t33 -65.5t9 -70.5q0 -50 -17.5 -87t-47.5 -61.5t-69.5 -36.5t-83.5 -12h-224q-20 0 -20 18v626zM418 198q0 47 -23.5 77t-83.5 30h-128v-209h122q51 0 82 25.5t31 76.5z" />
    <glyph glyph-name="afii10046" unicode="&#x42c;" horiz-adv-x="561" 
d="M417 198q0 48 -23.5 77.5t-83.5 29.5h-128v-209h122q51 0 82 25.5t31 76.5zM68 644q0 19 20 19h75q19 0 19 -19v-244h131q66 0 108 -19t66.5 -48t34 -65.5t9.5 -70.5q0 -50 -17.5 -87t-47.5 -61.5t-69.5 -36.5t-84.5 -12h-224q-20 0 -20 18v626z" />
    <glyph glyph-name="afii10044" unicode="&#x42a;" horiz-adv-x="717" 
d="M680 197q0 -50 -17.5 -87t-47.5 -61.5t-70 -36.5t-84 -12h-224q-20 0 -20 18v546h-191q-12 0 -16 4.5t-4 13.5v62q0 9 4 13.5t15 4.5h287q19 0 19 -19v-244h131q66 0 108.5 -18.5t67 -48t33.5 -65.5t9 -70zM566 198q0 47 -24.5 77t-82.5 30h-128v-209h122q51 0 82 25.5
t31 76.5z" />
    <glyph glyph-name="afii10040" unicode="&#x426;" horiz-adv-x="632" 
d="M183 99h253v545q0 20 19 20h75q19 0 19 -20v-542l48 -5q13 -2 15.5 -10t2.5 -16l-11 -197q-2 -17 -5 -22t-13 -5h-60q-11 0 -14 4.5t-4 20.5l-7 128h-411q-11 0 -15 5.5t-4 14.5v624q0 9 4 14.5t15 5.5h75q18 0 18 -20v-545z" />
    <glyph glyph-name="afii10025" unicode="&#x417;" horiz-adv-x="521" 
d="M375 351q46 -12 76.5 -49.5t30.5 -100.5q0 -52 -19 -91t-53 -65.5t-81.5 -40t-105.5 -13.5q-14 0 -39 1.5t-52.5 5t-55 8.5t-46.5 13q-16 6 -19 13.5t-1 18.5l8 40q2 11 6 14.5t17 1.5q45 -7 90 -12t87 -5q147 0 147 109q0 61 -32 82.5t-90 21.5h-49q-14 0 -17.5 4
t-3.5 17v48q0 12 3.5 18t17.5 6h48q22 0 42 4.5t35 14.5t23.5 26.5t8.5 41.5q0 30 -10.5 48t-27.5 28t-38.5 13t-43.5 3q-12 0 -29.5 -1t-37.5 -3t-41.5 -4.5t-40.5 -6.5q-12 -2 -18 -0.5t-8 12.5l-9 44q-2 11 0.5 17.5t18.5 12.5q21 8 46 13.5t50 9t47.5 5t38.5 1.5
q117 0 168.5 -47t51.5 -132q0 -48 -26.5 -86.5t-66.5 -55.5v-3z" />
    <glyph glyph-name="afii10050" unicode="&#x490;" horiz-adv-x="499" 
d="M184 19q0 -8 -3.5 -13.5t-14.5 -5.5h-76q-19 0 -19 19v626q0 19 19 19h293l16 107q2 14 6 17.5t11 3.5h53q7 0 10.5 -4t3.5 -17v-185q0 -8 -4 -14.5t-15 -6.5h-280v-546z" />
    <glyph glyph-name="afii10042" unicode="&#x428;" horiz-adv-x="853" 
d="M90 0q-11 0 -15 5.5t-4 15.5v624q0 9 4 14t15 5h75q18 0 18 -19v-545h187v544q0 20 19 20h76q19 0 19 -20v-544h186v545q0 9 4 14t15 5h75q18 0 18 -19v-624q0 -10 -3.5 -15.5t-14.5 -5.5h-674z" />
    <glyph glyph-name="afii10043" unicode="&#x429;" horiz-adv-x="866" 
d="M90 0q-11 0 -15 5.5t-4 15.5v624q0 9 4 14t15 5h75q18 0 18 -19v-545h187v544q0 20 19 20h76q19 0 19 -20v-545h186v546q0 9 4 14t15 5h75q18 0 18 -19v-543l49 -5q12 -2 15 -10t2 -16l-11 -197q-1 -17 -4.5 -22t-13.5 -5h-59q-11 0 -14 4.5t-5 20.5l-6 128h-645z" />
    <glyph glyph-name="afii10047" unicode="&#x42d;" horiz-adv-x="565" 
d="M253 -8q-18 0 -42 1.5t-48.5 4.5t-49 8.5t-44.5 13.5q-24 10 -19 32l9 39q3 12 9 14.5t17 0.5q49 -8 85.5 -10t76.5 -2q46 0 76 15t48.5 42t27 63.5t10.5 79.5h-237q-19 0 -19 18v58q0 19 19 19h236q-2 37 -8.5 69.5t-22.5 56.5t-43.5 38t-70.5 14q-41 0 -79 -3.5
t-75 -8.5q-11 -2 -18 0.5t-9 14.5l-8 40q-5 23 18 31q18 8 41 13.5t47 9t47.5 5t41.5 1.5q86 0 138 -28.5t79.5 -75.5t36 -107t8.5 -123q0 -65 -11.5 -127t-42 -110t-85 -77.5t-139.5 -29.5z" />
    <glyph glyph-name="afii10053" unicode="&#x404;" horiz-adv-x="554" 
d="M60 336q0 63 10.5 123.5t40.5 107.5t82.5 75.5t136.5 28.5q18 0 42.5 -1.5t49.5 -5t49.5 -9t42.5 -13.5q12 -5 16 -12t1 -20l-8 -39q-3 -20 -26 -16q-36 5 -79.5 9t-83.5 4q-42 0 -69.5 -14t-44.5 -38.5t-25.5 -57t-11.5 -69.5h235q19 0 19 -18v-59q0 -18 -19 -18h-236
q2 -43 9 -79.5t24 -63.5t46 -42t75 -15q43 0 83 4t79 9q12 2 17.5 -2t8.5 -13l8 -39q5 -22 -18 -33q-20 -8 -44 -13.5t-49 -9t-49 -5t-42 -1.5q-86 0 -138.5 29.5t-82 78.5t-39.5 110.5t-10 126.5z" />
    <glyph glyph-name="afii10145" unicode="&#x40f;" horiz-adv-x="619" 
d="M90 0q-11 0 -15 5.5t-4 14.5v624q0 9 4 14.5t15 5.5h75q18 0 18 -20v-545h253v545q0 20 19 20h75q19 0 19 -20v-624q0 -20 -19 -20h-162l-6 -131q-2 -17 -6 -21.5t-15 -4.5h-60q-11 0 -15.5 3t-5.5 19l-6 135h-164z" />
    <glyph glyph-name="afii10048" unicode="&#x42e;" horiz-adv-x="836" 
d="M71 644q0 20 19 20h75q11 0 14.5 -5.5t3.5 -14.5v-247h75q4 45 15.5 93.5t39.5 88.5t76 66t124 26q88 0 140 -29t79.5 -76t35.5 -106.5t8 -119.5q0 -58 -7 -119.5t-33 -112.5t-79 -84t-144 -33q-83 0 -132.5 27.5t-76.5 71.5t-36 99t-11 110h-74v-280q0 -8 -3.5 -13.5
t-14.5 -5.5h-75q-19 0 -19 19v625zM660 330q0 60 -6.5 105.5t-23 76t-45 46t-72.5 15.5q-41 0 -68 -16t-43 -47t-22 -76.5t-6 -103.5q0 -56 6 -100.5t22 -75.5t42.5 -47.5t68.5 -16.5t70.5 16t45.5 46.5t24 75t7 102.5z" />
    <glyph glyph-name="afii10029" unicode="&#x41b;" horiz-adv-x="606" 
d="M244 336q-5 -92 -13.5 -157t-29.5 -106.5t-59 -61t-103 -20.5q-19 0 -24 4t-6 17l-1 44q0 10 3 13.5t14 5.5q30 6 49 15.5t30.5 29t17.5 52t10 85.5l24 386q0 20 20 20h343q18 0 18 -20v-624q0 -9 -3.5 -14t-14.5 -5h-75q-20 0 -20 19v546h-168z" />
    <glyph glyph-name="afii10058" unicode="&#x409;" horiz-adv-x="892" 
d="M505 663q19 0 19 -19v-244h134q64 0 105.5 -18t65.5 -46t33.5 -63.5t9.5 -69.5q0 -50 -17.5 -88t-47.5 -63.5t-69.5 -38.5t-83.5 -13h-224q-20 0 -20 18v546h-154l-12 -208q-6 -90 -13 -158t-27 -114t-58.5 -69.5t-106.5 -24.5q-20 0 -24.5 5.5t-4.5 16.5l-2 44
q0 10 3 13.5t14 5.5q34 7 54 18.5t31.5 40.5t17 81.5t10.5 141.5l18 287q0 20 20 20l328 -1h1zM759 202q0 48 -24.5 75.5t-82.5 27.5h-128v-209h121q23 0 43.5 7t36.5 20.5t25 33t9 45.5z" />
    <glyph glyph-name="afii10037" unicode="&#x423;" horiz-adv-x="573" 
d="M237 152l-211 493q-3 7 -0.5 12.5t10.5 5.5h85q13 0 18 -3.5t10 -13.5l70 -182l73 -194h3l76 201l65 173q6 10 11.5 15t17.5 5h77q9 0 11.5 -5t-1.5 -13l-198 -494q-17 -39 -33 -70t-35 -52t-43.5 -32t-59.5 -12q-14 0 -35 2t-38 6q-14 3 -19 9t-3 20l5 40q1 11 6 14
t19 2q27 -2 44 -0.5t28.5 6.5t18.5 14.5t15 25.5z" />
    <glyph glyph-name="afii10024" unicode="&#x416;" horiz-adv-x="883" 
d="M675 202q-9 28 -20.5 45.5t-25.5 27.5t-29.5 13t-32.5 3h-70v-272q0 -8 -3.5 -13.5t-14.5 -5.5h-74q-20 0 -20 19v272h-69q-17 0 -32.5 -3t-29.5 -13t-25.5 -27.5t-20.5 -45.5l-52 -178q-5 -14 -11.5 -19t-22.5 -5h-70q-16 0 -19 6.5t1 18.5l58 190q15 48 35.5 81.5
t59.5 46.5q-31 11 -53.5 43.5t-37.5 81.5l-53 169q-4 12 -1 18.5t19 6.5h64q16 0 22 -5t11 -19l52 -164q9 -29 21.5 -45.5t26.5 -25.5t29.5 -11.5t29.5 -2.5h68v255q0 20 20 20h74q11 0 14.5 -5.5t3.5 -14.5v-255h68q14 0 29.5 2.5t30 11.5t27 25.5t21.5 45.5l51 164
q5 14 11.5 19t21.5 5h64q16 0 19 -6.5t-1 -18.5l-52 -169q-15 -49 -38 -81.5t-53 -43.5q38 -13 59 -46.5t35 -81.5l58 -190q4 -12 1 -18.5t-19 -6.5h-70q-15 0 -21.5 5t-11.5 19z" />
    <glyph glyph-name="afii10021" unicode="&#x414;" horiz-adv-x="658" 
d="M523 0h-398l-4 -64l-4 -64q-1 -16 -6.5 -20.5t-16.5 -4.5h-56q-11 0 -14.5 4t-5.5 21l-7 194q-1 13 3 19t17 9l29 6q16 15 28 31t20 36.5t14 46t10 58.5q11 89 18 181t15 183q1 14 7 20.5t23 6.5h367q19 0 19 -20v-545l38 -4q17 -3 17 -26l-10 -194q-1 -17 -4.5 -22
t-13.5 -5h-60q-11 0 -14.5 4.5t-4.5 20.5zM468 99v467h-201l-23 -276q-3 -37 -7 -65.5t-10 -51.5t-15 -41t-22 -33h278z" />
    <glyph glyph-name="afii10059" unicode="&#x40a;" horiz-adv-x="875" 
d="M386 644q0 19 20 19h75q19 0 19 -19v-246h131q66 0 108.5 -18.5t66.5 -47.5t33.5 -65t9.5 -70q0 -50 -17.5 -87t-47.5 -61.5t-70 -36.5t-84 -12h-224q-20 0 -20 18v281h-203v-280q0 -8 -3.5 -13.5t-14.5 -5.5h-75q-20 0 -20 19v625q0 20 20 20h75q11 0 14.5 -5.5
t3.5 -14.5v-246h203v246zM735 198q0 48 -23.5 76t-83.5 28h-128v-206h122q51 0 82 25.5t31 76.5z" />
    <glyph glyph-name="afii10041" unicode="&#x427;" horiz-adv-x="589" 
d="M40 644q0 9 4 14.5t15 5.5h75q19 0 19 -20v-186q0 -22 4.5 -41t16 -33.5t31.5 -23t52 -8.5q30 0 71.5 5t76.5 16v272q0 6 3 12.5t16 6.5h75q20 0 20 -19v-93.5v-124v-135v-126v-97.5v-50q0 -19 -20 -19h-75q-19 0 -19 19v261q-18 -7 -40.5 -12t-45.5 -8.5t-45 -5.5
t-38 -2q-61 0 -99 16.5t-59.5 43.5t-29.5 61t-8 69v202z" />
    <glyph glyph-name="afii10067" unicode="&#x432;" horiz-adv-x="507" 
d="M76 0q-15 0 -20 5.5t-5 15.5v450q0 11 4.5 15t17.5 4h213q87 0 127 -36t40 -97q0 -20 -11 -49t-47 -49q22 -9 36 -23.5t22 -30t11 -31.5t3 -29q0 -33 -13.5 -60t-36.5 -46t-54 -29t-65 -10h-222zM356 151q0 25 -15.5 44.5t-53.5 19.5h-128v-125h117q24 0 39.5 6t24.5 15
t12.5 20t3.5 20zM342 349q0 10 -3.5 19t-11.5 16.5t-21.5 12t-33.5 4.5h-113v-108h120q29 0 46 16.5t17 39.5z" />
    <glyph glyph-name="afii10068" unicode="&#x433;" horiz-adv-x="438" 
d="M162 398v-379q0 -10 -4 -14.5t-18 -4.5h-64q-12 0 -18 4t-6 15v450q0 21 23 21h330q11 0 14.5 -5t3.5 -16v-50q0 -13 -4 -17t-15 -4h-242z" />
    <glyph glyph-name="afii10069" unicode="&#x434;" horiz-adv-x="590" 
d="M404 397h-153q-10 -79 -17.5 -131t-14.5 -86t-14.5 -53.5t-17.5 -34.5h217v305zM513 90l32 -4q11 -2 15 -8.5t4 -14.5q0 -5 -0.5 -8.5t-0.5 -7.5q-2 -39 -4.5 -78t-4.5 -78q-1 -16 -6 -20.5t-14 -4.5h-52q-11 0 -14.5 4.5t-4.5 18.5l-4 111h-344l-9 -111q-2 -14 -5 -18.5
t-11 -4.5h-58q-10 0 -13 5t-4 19q-2 43 -3 86t-1 87q0 11 6 16t14 7l27 4q31 20 44 58t23 100l31 199q5 23 20.5 33t44.5 10h265q14 0 20.5 -7.5t6.5 -19.5v-373z" />
    <glyph glyph-name="afii10072" unicode="&#x436;" horiz-adv-x="718" 
d="M412 17q0 -8 -3 -12.5t-14 -4.5h-73q-17 0 -17 17v187h-40q-28 0 -54 -14t-42 -60l-39 -115q-3 -9 -9.5 -12t-17.5 -3h-67q-15 0 -17 6.5t1 15.5l44 134q14 40 31 62.5t52 34.5v1q-27 8 -45 35t-34 74l-35 104q-3 10 -0.5 16t16.5 6h61q12 0 18 -3t10 -12l40 -108
q9 -23 18.5 -37t20 -21.5t23 -9.5t26.5 -2h39v176q0 18 17 18h73q11 0 14 -5t3 -13v-176h39q14 0 26.5 2t23 9.5t20 21.5t18.5 37l40 108q4 9 10 12t18 3h61q14 0 16.5 -6t-0.5 -16l-35 -104q-16 -47 -34 -74t-45 -35v-1q35 -12 52 -34.5t31 -62.5l44 -134q3 -9 1 -15.5
t-17 -6.5h-67q-11 0 -17.5 3t-9.5 12l-39 115q-16 46 -42 60t-54 14h-40v-187z" />
    <glyph glyph-name="afii10073" unicode="&#x437;" horiz-adv-x="440" 
d="M319 262q46 -17 63.5 -48t17.5 -65q0 -47 -20 -77t-51.5 -48t-69.5 -25t-73 -7q-14 0 -35 1t-43.5 4t-44 7.5t-36.5 12.5q-14 6 -16.5 12.5t-0.5 18.5l7 32q2 12 8 14.5t17 0.5q35 -5 72 -7.5t69 -2.5q21 0 39 3t31.5 10.5t21 20.5t7.5 34q0 18 -7.5 31t-19.5 20.5
t-28 11t-33 3.5h-38q-11 0 -15 3t-4 14v45q0 9 3.5 12t15.5 3h35q32 0 57.5 12.5t25.5 42.5q0 34 -23.5 45.5t-55.5 11.5q-26 0 -59.5 -3t-65.5 -6q-16 -2 -21.5 1t-7.5 15l-7 36q-2 11 2.5 16t13.5 10q14 7 34 11.5t41.5 7.5t43 4t39.5 1q34 0 66 -6t57.5 -21t41 -41.5
t15.5 -67.5q0 -12 -4.5 -26.5t-13 -29t-21.5 -26.5t-30 -19v-2z" />
    <glyph glyph-name="afii10074" unicode="&#x438;" horiz-adv-x="542" 
d="M52 468q0 11 4.5 16.5t16.5 5.5h65q14 0 18 -6t4 -16v-292h2l131 178l89 118q6 8 12.5 13t21.5 5h52q12 0 17 -6.5t5 -14.5v-448q0 -21 -23 -21h-63q-23 0 -23 21v306h-1q-35 -48 -70 -95t-70 -95q-22 -30 -44 -59.5t-45 -59.5q-6 -8 -13.5 -13t-21.5 -5h-43
q-12 0 -16.5 5t-4.5 16v447z" />
    <glyph glyph-name="afii10077" unicode="&#x43b;" horiz-adv-x="533" 
d="M457 490q23 0 23 -22v-448q0 -10 -4 -15t-17 -5h-66q-12 0 -16.5 4.5t-4.5 15.5v377h-144l-22 -238q-4 -35 -12 -66t-27 -54t-51.5 -36t-85.5 -13q-15 0 -18 4t-4 14l-3 44q0 9 3 13t14 7q23 5 38 12t25 20t15.5 35.5t9.5 59.5l24 233q4 34 19.5 46t50.5 12h253z" />
    <glyph glyph-name="afii10078" unicode="&#x43c;" horiz-adv-x="620" 
d="M458 282l-44 -84q-14 -27 -27 -52.5t-30 -55.5q-9 -17 -29 -17h-34q-14 0 -20 4t-10 12q-14 26 -27 48t-25 46q-13 23 -26 50t-26 50h-2v-263q0 -20 -23 -20h-62q-21 0 -21 20v449q0 20 20 20h58q15 0 21.5 -4t11.5 -13q16 -29 31.5 -58t30.5 -58q23 -42 43.5 -82.5
t43.5 -82.5l78 148l71 132q5 9 12.5 13.5t21.5 4.5h52q20 0 20 -19v-450q0 -20 -21 -20h-63q-22 0 -22 20v262h-3z" />
    <glyph glyph-name="afii10079" unicode="&#x43d;" horiz-adv-x="534" 
d="M482 21q0 -10 -4.5 -15.5t-17.5 -5.5h-64q-23 0 -23 21v193h-213v-193q0 -10 -4.5 -15.5t-16.5 -5.5h-65q-22 0 -22 21v447q0 22 22 22h65q12 0 16.5 -6t4.5 -16v-167h213v167q0 22 23 22h64q13 0 17.5 -6t4.5 -16v-447v0z" />
    <glyph glyph-name="afii10084" unicode="&#x442;" horiz-adv-x="443" 
d="M277 398v-380q0 -18 -22 -18h-63q-12 0 -18 3.5t-6 14.5v380h-138q-11 0 -15 4.5t-4 16.5v50q0 11 3.5 16t15.5 5h384q12 0 15 -5t3 -16v-50q0 -12 -4 -16.5t-15 -4.5h-136z" />
    <glyph glyph-name="afii10086" unicode="&#x444;" horiz-adv-x="677" 
d="M393 -159q0 -6 -3 -11.5t-14 -5.5h-72q-11 0 -15 5t-4 14v147q-66 4 -112.5 24.5t-75 54.5t-41.5 78t-13 95q0 42 10 86t37 81t74 61.5t121 28.5v145q0 20 19 20h70q19 0 19 -20v-144q73 -4 120 -27.5t74 -59t37 -79.5t10 -88q0 -51 -13 -95.5t-41.5 -78.5t-74.5 -55.5
t-112 -26.5v-149zM285 403q-38 -1 -63 -14t-40.5 -35t-22 -51t-6.5 -63q0 -73 31.5 -112t100.5 -44v319zM393 84q66 5 98.5 43t32.5 113q0 33 -6 62.5t-21 51.5t-40 35t-64 14v-319z" />
    <glyph glyph-name="afii10088" unicode="&#x446;" horiz-adv-x="545" 
d="M360 469q0 21 23 21h64q11 0 16.5 -4t5.5 -17l1 -375l36 -3q13 -2 15 -8.5t1 -17.5l-10 -168q-1 -16 -4.5 -20t-12.5 -4h-55q-11 0 -15 4t-5 18l-3 105h-343q-22 0 -22 22v447q0 21 22 21h66q21 0 21 -21v-376h199v376z" />
    <glyph glyph-name="afii10089" unicode="&#x447;" horiz-adv-x="502" 
d="M30 470q0 9 3.5 14.5t14.5 5.5h77q10 0 12.5 -5t2.5 -15v-123q0 -21 3 -38t10.5 -29t21.5 -19t36 -7q15 0 33.5 4t36.5 10t33.5 12.5t25.5 11.5v178q0 9 3 14.5t14 5.5h76q11 0 13.5 -5t2.5 -15v-451q0 -10 -2.5 -14.5t-13.5 -4.5h-76q-11 0 -14 5.5t-3 13.5v186h-1
q-29 -16 -71.5 -31.5t-85.5 -15.5q-52 0 -82.5 15t-46 40t-19.5 56t-4 63v138v0z" />
    <glyph glyph-name="afii10090" unicode="&#x448;" horiz-adv-x="723" 
d="M309 93v375q0 11 4 16.5t17 5.5h68q12 0 16 -5.5t4 -16.5v-375h144v375q0 22 22 22h69q11 0 14.5 -4t3.5 -18v-445q0 -11 -3 -17t-15 -6h-581q-20 0 -20 23v445q0 22 20 22h69q12 0 16 -5.5t4 -16.5v-375h148z" />
    <glyph glyph-name="afii10091" unicode="&#x449;" horiz-adv-x="746" 
d="M74 0q-22 0 -22 23v445q0 22 22 22h65q22 0 22 -22v-375h148v375q0 22 23 22h64q22 0 22 -22v-375h145v375q0 22 23 22h65q11 0 15.5 -4t4.5 -18v-376l36 -3q14 -2 15.5 -8.5t0.5 -17.5l-9 -168q-1 -16 -4.5 -20t-13.5 -4h-55q-11 0 -14.5 4t-4.5 18l-4 107h-544v0z" />
    <glyph glyph-name="afii10092" unicode="&#x44a;" horiz-adv-x="597" 
d="M188 0q-25 0 -25 21v377h-139q-12 0 -15 4t-3 16v52q0 12 3.5 16t14.5 4h225q22 0 22 -21v-160h122q52 0 86.5 -14t54 -36t27.5 -50t8 -56q0 -38 -14.5 -66.5t-39 -48t-58 -29t-72.5 -9.5h-197zM464 156q0 29 -16.5 46.5t-60.5 17.5h-115v-128h111q37 0 59 16t22 48z" />
    <glyph glyph-name="afii10093" unicode="&#x44b;" horiz-adv-x="673" 
d="M621 18q0 -18 -22 -18h-65q-12 0 -17.5 3.5t-5.5 14.5v452q0 20 23 20h65q22 0 22 -20v-452zM72 0q-14 0 -17 5t-3 16v450q0 11 5.5 15t18.5 4h64q12 0 16.5 -4.5t4.5 -14.5v-162h121q52 0 86.5 -14t54 -36t27.5 -50t8 -56q0 -38 -14.5 -66.5t-39 -48t-58 -29t-72.5 -9.5
h-202zM353 156q0 29 -17 46.5t-60 17.5h-115v-128h110q37 0 59.5 16t22.5 48z" />
    <glyph glyph-name="afii10094" unicode="&#x44c;" horiz-adv-x="486" 
d="M72 0q-14 0 -17 5t-3 16v451q0 11 5.5 14.5t18.5 3.5h64q12 0 16.5 -4t4.5 -14v-163h121q52 0 86.5 -14t54 -36t27.5 -50t8 -56q0 -38 -14.5 -66.5t-39 -48t-58 -29t-72.5 -9.5h-202zM353 156q0 29 -17 46.5t-60 17.5h-115v-128h110q37 0 59.5 16t22.5 48z" />
    <glyph glyph-name="afii10095" unicode="&#x44d;" horiz-adv-x="456" 
d="M35 79q2 13 7.5 15t17.5 0q31 -4 69 -6.5t61 -2.5q26 0 45.5 6t32 20.5t19.5 39t9 61.5h-176q-14 0 -19 4.5t-5 16.5v42q0 12 5 16t19 4h174q-5 63 -29 88t-75 25q-26 0 -56 -3l-60 -6q-14 -2 -21.5 0t-9.5 14l-7 35q-3 20 15 28q16 7 36 11.5t41 7.5t42 4t38 1
q69 0 110 -21t62 -55.5t27 -80.5t6 -95q0 -54 -8.5 -101t-31.5 -81.5t-65 -54t-109 -19.5q-37 0 -80 5.5t-72 17.5q-14 6 -17 13t0 18z" />
    <glyph glyph-name="afii10096" unicode="&#x44e;" horiz-adv-x="677" 
d="M633 253q0 -40 -4.5 -86t-24.5 -85t-62.5 -64.5t-118.5 -25.5q-66 0 -105.5 20.5t-60.5 52.5t-28.5 71.5t-8.5 78.5h-59v-194q0 -10 -3.5 -15.5t-14.5 -5.5h-72q-11 0 -15 5t-4 16v447q0 11 4 16.5t15 5.5h72q11 0 14.5 -5.5t3.5 -16.5v-167h60q3 31 12.5 66t31.5 64
t60 48.5t98 19.5q71 0 113 -22.5t63.5 -58.5t27.5 -79.5t6 -85.5zM524 246q0 37 -3 66t-13.5 49t-30.5 31t-54 11q-31 0 -50 -11t-29 -31.5t-13.5 -49.5t-3.5 -65q0 -39 3.5 -69t13.5 -49.5t29 -29.5t50 -10q33 0 53 10.5t30.5 30.5t14 49.5t3.5 67.5z" />
    <glyph glyph-name="afii10097" unicode="&#x44f;" horiz-adv-x="512" 
d="M436 491q14 0 19 -4.5t5 -15.5v-450q0 -20 -24 -20h-63q-13 0 -17.5 5t-4.5 15v170h-101q-26 -2 -43.5 -16.5t-31.5 -56.5l-32 -97q-4 -12 -10 -16.5t-20 -4.5h-66q-14 0 -16.5 5.5t0.5 16.5l35 107q11 30 23 52.5t34 34.5q-22 8 -36 21.5t-22 30t-11 34.5t-3 35
q0 38 14 66.5t38 48t56.5 29.5t68.5 10h208zM159 337q0 -29 17.5 -45t59.5 -16h115v125h-110q-36 0 -59 -16t-23 -48z" />
    <glyph glyph-name="afii10107" unicode="&#x45a;" horiz-adv-x="755" 
d="M348 0q-14 0 -18.5 3.5t-4.5 14.5v200h-164v-200q0 -10 -4.5 -14t-16.5 -4h-66q-11 0 -16.5 3.5t-5.5 14.5v453q0 11 5.5 15t16.5 4h66q12 0 16.5 -4t4.5 -15v-167h164v168q0 11 5 14.5t18 3.5h64q13 0 17.5 -4t4.5 -14v-164h120q52 0 86.5 -13.5t54 -35.5t27.5 -50
t8 -56q0 -38 -14.5 -66.5t-39 -48t-58 -29t-71.5 -9.5h-199zM625 155q0 29 -16 47t-59 18h-116v-128h111q36 0 58 15.5t22 47.5z" />
    <glyph glyph-name="afii10106" unicode="&#x459;" horiz-adv-x="786" 
d="M652 156q0 29 -16.5 46.5t-58.5 17.5h-116v-128h111q35 0 57.5 16t22.5 48zM441 490q20 0 20 -21v-160h120q52 0 86.5 -14t54 -36t27.5 -50t8 -56q0 -38 -14.5 -66.5t-39 -48t-58 -29t-71.5 -9.5h-198q-14 0 -19 4.5t-5 15.5v379l-124 -1l-20 -225q-3 -38 -10.5 -71
t-25.5 -58t-51.5 -39.5t-89.5 -15.5q-14 0 -18.5 4t-4.5 15l-2 45q0 9 2.5 12.5t13.5 6.5q23 5 38.5 12t25.5 20.5t15.5 36t9.5 58.5l24 234q4 33 19 45t50 12h237z" />
    <glyph glyph-name="afii10193" unicode="&#x45f;" horiz-adv-x="530" 
d="M314 -119q-1 -16 -4.5 -20t-13.5 -4h-56q-11 0 -15 4.5t-5 18.5l-6 120h-140q-22 0 -22 22v447q0 21 22 21h65q22 0 22 -21v-376h207v376q0 21 24 21h64q11 0 16.5 -4t5.5 -17v-447q0 -22 -22 -22h-136z" />
    <glyph glyph-name="afii10101" unicode="&#x454;" horiz-adv-x="459" 
d="M426 46q3 -11 0 -18t-17 -13q-29 -12 -72 -17.5t-80 -5.5q-70 0 -112.5 19.5t-65 54t-29.5 81.5t-7 101q0 46 7.5 91.5t30 81t65 57.5t111.5 22q17 0 37.5 -1t41 -4t40 -7.5t35.5 -11.5q18 -8 15 -28l-7 -35q-2 -12 -9.5 -14t-21.5 0q-30 3 -63 6t-59 3q-51 0 -75 -25
t-29 -88h174q14 0 19 -4t5 -16v-42q0 -12 -5 -16.5t-19 -4.5h-176q2 -37 9 -61.5t19.5 -39t32 -20.5t45.5 -6q23 0 61 2.5t69 6.5q12 2 17.5 0t7.5 -15z" />
    <glyph glyph-name="afii10098" unicode="&#x491;" horiz-adv-x="438" 
d="M423 422q0 -24 -18 -24h-235v-377q0 -10 -3.5 -15.5t-17.5 -5.5h-64q-24 0 -24 21v447q0 11 5 16.5t19 5.5h245l16 101q2 11 5.5 13t8.5 2h50q13 0 13 -15v-169z" />
    <glyph glyph-name="afii61352" unicode="&#x2116;" horiz-adv-x="957" 
d="M547 18q0 -18 -18 -18h-57q-14 0 -20.5 4.5t-13.5 14.5l-172 293l-83 144h-3v-437q0 -19 -19 -19h-72q-19 0 -19 19v626q0 18 18 18h59q14 0 20.5 -5t11.5 -13q40 -68 80 -134.5t79 -134.5l96 -165h4v432q0 10 4 15t15 5h72q18 0 18 -20v-625zM914 510q0 -28 -4 -58.5
t-19.5 -56t-46.5 -42t-86 -16.5q-53 0 -83.5 16.5t-45.5 42t-18.5 56t-3.5 58.5q0 23 4.5 51.5t20 53.5t45.5 42t81 17t81.5 -14.5t47 -38t22 -53t5.5 -58.5zM907 230q0 -17 -17 -17h-255q-11 0 -14.5 4.5t-3.5 13.5v42q0 18 18 18h254q18 0 18 -19v-42zM826 505
q0 48 -12.5 71.5t-54.5 23.5q-39 0 -52 -23.5t-13 -71.5t12.5 -71t51.5 -23q42 0 55 23t13 71z" />
    <glyph glyph-name="afii10060" unicode="&#x40b;" horiz-adv-x="717" 
d="M667 19q0 -8 -4 -13.5t-15 -5.5h-73q-19 0 -19 19v256q0 53 -23.5 71.5t-65.5 18.5q-18 0 -41 -5.5t-45.5 -13.5t-42.5 -16.5t-33 -14.5v-296q0 -8 -3.5 -13.5t-14.5 -5.5h-75q-19 0 -19 19v546h-158q-12 0 -16 4.5t-4 13.5v62q0 9 4 14t15 5h506q19 0 19 -19v-62
q0 -18 -20 -18h-234v-154q14 7 35 16t45 17t50.5 13.5t50.5 5.5q58 0 93.5 -15t55 -41t26 -61t6.5 -75v-252z" />
    <glyph glyph-name="afii10051" unicode="&#x402;" horiz-adv-x="730" 
d="M305 19q0 -9 -3.5 -14t-14.5 -5h-75q-20 0 -20 19v545h-158q-20 0 -20 19v62q0 18 20 18h509q19 0 19 -18v-62q0 -19 -20 -19h-237v-165q45 22 89 34t80 12q53 0 92 -17t65 -47t38.5 -71.5t12.5 -90.5q0 -111 -48 -201.5t-152 -144.5q-12 -6 -19.5 -5t-15.5 13l-22 35
q-6 10 -5 14.5t11 11.5q79 52 109.5 121t30.5 159q0 64 -29 96.5t-83 32.5q-32 0 -72 -14t-82 -34v-284z" />
    <glyph glyph-name="afii10099" unicode="&#x452;" horiz-adv-x="585" 
d="M87 609v77q0 10 3.5 14.5t14.5 4.5h72q11 0 15 -5t4 -14v-77h195q11 0 14 -4t3 -13v-38q0 -9 -3 -13t-14 -4h-195v-117q39 20 81.5 30.5t84.5 10.5q86 0 132.5 -62t46.5 -174q0 -47 -12 -94.5t-36.5 -90.5t-63 -79.5t-91.5 -61.5q-13 -6 -20.5 -6t-15.5 14l-19 34
q-6 11 -3.5 16t13.5 13q63 38 100 101.5t37 161.5q0 63 -28 97.5t-79 34.5q-30 0 -63.5 -10t-63.5 -26v-310q0 -9 -3 -14t-14 -5h-73q-19 0 -19 19v518h-46q-11 0 -14 4t-3 14v36q0 10 3 14t14 4h46z" />
    <glyph glyph-name="afii10108" unicode="&#x45b;" horiz-adv-x="542" 
d="M488 18q0 -18 -20 -18h-71q-19 0 -19 18v265q0 31 -5 45q-5 29 -22 38t-45 9q-15 0 -34.5 -5t-39 -12.5t-36 -15t-26.5 -12.5v-312q0 -18 -19 -18h-73q-17 0 -17 18v519h-46q-11 0 -14 3.5t-3 13.5v37q0 10 3 13.5t14 3.5h46v78q0 19 17 19h73q11 0 15 -5t4 -14v-78h196
q11 0 14 -4t3 -13v-37q0 -9 -3 -13t-14 -4h-196v-105v-7t1 -7q13 8 32 18t40.5 18.5t45.5 14t47 5.5q52 0 82 -15.5t45.5 -42t20 -61t4.5 -72.5v-265v0z" />
    <glyph glyph-name="afii10066" unicode="&#x431;" horiz-adv-x="524" 
d="M47 243q0 74 4.5 140t22.5 122q15 47 43 84t76 63q20 11 46 20t54.5 16.5t57.5 14t56 12.5q10 2 15 -0.5t8 -13.5l11 -40q2 -8 2.5 -18t-11.5 -13q-26 -6 -49.5 -11.5t-43.5 -10.5q-48 -13 -81 -27.5t-53.5 -35.5t-31 -50.5t-14.5 -72.5l1 -1q25 26 59.5 37.5t72.5 11.5
q54 0 91 -18.5t59 -51t31.5 -76t9.5 -92.5q0 -42 -8 -85t-31.5 -77.5t-67 -56t-114.5 -21.5t-113.5 22t-65 57.5t-29.5 80.5t-7 91zM272 376q-38 0 -60 -14t-34 -36t-15.5 -49t-3.5 -53t3.5 -50.5t14.5 -43.5t31.5 -30.5t54.5 -11.5q36 0 57 12t32.5 31.5t15 45t3.5 53.5
q0 30 -3.5 56.5t-14 46.5t-30 31.5t-51.5 11.5z" />
    <glyph glyph-name="Hbar" unicode="&#x126;" horiz-adv-x="618" 
d="M548 488v-469q0 -8 -3.5 -13.5t-14.5 -5.5h-75q-20 0 -20 19v280h-252v-280q0 -8 -3.5 -13.5t-14.5 -5.5h-75q-20 0 -20 19v469h-45q-17 0 -17 17v38q0 18 18 18h44v83q0 20 20 20h75q11 0 14.5 -5.5t3.5 -14.5v-83h252v83q0 20 20 20h75q11 0 14.5 -5.5t3.5 -14.5v-83
h46q11 0 14.5 -4.5t3.5 -13.5v-38q0 -17 -17 -17h-47zM435 488h-252v-90h252v90z" />
    <glyph glyph-name="hbar" unicode="&#x127;" horiz-adv-x="542" 
d="M488 19q0 -19 -20 -19h-71q-19 0 -19 19v264q0 42 -14 67t-58 25q-15 0 -34.5 -5t-39 -12.5t-36 -15t-26.5 -12.5v-311q0 -19 -20 -19h-71q-18 0 -18 19v518h-46q-11 0 -14 3.5t-3 13.5v37q0 10 3 13.5t14 3.5h46v78q0 19 18 19h71q20 0 20 -19v-78h196q11 0 14 -4t3 -13
v-37q0 -9 -3 -13t-14 -4h-196v-118l1 -1q13 8 32 18t40.5 18.5t45.5 14t47 5.5q52 0 82 -15.5t45.5 -42t20 -61t4.5 -72.5v-264v0z" />
    <glyph glyph-name="kappa" unicode="&#x3ba;" horiz-adv-x="483" 
d="M168 309l75 81l83 84q8 8 15 12.5t21 4.5h80q14 0 16.5 -7t-5.5 -16l-160 -163l180 -282q5 -9 1.5 -16t-14.5 -7h-79q-16 0 -23 5t-12 14l-126 205l-55 -58v-147q0 -8 -4 -13.5t-15 -5.5h-71q-19 0 -19 19v451q0 20 19 20h71q11 0 15 -5.5t4 -14.5v-160z" />
    <glyph glyph-name="Tbar" unicode="&#x166;" horiz-adv-x="498" 
d="M484 583q0 -18 -20 -18h-159v-164h126q11 0 14.5 -4.5t3.5 -13.5v-38q0 -17 -17 -17h-127v-309q0 -8 -3.5 -13.5t-14.5 -5.5h-75q-19 0 -19 19v309h-122q-17 0 -17 17v38q0 18 18 18h121v164h-158q-12 0 -16 4.5t-4 13.5v62q0 9 4 14t15 5h431q19 0 19 -19v-62v0z" />
    <glyph glyph-name="tbar" unicode="&#x167;" horiz-adv-x="361" 
d="M359 38q3 -17 -13 -25q-13 -6 -30.5 -10t-36 -6.5t-35 -3.5t-28.5 -1q-44 0 -68.5 12.5t-36.5 34.5t-15 51t-3 61v91h-47q-17 0 -17 17v38q0 18 17 18h47v87h-50q-11 0 -15 4.5t-4 14.5v49q0 10 4 15t15 5h51v103q0 11 5.5 15.5t13.5 6.5l67 18q20 5 20 -12v-131h107
q12 0 15.5 -5t3.5 -14v-50q0 -10 -3.5 -14.5t-15.5 -4.5h-107v-87h93q11 0 14 -4.5t3 -12.5v-39q0 -8 -3 -12.5t-13 -4.5h-94v-89q0 -20 3 -31t10.5 -16.5t20.5 -6.5t33 -1q11 0 31.5 1t35.5 3q8 1 12 -2t6 -12z" />
    <glyph glyph-name="Eng" unicode="&#x14a;" horiz-adv-x="647" 
d="M183 457h-3v-438q0 -19 -19 -19h-72q-20 0 -20 19v626q0 18 19 18h57q23 0 30.5 -10t17.5 -24q1 -2 13.5 -21t31 -48t42 -66t48.5 -75t48.5 -75t42 -66t30.5 -48t14 -22h3v435q0 10 4 15t15 5h72q19 0 19 -20v-663q0 -36 -5 -67.5t-21 -55t-45 -37t-77 -13.5
q-14 0 -30.5 2t-30.5 7q-7 3 -7.5 6.5t0.5 9.5l7 60q1 8 5 9.5t10 1.5h14q41 0 55.5 11.5t14.5 45.5v60q-7 11 -24 37t-39 59.5t-46.5 70.5t-46 70t-38 58t-22.5 35z" />
    <glyph glyph-name="eng" unicode="&#x14b;" horiz-adv-x="528" 
d="M368 300q0 44 -14.5 71t-57.5 27q-15 0 -34.5 -5t-39 -12.5t-36.5 -15t-27 -12.5v-334q0 -19 -19 -19h-71q-19 0 -19 19v451q0 20 19 20h71q19 0 19 -20v-30q1 0 1.5 -0.5t1.5 -0.5q14 10 33.5 20.5t41.5 19.5t46 14.5t47 5.5q51 0 80 -15.5t44 -41.5t19 -60.5t4 -72.5
v-329q0 -36 -5 -67.5t-21 -55t-45 -37t-77 -13.5q-14 0 -30.5 2t-30.5 7q-7 3 -7.5 6.5t0.5 9.5l7 60q1 8 5 9.5t10 1.5h14q41 0 55.5 11.5t14.5 45.5z" />
    <glyph glyph-name="Circumflex" unicode="&#xf6c0;" horiz-adv-x="566" 
d="M155 697q-8 -6 -12.5 -6.5t-10.5 5.5l-25 26q-5 5 -5.5 8.5t5.5 10.5l111 104q8 7 14.5 10.5t18.5 3.5h54q14 0 20 -3t14 -9l110 -103q7 -6 6 -11t-6 -10l-25 -25q-6 -6 -10 -5.5t-11 5.5l-126 85z" />
    <glyph glyph-name="commaaccent" unicode="&#xf6c3;" horiz-adv-x="622" 
d="M400 -134q0 -57 -25.5 -96.5t-60.5 -60.5q-7 -4 -13.5 -4t-11.5 5l-20 19q-5 7 -4.5 11.5t8.5 12.5q18 17 24 34.5t6 33.5q0 17 -7 30.5t-18 26.5q-8 8 -8 15t11 17l50 36q11 8 19 6t16 -10q17 -16 25.5 -37t8.5 -39z" />
    <glyph glyph-name="Acute" unicode="&#xf6c9;" horiz-adv-x="566" 
d="M442 798q5 -7 2.5 -12.5t-9.5 -8.5l-155 -76q-5 -2 -10 -2t-10 6l-26 35q-7 10 5 18l143 100q8 5 12.5 2.5t9.5 -7.5z" />
    <glyph glyph-name="Caron" unicode="&#xf6ca;" horiz-adv-x="527" 
d="M271 778l123 81q8 5 12 6t11 -5l25 -24q5 -5 5.5 -8.5t-5.5 -10.5l-112 -105q-7 -6 -13.5 -9.5t-18.5 -3.5h-54q-14 0 -21 4t-13 10l-111 101q-11 12 -1 21l26 25q5 6 9.5 5.5t11.5 -5.5z" />
    <glyph glyph-name="Dieresis" unicode="&#xf6cb;" horiz-adv-x="601" 
d="M194 706q-19 0 -30 4.5t-16.5 12t-7 17.5t-1.5 21q0 23 10 38t45 15t45 -14.5t10 -38.5q0 -23 -10 -39t-45 -16zM381 706q-19 0 -30 4.5t-17 12t-7.5 17.5t-1.5 21q0 23 10.5 38t45.5 15t45 -14.5t10 -38.5q0 -23 -10 -39t-45 -16z" />
    <glyph glyph-name="DieresisAcute" unicode="&#xf6cc;" horiz-adv-x="571" 
d="M124 706q-19 0 -30 4.5t-16.5 12t-7 17.5t-1.5 21q0 23 10 38t45 15t45 -14.5t10 -38.5q0 -23 -10 -39t-45 -16zM441 706q-19 0 -30 4.5t-17 12t-7.5 17.5t-1.5 21q0 23 10.5 38t45.5 15t45 -14.5t10 -38.5q0 -23 -10 -39t-45 -16zM384 816q7 -5 5 -11t-8 -11l-139 -102
q-5 -3 -9.5 -4t-10.5 4l-32 30q-9 9 2 18l123 124q6 7 11.5 5.5t10.5 -6.5z" />
    <glyph glyph-name="DieresisGrave" unicode="&#xf6cd;" horiz-adv-x="553" 
d="M124 706q-19 0 -30 4.5t-16.5 12t-7 17.5t-1.5 21q0 23 10 38t45 15t45 -14.5t10 -38.5q0 -23 -10 -39t-45 -16zM441 706q-19 0 -30 4.5t-17 12t-7.5 17.5t-1.5 21q0 23 10.5 38t45.5 15t45 -14.5t10 -38.5q0 -23 -10 -39t-45 -16zM229 863q5 5 10.5 6.5t11.5 -5.5
l123 -124q11 -9 2 -18l-32 -30q-6 -5 -10.5 -4t-9.5 4l-139 102q-6 5 -8 11t5 11z" />
    <glyph glyph-name="Grave" unicode="&#xf6ce;" horiz-adv-x="566" 
d="M154 855q5 5 10 7.5t12 -3.5l137 -108q13 -8 4 -17l-28 -34q-5 -6 -10 -5.5t-10 2.5l-150 85q-7 4 -9.5 9.5t3.5 11.5z" />
    <glyph glyph-name="Hungarumlaut" unicode="&#xf6cf;" horiz-adv-x="621" 
d="M362 802q5 -7 2.5 -12.5t-8.5 -8.5l-152 -83q-5 -3 -9.5 -3.5t-10.5 5.5l-28 34q-9 9 4 17l138 107q7 6 12 4t10 -7zM547 802q5 -7 2.5 -12.5t-8.5 -8.5l-152 -83q-5 -3 -9.5 -3.5t-10.5 5.5l-28 34q-9 9 4 17l138 107q7 6 12 4t10 -7z" />
    <glyph glyph-name="Macron" unicode="&#xf6d0;" horiz-adv-x="566" 
d="M142 718q-17 0 -17 16v52q0 10 4.5 13t12.5 3h275q9 0 13 -3t4 -13v-52q0 -16 -17 -16h-275z" />
    <glyph glyph-name="cyrBreve" unicode="&#xf6d1;" horiz-adv-x="566" 
d="M275 697q-49 0 -94.5 23t-71.5 76q-4 8 -7 17t5 16l28 22q8 5 13 3t12 -9q29 -34 53.5 -50t61.5 -16q34 0 58.5 15t53.5 51q12 14 25 5l27 -17q9 -7 6.5 -16.5t-7.5 -18.5q-27 -52 -70 -76.5t-93 -24.5z" />
    <glyph glyph-name="cyrbreve" unicode="&#xf6d4;" horiz-adv-x="515" 
d="M271 546q-49 0 -94.5 25.5t-71.5 78.5q-3 8 -6 17t5 16l27 22q8 5 13.5 3t11.5 -9q15 -18 28.5 -31t27 -22t28 -13t33.5 -4q34 0 57 16.5t54 53.5q12 14 25 5l27 -17q9 -7 6 -16.5t-8 -18.5q-26 -52 -69 -79t-94 -27z" />
    <glyph glyph-name="ring" unicode="&#x2da;" horiz-adv-x="510" 
d="M276 524q-22 0 -42 8t-35.5 22.5t-25 34t-9.5 43.5q0 23 9.5 42.5t25 34t35.5 22.5t42 8q23 0 43 -8.5t35 -23.5t23.5 -34.5t8.5 -40.5q0 -22 -8.5 -41.5t-23.5 -34.5t-35 -23.5t-43 -8.5zM276 681q-19 0 -33 -15t-14 -34q0 -22 13 -36t34 -14q20 0 33.5 14.5t13.5 35.5
q0 19 -13.5 34t-33.5 15z" />
    <glyph glyph-name="Scaron" unicode="&#x160;" horiz-adv-x="550" 
d="M262 -9q-19 0 -44 1.5t-51.5 5t-52.5 9t-45 13.5q-17 7 -19.5 14t-0.5 17l9 41q3 13 8.5 15t18.5 0q19 -2 43 -4.5t48 -4.5t46.5 -3.5t39.5 -1.5q128 0 128 88q0 27 -6 44.5t-20 29.5t-36.5 19t-56.5 13q-44 9 -84.5 20t-71.5 31t-49 53t-18 84q0 95 60.5 145t166.5 50
q14 0 36.5 -1t48 -3.5t51.5 -8t48 -14.5q17 -7 19.5 -14t0.5 -17l-10 -41q-3 -12 -9 -14.5t-20 -1.5q-34 5 -74.5 9t-85.5 4q-64 0 -89.5 -23.5t-25.5 -65.5q0 -24 6.5 -38.5t20.5 -23.5t36.5 -14.5t55.5 -11.5q43 -9 83 -20t70.5 -32t49 -56t18.5 -92t-20 -95t-53.5 -61.5
t-77.5 -33.5t-92 -10zM273 778l123 81q8 5 12 6t11 -5l25 -24q5 -5 5.5 -8.5t-5.5 -10.5l-112 -105q-7 -6 -13.5 -9.5t-18.5 -3.5h-54q-14 0 -21 4t-13 10l-111 101q-11 12 -1 21l26 25q5 6 9.5 5.5t11.5 -5.5z" />
    <glyph glyph-name="Zcaron" unicode="&#x17d;" horiz-adv-x="515" 
d="M168 98h291q11 0 15 -4.5t4 -13.5v-61q0 -9 -3.5 -14t-14.5 -5h-403q-18 0 -18 18v55q0 8 2 17.5t8 17.5l298 457h-269q-11 0 -15 4.5t-4 13.5v62q0 9 3.5 14t14.5 5h380q19 0 19 -17l-1 -55q0 -11 -2.5 -18.5t-7.5 -16.5zM275 778l123 81q8 5 12 6t11 -5l25 -24
q5 -5 5.5 -8.5t-5.5 -10.5l-112 -105q-7 -6 -13.5 -9.5t-18.5 -3.5h-54q-14 0 -21 4t-13 10l-111 101q-11 12 -1 21l26 25q5 6 9.5 5.5t11.5 -5.5z" />
    <glyph glyph-name="scaron" unicode="&#x161;" horiz-adv-x="459" 
d="M420 147q0 -44 -17 -73.5t-45.5 -47.5t-64.5 -26t-75 -8q-38 0 -82 5.5t-73 16.5q-15 6 -19 13.5t-2 19.5l7 33q2 12 8 14.5t18 0.5q16 -3 35.5 -5t39 -3.5t37 -2.5t30.5 -1q48 0 69 13.5t21 43.5q0 17 -3.5 28t-12.5 18t-24.5 11.5t-39.5 7.5q-37 5 -70 13t-58.5 23.5
t-40.5 41t-15 66.5q0 74 52 112.5t136 38.5q15 0 35 -1t40.5 -4t40.5 -7t36 -10q25 -10 21 -30l-8 -36q-2 -11 -7.5 -13.5t-19.5 -0.5q-32 4 -70 7.5t-66 3.5q-48 0 -63.5 -13.5t-15.5 -42.5t19.5 -38t65.5 -16q36 -5 68.5 -13t57.5 -24t40 -43t15 -72zM232 611l118 105
q11 10 22 0l27 -24q10 -9 0 -20l-105 -127q-6 -7 -11.5 -9.5t-22.5 -2.5h-54q-14 0 -20.5 3t-12.5 11l-106 125q-6 7 -5.5 10.5t5.5 8.5l27 25q7 6 11.5 5.5t11.5 -7.5z" />
    <glyph glyph-name="zcaron" unicode="&#x17e;" horiz-adv-x="450" 
d="M396 93q20 0 20 -18v-56q0 -19 -19 -19h-349q-17 0 -17 17v44q0 8 1.5 16t9.5 17l240 305h-218q-19 0 -19 19v54q0 18 19 18h328q10 0 14.5 -3t4.5 -14v-49q0 -18 -12 -33l-234 -298h231zM229 611l118 105q11 10 22 0l27 -24q10 -9 0 -20l-105 -127q-6 -7 -11.5 -9.5
t-22.5 -2.5h-54q-14 0 -20.5 3t-12.5 11l-106 125q-6 7 -5.5 10.5t5.5 8.5l27 25q7 6 11.5 5.5t11.5 -7.5z" />
    <glyph glyph-name="Ydieresis" unicode="&#x178;" horiz-adv-x="560" 
d="M221 273l-206 372q-3 7 -0.5 12.5t10.5 5.5h85q13 0 18 -3.5t10 -13.5l81 -156l57 -110h6l60 113l81 150q5 11 10.5 15.5t17.5 4.5h82q10 0 12.5 -5t-1.5 -13l-211 -372v-254q0 -8 -3.5 -13.5t-14.5 -5.5h-74q-20 0 -20 19v254zM185 706q-19 0 -30 4.5t-16.5 12t-7 17.5
t-1.5 21q0 23 10 38t45 15t45 -14.5t10 -38.5q0 -23 -10 -39t-45 -16zM372 706q-19 0 -30 4.5t-17 12t-7.5 17.5t-1.5 21q0 23 10.5 38t45.5 15t45 -14.5t10 -38.5q0 -23 -10 -39t-45 -16z" />
    <glyph glyph-name="Agrave" unicode="&#xc0;" horiz-adv-x="579" 
d="M129 21q-4 -12 -10 -16.5t-17 -4.5h-78q-18 0 -11 20l202 622q4 11 9 16t19 5h87q14 0 19 -5.5t8 -15.5l206 -624q5 -18 -10 -18h-88q-12 0 -16.5 5t-8.5 16l-42 144h-224zM329 401l-41 144h-4l-40 -142l-42 -144h169zM160 855q5 5 10 7.5t12 -3.5l137 -108q13 -8 4 -17
l-28 -34q-5 -6 -10 -5.5t-10 2.5l-150 85q-7 4 -9.5 9.5t3.5 11.5z" />
    <glyph glyph-name="Aacute" unicode="&#xc1;" horiz-adv-x="579" 
d="M129 21q-4 -12 -10 -16.5t-17 -4.5h-78q-18 0 -11 20l202 622q4 11 9 16t19 5h87q14 0 19 -5.5t8 -15.5l206 -624q5 -18 -10 -18h-88q-12 0 -16.5 5t-8.5 16l-42 144h-224zM329 401l-41 144h-4l-40 -142l-42 -144h169zM448 798q5 -7 2.5 -12.5t-9.5 -8.5l-155 -76
q-5 -2 -10 -2t-10 6l-26 35q-7 10 5 18l143 100q8 5 12.5 2.5t9.5 -7.5z" />
    <glyph glyph-name="Acircumflex" unicode="&#xc2;" horiz-adv-x="579" 
d="M129 21q-4 -12 -10 -16.5t-17 -4.5h-78q-18 0 -11 20l202 622q4 11 9 16t19 5h87q14 0 19 -5.5t8 -15.5l206 -624q5 -18 -10 -18h-88q-12 0 -16.5 5t-8.5 16l-42 144h-224zM329 401l-41 144h-4l-40 -142l-42 -144h169zM161 697q-8 -6 -12.5 -6.5t-10.5 5.5l-25 26
q-5 5 -5.5 8.5t5.5 10.5l111 104q8 7 14.5 10.5t18.5 3.5h54q14 0 20 -3t14 -9l110 -103q7 -6 6 -11t-6 -10l-25 -25q-6 -6 -10 -5.5t-11 5.5l-126 85z" />
    <glyph glyph-name="Atilde" unicode="&#xc3;" horiz-adv-x="579" 
d="M129 21q-4 -12 -10 -16.5t-17 -4.5h-78q-18 0 -11 20l202 622q4 11 9 16t19 5h87q14 0 19 -5.5t8 -15.5l206 -624q5 -18 -10 -18h-88q-12 0 -16.5 5t-8.5 16l-42 144h-224zM329 401l-41 144h-4l-40 -142l-42 -144h169zM363 695q-17 0 -37.5 8t-41.5 17.5t-41 17.5t-35 8
q-11 0 -25 -6t-30 -32q-4 -6 -7.5 -7.5t-13.5 3.5l-28 12q-11 4 -6 19q20 53 51 74t59 21q20 0 41 -8t41.5 -17t38.5 -17t33 -8q32 0 52 37q4 6 8.5 8t13.5 -2l28 -13q8 -3 8.5 -8t-1.5 -11q-20 -52 -47 -74t-61 -22z" />
    <glyph glyph-name="Adieresis" unicode="&#xc4;" horiz-adv-x="579" 
d="M129 21q-4 -12 -10 -16.5t-17 -4.5h-78q-18 0 -11 20l202 622q4 11 9 16t19 5h87q14 0 19 -5.5t8 -15.5l206 -624q5 -18 -10 -18h-88q-12 0 -16.5 5t-8.5 16l-42 144h-224zM329 401l-41 144h-4l-40 -142l-42 -144h169zM192 706q-19 0 -30 4.5t-16.5 12t-7 17.5t-1.5 21
q0 23 10 38t45 15t45 -14.5t10 -38.5q0 -23 -10 -39t-45 -16zM379 706q-19 0 -30 4.5t-17 12t-7.5 17.5t-1.5 21q0 23 10.5 38t45.5 15t45 -14.5t10 -38.5q0 -23 -10 -39t-45 -16z" />
    <glyph glyph-name="Aring" unicode="&#xc5;" horiz-adv-x="579" 
d="M129 21q-4 -12 -10 -16.5t-17 -4.5h-78q-18 0 -11 20l202 622q4 11 9 16t19 5h87q14 0 19 -5.5t8 -15.5l206 -624q5 -18 -10 -18h-88q-12 0 -16.5 5t-8.5 16l-42 144h-224zM329 401l-41 144h-4l-40 -142l-42 -144h169zM285 675q-22 0 -42 8t-35.5 22.5t-25 34t-9.5 43.5
q0 23 9.5 42.5t25 34t35.5 22.5t42 8q23 0 43 -8.5t35 -23.5t23.5 -34.5t8.5 -40.5q0 -22 -8.5 -41.5t-23.5 -34.5t-35 -23.5t-43 -8.5zM285 832q-19 0 -33 -15t-14 -34q0 -22 13 -36t34 -14q20 0 33.5 14.5t13.5 35.5q0 19 -13.5 34t-33.5 15z" />
    <glyph glyph-name="Ccedilla" unicode="&#xc7;" horiz-adv-x="562" 
d="M335 -119q0 20 -15 25t-53 7q-22 2 -14 23l21 60q-65 10 -106 41t-64.5 76t-32.5 100t-9 113q0 64 10 126t39.5 110.5t82 78.5t138.5 30q18 0 41.5 -1.5t48.5 -5t49 -9t44 -13.5q12 -5 16.5 -12t2.5 -19l-9 -41q-2 -9 -7 -13t-19 -2q-37 5 -79.5 9t-81.5 4q-51 0 -82 -19
t-47.5 -52t-21.5 -76.5t-5 -92.5t6 -92t23 -74.5t47.5 -49.5t79.5 -18q44 0 82 4t79 9q14 2 19 -2t8 -14l8 -38q6 -22 -17 -32q-18 -8 -42.5 -13.5t-50 -9.5t-50 -5.5t-42.5 -1.5q-3 0 -5.5 0.5t-5.5 0.5l-14 -38q30 -1 49 -7t29.5 -16t14.5 -22.5t4 -26.5q0 -42 -30 -66
t-89 -24q-14 0 -36.5 3t-39.5 8q-10 3 -8 12l7 28q1 7 11 6q14 -2 31 -4t29 -2q23 0 39.5 6.5t16.5 31.5z" />
    <glyph glyph-name="Egrave" unicode="&#xc8;" horiz-adv-x="528" 
d="M71 644q0 20 20 20h368q19 0 19 -19v-62q0 -18 -20 -18h-273v-172h242q20 0 20 -18v-62q0 -18 -20 -18h-242v-197h280q18 0 18 -19v-61q0 -18 -19 -18h-373q-20 0 -20 18v626zM159 855q5 5 10 7.5t12 -3.5l137 -108q13 -8 4 -17l-28 -34q-5 -6 -10 -5.5t-10 2.5l-150 85
q-7 4 -9.5 9.5t3.5 11.5z" />
    <glyph glyph-name="Eacute" unicode="&#xc9;" horiz-adv-x="528" 
d="M71 644q0 20 20 20h368q19 0 19 -19v-62q0 -18 -20 -18h-273v-172h242q20 0 20 -18v-62q0 -18 -20 -18h-242v-197h280q18 0 18 -19v-61q0 -18 -19 -18h-373q-20 0 -20 18v626zM416 798q5 -7 2.5 -12.5t-9.5 -8.5l-155 -76q-5 -2 -10 -2t-10 6l-26 35q-7 10 5 18l143 100
q8 5 12.5 2.5t9.5 -7.5z" />
    <glyph glyph-name="Ecircumflex" unicode="&#xca;" horiz-adv-x="528" 
d="M71 644q0 20 20 20h368q19 0 19 -19v-62q0 -18 -20 -18h-273v-172h242q20 0 20 -18v-62q0 -18 -20 -18h-242v-197h280q18 0 18 -19v-61q0 -18 -19 -18h-373q-20 0 -20 18v626zM152 697q-8 -6 -12.5 -6.5t-10.5 5.5l-25 26q-5 5 -5.5 8.5t5.5 10.5l111 104q8 7 14.5 10.5
t18.5 3.5h54q14 0 20 -3t14 -9l110 -103q7 -6 6 -11t-6 -10l-25 -25q-6 -6 -10 -5.5t-11 5.5l-126 85z" />
    <glyph glyph-name="Edieresis" unicode="&#xcb;" horiz-adv-x="528" 
d="M71 644q0 20 20 20h368q19 0 19 -19v-62q0 -18 -20 -18h-273v-172h242q20 0 20 -18v-62q0 -18 -20 -18h-242v-197h280q18 0 18 -19v-61q0 -18 -19 -18h-373q-20 0 -20 18v626zM182 706q-19 0 -30 4.5t-16.5 12t-7 17.5t-1.5 21q0 23 10 38t45 15t45 -14.5t10 -38.5
q0 -23 -10 -39t-45 -16zM369 706q-19 0 -30 4.5t-17 12t-7.5 17.5t-1.5 21q0 23 10.5 38t45.5 15t45 -14.5t10 -38.5q0 -23 -10 -39t-45 -16z" />
    <glyph glyph-name="Igrave" unicode="&#xcc;" horiz-adv-x="276" 
d="M80 644q0 20 19 20h76q19 0 19 -20v-625q0 -19 -19 -19h-76q-19 0 -19 19v625zM10 855q5 5 10 7.5t12 -3.5l137 -108q13 -8 4 -17l-28 -34q-5 -6 -10 -5.5t-10 2.5l-150 85q-7 4 -9.5 9.5t3.5 11.5z" />
    <glyph glyph-name="Iacute" unicode="&#xcd;" horiz-adv-x="276" 
d="M80 644q0 20 19 20h76q19 0 19 -20v-625q0 -19 -19 -19h-76q-19 0 -19 19v625zM302 798q5 -7 2.5 -12.5t-9.5 -8.5l-155 -76q-5 -2 -10 -2t-10 6l-26 35q-7 10 5 18l143 100q8 5 12.5 2.5t9.5 -7.5z" />
    <glyph glyph-name="Icircumflex" unicode="&#xce;" horiz-adv-x="276" 
d="M80 644q0 20 19 20h76q19 0 19 -20v-625q0 -19 -19 -19h-76q-19 0 -19 19v625zM18 697q-8 -6 -12.5 -6.5t-10.5 5.5l-25 26q-5 5 -5.5 8.5t5.5 10.5l111 104q8 7 14.5 10.5t18.5 3.5h54q14 0 20 -3t14 -9l110 -103q7 -6 6 -11t-6 -10l-25 -25q-6 -6 -10 -5.5t-11 5.5
l-126 85z" />
    <glyph glyph-name="Idieresis" unicode="&#xcf;" horiz-adv-x="276" 
d="M80 644q0 20 19 20h76q19 0 19 -20v-625q0 -19 -19 -19h-76q-19 0 -19 19v625zM44 706q-19 0 -30 4.5t-16.5 12t-7 17.5t-1.5 21q0 23 10 38t45 15t45 -14.5t10 -38.5q0 -23 -10 -39t-45 -16zM231 706q-19 0 -30 4.5t-17 12t-7.5 17.5t-1.5 21q0 23 10.5 38t45.5 15
t45 -14.5t10 -38.5q0 -23 -10 -39t-45 -16z" />
    <glyph glyph-name="Eth" unicode="&#xd0;" horiz-adv-x="631" 
d="M92 0q-13 0 -17.5 5t-4.5 14v279h-60q-17 0 -17 15v49q0 17 17 17h60v265q0 19 19 19h203q83 0 137 -26.5t85.5 -71.5t44 -105t12.5 -127q0 -68 -12 -128.5t-43 -106t-85.5 -72t-138.5 -26.5h-200zM183 298v-199h97q34 0 65 9t55 34t38.5 69.5t14.5 114.5t-12.5 116.5
t-34.5 73.5t-52.5 38t-66.5 11h-104v-186h100q17 0 17 -16v-50q0 -15 -17 -15h-100z" />
    <glyph glyph-name="Ntilde" unicode="&#xd1;" horiz-adv-x="647" 
d="M183 457h-3v-438q0 -19 -19 -19h-72q-20 0 -20 19v626q0 18 19 18h57q23 0 30.5 -10t17.5 -24l126 -196l144 -225h3v435q0 10 4 15t15 5h72q19 0 19 -20v-625q0 -18 -19 -18h-57q-14 0 -20.5 4.5t-12.5 14.5l-217 331zM400 690q-17 0 -37.5 8t-41.5 17.5t-41 17.5t-35 8
q-11 0 -25 -6t-30 -32q-4 -6 -7.5 -7.5t-13.5 3.5l-28 12q-11 4 -6 19q20 53 51 74t59 21q20 0 41 -8t41.5 -17t38.5 -17t33 -8q32 0 52 37q4 6 8.5 8t13.5 -2l28 -13q8 -3 8.5 -8t-1.5 -11q-20 -52 -47 -74t-61 -22z" />
    <glyph glyph-name="Ograve" unicode="&#xd2;" horiz-adv-x="660" 
d="M600 341q0 -58 -8 -120t-35.5 -113t-82 -84t-147.5 -33q-61 0 -104.5 15t-73.5 41t-47.5 60.5t-26.5 73.5t-12 80t-3 80q0 30 3 66.5t13 73t28 71t48 61.5t73 43t103 16q89 0 143 -29t82.5 -76.5t37.5 -106.5t9 -119zM485 331q0 60 -7.5 105.5t-25.5 76t-48 46t-76 15.5
q-43 0 -71.5 -16.5t-46 -47.5t-25 -76t-7.5 -103q0 -56 6.5 -101t23.5 -76t46 -47.5t74 -16.5q46 0 76 16t48 46.5t25.5 75.5t7.5 103zM259 855q5 5 10 7.5t12 -3.5l137 -108q13 -8 4 -17l-28 -34q-5 -6 -10 -5.5t-10 2.5l-150 85q-7 4 -9.5 9.5t3.5 11.5z" />
    <glyph glyph-name="Oacute" unicode="&#xd3;" horiz-adv-x="660" 
d="M600 341q0 -58 -8 -120t-35.5 -113t-82 -84t-147.5 -33q-61 0 -104.5 15t-73.5 41t-47.5 60.5t-26.5 73.5t-12 80t-3 80q0 30 3 66.5t13 73t28 71t48 61.5t73 43t103 16q89 0 143 -29t82.5 -76.5t37.5 -106.5t9 -119zM485 331q0 60 -7.5 105.5t-25.5 76t-48 46t-76 15.5
q-43 0 -71.5 -16.5t-46 -47.5t-25 -76t-7.5 -103q0 -56 6.5 -101t23.5 -76t46 -47.5t74 -16.5q46 0 76 16t48 46.5t25.5 75.5t7.5 103zM475 798q5 -7 2.5 -12.5t-9.5 -8.5l-155 -76q-5 -2 -10 -2t-10 6l-26 35q-7 10 5 18l143 100q8 5 12.5 2.5t9.5 -7.5z" />
    <glyph glyph-name="Ocircumflex" unicode="&#xd4;" horiz-adv-x="660" 
d="M600 341q0 -58 -8 -120t-35.5 -113t-82 -84t-147.5 -33q-61 0 -104.5 15t-73.5 41t-47.5 60.5t-26.5 73.5t-12 80t-3 80q0 30 3 66.5t13 73t28 71t48 61.5t73 43t103 16q89 0 143 -29t82.5 -76.5t37.5 -106.5t9 -119zM485 331q0 60 -7.5 105.5t-25.5 76t-48 46t-76 15.5
q-43 0 -71.5 -16.5t-46 -47.5t-25 -76t-7.5 -103q0 -56 6.5 -101t23.5 -76t46 -47.5t74 -16.5q46 0 76 16t48 46.5t25.5 75.5t7.5 103zM210 697q-8 -6 -12.5 -6.5t-10.5 5.5l-25 26q-5 5 -5.5 8.5t5.5 10.5l111 104q8 7 14.5 10.5t18.5 3.5h54q14 0 20 -3t14 -9l110 -103
q7 -6 6 -11t-6 -10l-25 -25q-6 -6 -10 -5.5t-11 5.5l-126 85z" />
    <glyph glyph-name="Otilde" unicode="&#xd5;" horiz-adv-x="660" 
d="M600 341q0 -58 -8 -120t-35.5 -113t-82 -84t-147.5 -33q-61 0 -104.5 15t-73.5 41t-47.5 60.5t-26.5 73.5t-12 80t-3 80q0 30 3 66.5t13 73t28 71t48 61.5t73 43t103 16q89 0 143 -29t82.5 -76.5t37.5 -106.5t9 -119zM485 331q0 60 -7.5 105.5t-25.5 76t-48 46t-76 15.5
q-43 0 -71.5 -16.5t-46 -47.5t-25 -76t-7.5 -103q0 -56 6.5 -101t23.5 -76t46 -47.5t74 -16.5q46 0 76 16t48 46.5t25.5 75.5t7.5 103zM411 698q-17 0 -37.5 8t-41.5 17.5t-41 17.5t-35 8q-11 0 -25 -6t-30 -32q-4 -6 -7.5 -7.5t-13.5 3.5l-28 12q-11 4 -6 19q20 53 51 74
t59 21q20 0 41 -8t41.5 -17t38.5 -17t33 -8q32 0 52 37q4 6 8.5 8t13.5 -2l28 -13q8 -3 8.5 -8t-1.5 -11q-20 -52 -47 -74t-61 -22z" />
    <glyph glyph-name="Odieresis" unicode="&#xd6;" horiz-adv-x="660" 
d="M600 341q0 -58 -8 -120t-35.5 -113t-82 -84t-147.5 -33q-61 0 -104.5 15t-73.5 41t-47.5 60.5t-26.5 73.5t-12 80t-3 80q0 30 3 66.5t13 73t28 71t48 61.5t73 43t103 16q89 0 143 -29t82.5 -76.5t37.5 -106.5t9 -119zM485 331q0 60 -7.5 105.5t-25.5 76t-48 46t-76 15.5
q-43 0 -71.5 -16.5t-46 -47.5t-25 -76t-7.5 -103q0 -56 6.5 -101t23.5 -76t46 -47.5t74 -16.5q46 0 76 16t48 46.5t25.5 75.5t7.5 103zM239 706q-19 0 -30 4.5t-16.5 12t-7 17.5t-1.5 21q0 23 10 38t45 15t45 -14.5t10 -38.5q0 -23 -10 -39t-45 -16zM426 706q-19 0 -30 4.5
t-17 12t-7.5 17.5t-1.5 21q0 23 10.5 38t45.5 15t45 -14.5t10 -38.5q0 -23 -10 -39t-45 -16z" />
    <glyph glyph-name="Ugrave" unicode="&#xd9;" horiz-adv-x="628" 
d="M314 92q66 0 100.5 36.5t34.5 114.5v401q0 20 20 20h75q11 0 14.5 -5.5t3.5 -14.5l-1 -401q0 -30 -3.5 -59.5t-14.5 -58.5q-15 -36 -38.5 -61t-53.5 -41t-65 -23.5t-72 -7.5q-158 0 -216 111q-16 30 -23 65.5t-7 74.5v401q0 20 19 20h75q19 0 19 -20v-401
q0 -74 33.5 -112.5t99.5 -38.5zM214 855q5 5 10 7.5t12 -3.5l137 -108q13 -8 4 -17l-28 -34q-5 -6 -10 -5.5t-10 2.5l-150 85q-7 4 -9.5 9.5t3.5 11.5z" />
    <glyph glyph-name="Uacute" unicode="&#xda;" horiz-adv-x="628" 
d="M314 92q66 0 100.5 36.5t34.5 114.5v401q0 20 20 20h75q11 0 14.5 -5.5t3.5 -14.5l-1 -401q0 -30 -3.5 -59.5t-14.5 -58.5q-15 -36 -38.5 -61t-53.5 -41t-65 -23.5t-72 -7.5q-158 0 -216 111q-16 30 -23 65.5t-7 74.5v401q0 20 19 20h75q19 0 19 -20v-401
q0 -74 33.5 -112.5t99.5 -38.5zM465 798q5 -7 2.5 -12.5t-9.5 -8.5l-155 -76q-5 -2 -10 -2t-10 6l-26 35q-7 10 5 18l143 100q8 5 12.5 2.5t9.5 -7.5z" />
    <glyph glyph-name="Ucircumflex" unicode="&#xdb;" horiz-adv-x="628" 
d="M314 92q66 0 100.5 36.5t34.5 114.5v401q0 20 20 20h75q11 0 14.5 -5.5t3.5 -14.5l-1 -401q0 -30 -3.5 -59.5t-14.5 -58.5q-15 -36 -38.5 -61t-53.5 -41t-65 -23.5t-72 -7.5q-158 0 -216 111q-16 30 -23 65.5t-7 74.5v401q0 20 19 20h75q19 0 19 -20v-401
q0 -74 33.5 -112.5t99.5 -38.5zM194 697q-8 -6 -12.5 -6.5t-10.5 5.5l-25 26q-5 5 -5.5 8.5t5.5 10.5l111 104q8 7 14.5 10.5t18.5 3.5h54q14 0 20 -3t14 -9l110 -103q7 -6 6 -11t-6 -10l-25 -25q-6 -6 -10 -5.5t-11 5.5l-126 85z" />
    <glyph glyph-name="Udieresis" unicode="&#xdc;" horiz-adv-x="628" 
d="M314 92q66 0 100.5 36.5t34.5 114.5v401q0 20 20 20h75q11 0 14.5 -5.5t3.5 -14.5l-1 -401q0 -30 -3.5 -59.5t-14.5 -58.5q-15 -36 -38.5 -61t-53.5 -41t-65 -23.5t-72 -7.5q-158 0 -216 111q-16 30 -23 65.5t-7 74.5v401q0 20 19 20h75q19 0 19 -20v-401
q0 -74 33.5 -112.5t99.5 -38.5zM219 706q-19 0 -30 4.5t-16.5 12t-7 17.5t-1.5 21q0 23 10 38t45 15t45 -14.5t10 -38.5q0 -23 -10 -39t-45 -16zM406 706q-19 0 -30 4.5t-17 12t-7.5 17.5t-1.5 21q0 23 10.5 38t45.5 15t45 -14.5t10 -38.5q0 -23 -10 -39t-45 -16z" />
    <glyph glyph-name="Yacute" unicode="&#xdd;" horiz-adv-x="560" 
d="M221 273l-206 372q-3 7 -0.5 12.5t10.5 5.5h85q13 0 18 -3.5t10 -13.5l81 -156l57 -110h6l60 113l81 150q5 11 10.5 15.5t17.5 4.5h82q10 0 12.5 -5t-1.5 -13l-211 -372v-254q0 -8 -3.5 -13.5t-14.5 -5.5h-74q-20 0 -20 19v254zM435 798q5 -7 2.5 -12.5t-9.5 -8.5
l-155 -76q-5 -2 -10 -2t-10 6l-26 35q-7 10 5 18l143 100q8 5 12.5 2.5t9.5 -7.5z" />
    <glyph glyph-name="agrave" unicode="&#xe0;" horiz-adv-x="540" 
d="M357 223h-122q-38 0 -60 -17.5t-22 -66.5q0 -33 13.5 -45.5t48.5 -12.5q16 0 35 4t38 11t37 15.5t32 16.5v95zM363 57q-38 -29 -85.5 -47t-98.5 -18q-40 0 -66.5 10.5t-42 29t-22 44.5t-6.5 58q-1 88 46 127.5t142 39.5h128v26q0 22 -4.5 37.5t-16.5 25.5t-32 14t-51 4
q-12 0 -29.5 -1t-36 -2t-37 -3t-33.5 -3q-15 -2 -20.5 -0.5t-7.5 12.5l-9 37q-2 10 2 16.5t21 13.5q16 6 38 10t45 6.5t45.5 4t40.5 1.5q65 0 103.5 -13t58.5 -36.5t26 -57.5t6 -76v-193q0 -15 1.5 -23.5t5 -13t10.5 -6.5t19 -3q11 -1 15 -4t4 -11v-42q0 -17 -24 -21
q-12 -2 -24 -3.5t-23 -1.5q-35 0 -56.5 13t-29.5 48zM223 738q7 3 12 3t10 -8l88 -150q8 -12 -3 -18l-37 -24q-10 -6 -19 4l-110 137q-5 5 -5 10.5t8 10.5z" />
    <glyph glyph-name="aacute" unicode="&#xe1;" horiz-adv-x="540" 
d="M357 223h-122q-38 0 -60 -17.5t-22 -66.5q0 -33 13.5 -45.5t48.5 -12.5q16 0 35 4t38 11t37 15.5t32 16.5v95zM363 57q-38 -29 -85.5 -47t-98.5 -18q-40 0 -66.5 10.5t-42 29t-22 44.5t-6.5 58q-1 88 46 127.5t142 39.5h128v26q0 22 -4.5 37.5t-16.5 25.5t-32 14t-51 4
q-12 0 -29.5 -1t-36 -2t-37 -3t-33.5 -3q-15 -2 -20.5 -0.5t-7.5 12.5l-9 37q-2 10 2 16.5t21 13.5q16 6 38 10t45 6.5t45.5 4t40.5 1.5q65 0 103.5 -13t58.5 -36.5t26 -57.5t6 -76v-193q0 -15 1.5 -23.5t5 -13t10.5 -6.5t19 -3q11 -1 15 -4t4 -11v-42q0 -17 -24 -21
q-12 -2 -24 -3.5t-23 -1.5q-35 0 -56.5 13t-29.5 48zM402 709q15 -8 4 -22l-102 -140q-8 -11 -19 -6l-39 18q-11 6 -5 19l80 155q6 13 22 6z" />
    <glyph glyph-name="acircumflex" unicode="&#xe2;" horiz-adv-x="540" 
d="M357 223h-122q-38 0 -60 -17.5t-22 -66.5q0 -33 13.5 -45.5t48.5 -12.5q16 0 35 4t38 11t37 15.5t32 16.5v95zM363 57q-38 -29 -85.5 -47t-98.5 -18q-40 0 -66.5 10.5t-42 29t-22 44.5t-6.5 58q-1 88 46 127.5t142 39.5h128v26q0 22 -4.5 37.5t-16.5 25.5t-32 14t-51 4
q-12 0 -29.5 -1t-36 -2t-37 -3t-33.5 -3q-15 -2 -20.5 -0.5t-7.5 12.5l-9 37q-2 10 2 16.5t21 13.5q16 6 38 10t45 6.5t45.5 4t40.5 1.5q65 0 103.5 -13t58.5 -36.5t26 -57.5t6 -76v-193q0 -15 1.5 -23.5t5 -13t10.5 -6.5t19 -3q11 -1 15 -4t4 -11v-42q0 -17 -24 -21
q-12 -2 -24 -3.5t-23 -1.5q-35 0 -56.5 13t-29.5 48zM151 538q-8 -7 -12 -7.5t-11 5.5l-27 25q-6 5 -6 8.5t6 10.5l106 125q6 8 12 11t20 3h55q16 0 22 -2.5t11 -9.5l105 -127q11 -11 1 -20l-27 -24q-12 -9 -22 0l-119 105z" />
    <glyph glyph-name="atilde" unicode="&#xe3;" horiz-adv-x="540" 
d="M357 223h-122q-38 0 -60 -17.5t-22 -66.5q0 -33 13.5 -45.5t48.5 -12.5q16 0 35 4t38 11t37 15.5t32 16.5v95zM363 57q-38 -29 -85.5 -47t-98.5 -18q-40 0 -66.5 10.5t-42 29t-22 44.5t-6.5 58q-1 88 46 127.5t142 39.5h128v26q0 22 -4.5 37.5t-16.5 25.5t-32 14t-51 4
q-12 0 -29.5 -1t-36 -2t-37 -3t-33.5 -3q-15 -2 -20.5 -0.5t-7.5 12.5l-9 37q-2 10 2 16.5t21 13.5q16 6 38 10t45 6.5t45.5 4t40.5 1.5q65 0 103.5 -13t58.5 -36.5t26 -57.5t6 -76v-193q0 -15 1.5 -23.5t5 -13t10.5 -6.5t19 -3q11 -1 15 -4t4 -11v-42q0 -17 -24 -21
q-12 -2 -24 -3.5t-23 -1.5q-35 0 -56.5 13t-29.5 48zM352 548q-17 0 -37.5 8t-41.5 17.5t-41 17.5t-35 8q-11 0 -25 -6t-30 -32q-4 -6 -7.5 -7.5t-13.5 3.5l-28 12q-11 4 -6 19q20 53 51 74t59 21q20 0 41 -8t41.5 -17t38.5 -17t33 -8q32 0 52 37q4 6 8.5 8t13.5 -2l28 -13
q8 -3 8.5 -8t-1.5 -11q-20 -52 -47 -74t-61 -22z" />
    <glyph glyph-name="adieresis" unicode="&#xe4;" horiz-adv-x="540" 
d="M357 223h-122q-38 0 -60 -17.5t-22 -66.5q0 -33 13.5 -45.5t48.5 -12.5q16 0 35 4t38 11t37 15.5t32 16.5v95zM363 57q-38 -29 -85.5 -47t-98.5 -18q-40 0 -66.5 10.5t-42 29t-22 44.5t-6.5 58q-1 88 46 127.5t142 39.5h128v26q0 22 -4.5 37.5t-16.5 25.5t-32 14t-51 4
q-12 0 -29.5 -1t-36 -2t-37 -3t-33.5 -3q-15 -2 -20.5 -0.5t-7.5 12.5l-9 37q-2 10 2 16.5t21 13.5q16 6 38 10t45 6.5t45.5 4t40.5 1.5q65 0 103.5 -13t58.5 -36.5t26 -57.5t6 -76v-193q0 -15 1.5 -23.5t5 -13t10.5 -6.5t19 -3q11 -1 15 -4t4 -11v-42q0 -17 -24 -21
q-12 -2 -24 -3.5t-23 -1.5q-35 0 -56.5 13t-29.5 48zM182 557q-19 0 -30 4.5t-17 12.5t-7.5 18t-1.5 21q0 23 10.5 38t45.5 15t45 -14.5t10 -38.5q0 -23 -10 -39.5t-45 -16.5zM376 557q-36 0 -45.5 17t-9.5 39q0 23 11 38t44 15q35 0 45.5 -14.5t10.5 -38.5q0 -23 -10 -39.5
t-46 -16.5z" />
    <glyph glyph-name="aring" unicode="&#xe5;" horiz-adv-x="540" 
d="M357 223h-122q-38 0 -60 -17.5t-22 -66.5q0 -33 13.5 -45.5t48.5 -12.5q16 0 35 4t38 11t37 15.5t32 16.5v95zM363 57q-38 -29 -85.5 -47t-98.5 -18q-40 0 -66.5 10.5t-42 29t-22 44.5t-6.5 58q-1 88 46 127.5t142 39.5h128v26q0 22 -4.5 37.5t-16.5 25.5t-32 14t-51 4
q-12 0 -29.5 -1t-36 -2t-37 -3t-33.5 -3q-15 -2 -20.5 -0.5t-7.5 12.5l-9 37q-2 10 2 16.5t21 13.5q16 6 38 10t45 6.5t45.5 4t40.5 1.5q65 0 103.5 -13t58.5 -36.5t26 -57.5t6 -76v-193q0 -15 1.5 -23.5t5 -13t10.5 -6.5t19 -3q11 -1 15 -4t4 -11v-42q0 -17 -24 -21
q-12 -2 -24 -3.5t-23 -1.5q-35 0 -56.5 13t-29.5 48zM276 524q-22 0 -42 8t-35.5 22.5t-25 34t-9.5 43.5q0 23 9.5 42.5t25 34t35.5 22.5t42 8q23 0 43 -8.5t35 -23.5t23.5 -34.5t8.5 -40.5q0 -22 -8.5 -41.5t-23.5 -34.5t-35 -23.5t-43 -8.5zM276 681q-19 0 -33 -15
t-14 -34q0 -22 13 -36t34 -14q20 0 33.5 14.5t13.5 35.5q0 19 -13.5 34t-33.5 15z" />
    <glyph glyph-name="ccedilla" unicode="&#xe7;" horiz-adv-x="448" 
d="M279 -119q0 20 -15 25t-53 7q-22 2 -14 23l20 58q-57 6 -91 28.5t-52.5 57t-24.5 78t-6 90.5q0 46 7.5 91.5t30 81t65 57.5t111.5 22q17 0 37.5 -1t41 -4t40 -7.5t35.5 -11.5q18 -8 15 -28l-7 -40q-3 -11 -10 -13t-21 -1q-31 3 -63.5 6t-58.5 3q-61 0 -85 -35t-24 -118
q0 -47 5.5 -78t18.5 -50t33.5 -26.5t50.5 -7.5q23 0 60.5 2.5t68.5 6.5q12 2 18 0t8 -15l6 -36q3 -11 0 -18t-17 -13q-27 -11 -67.5 -16.5t-76.5 -6.5l-14 -38q30 -1 49 -7t29.5 -16t14.5 -22.5t4 -26.5q0 -42 -30 -66t-89 -24q-14 0 -36.5 3t-39.5 8q-10 3 -8 12l7 28
q1 7 11 6q14 -2 31 -4t29 -2q23 0 39.5 6.5t16.5 31.5z" />
    <glyph glyph-name="egrave" unicode="&#xe8;" horiz-adv-x="508" 
d="M157 215q1 -38 8.5 -63t22.5 -39.5t37 -20.5t53 -6q27 0 64 4t66 7q14 2 19.5 -0.5t7.5 -16.5l6 -33q2 -11 -0.5 -18t-16.5 -13q-15 -6 -35 -10.5t-42 -7.5t-44 -5t-40 -2q-72 0 -115 21t-66 56t-30.5 80.5t-7.5 94.5q0 36 6 81t27.5 84t64 65.5t115.5 26.5
q67 0 108.5 -20t64.5 -51.5t31.5 -72t9.5 -80.5q1 -27 -9 -44t-40 -17h-265zM257 410q-28 0 -46 -8t-29.5 -23.5t-16.5 -38t-7 -50.5h198q0 23 -4 44.5t-14.5 38.5t-30 27t-50.5 10zM203 738q7 3 12 3t10 -8l88 -150q8 -12 -3 -18l-37 -24q-10 -6 -19 4l-110 137
q-5 5 -5 10.5t8 10.5z" />
    <glyph glyph-name="eacute" unicode="&#xe9;" horiz-adv-x="508" 
d="M157 215q1 -38 8.5 -63t22.5 -39.5t37 -20.5t53 -6q27 0 64 4t66 7q14 2 19.5 -0.5t7.5 -16.5l6 -33q2 -11 -0.5 -18t-16.5 -13q-15 -6 -35 -10.5t-42 -7.5t-44 -5t-40 -2q-72 0 -115 21t-66 56t-30.5 80.5t-7.5 94.5q0 36 6 81t27.5 84t64 65.5t115.5 26.5
q67 0 108.5 -20t64.5 -51.5t31.5 -72t9.5 -80.5q1 -27 -9 -44t-40 -17h-265zM257 410q-28 0 -46 -8t-29.5 -23.5t-16.5 -38t-7 -50.5h198q0 23 -4 44.5t-14.5 38.5t-30 27t-50.5 10zM390 709q15 -8 4 -22l-102 -140q-8 -11 -19 -6l-39 18q-11 6 -5 19l80 155q6 13 22 6z" />
    <glyph glyph-name="ecircumflex" unicode="&#xea;" horiz-adv-x="508" 
d="M157 215q1 -38 8.5 -63t22.5 -39.5t37 -20.5t53 -6q27 0 64 4t66 7q14 2 19.5 -0.5t7.5 -16.5l6 -33q2 -11 -0.5 -18t-16.5 -13q-15 -6 -35 -10.5t-42 -7.5t-44 -5t-40 -2q-72 0 -115 21t-66 56t-30.5 80.5t-7.5 94.5q0 36 6 81t27.5 84t64 65.5t115.5 26.5
q67 0 108.5 -20t64.5 -51.5t31.5 -72t9.5 -80.5q1 -27 -9 -44t-40 -17h-265zM257 410q-28 0 -46 -8t-29.5 -23.5t-16.5 -38t-7 -50.5h198q0 23 -4 44.5t-14.5 38.5t-30 27t-50.5 10zM145 538q-8 -7 -12 -7.5t-11 5.5l-27 25q-6 5 -6 8.5t6 10.5l106 125q6 8 12 11t20 3h55
q16 0 22 -2.5t11 -9.5l105 -127q11 -11 1 -20l-27 -24q-12 -9 -22 0l-119 105z" />
    <glyph glyph-name="edieresis" unicode="&#xeb;" horiz-adv-x="508" 
d="M157 215q1 -38 8.5 -63t22.5 -39.5t37 -20.5t53 -6q27 0 64 4t66 7q14 2 19.5 -0.5t7.5 -16.5l6 -33q2 -11 -0.5 -18t-16.5 -13q-15 -6 -35 -10.5t-42 -7.5t-44 -5t-40 -2q-72 0 -115 21t-66 56t-30.5 80.5t-7.5 94.5q0 36 6 81t27.5 84t64 65.5t115.5 26.5
q67 0 108.5 -20t64.5 -51.5t31.5 -72t9.5 -80.5q1 -27 -9 -44t-40 -17h-265zM257 410q-28 0 -46 -8t-29.5 -23.5t-16.5 -38t-7 -50.5h198q0 23 -4 44.5t-14.5 38.5t-30 27t-50.5 10zM166 557q-19 0 -30 4.5t-17 12.5t-7.5 18t-1.5 21q0 23 10.5 38t45.5 15t45 -14.5
t10 -38.5q0 -23 -10 -39.5t-45 -16.5zM360 557q-36 0 -45.5 17t-9.5 39q0 23 11 38t44 15q35 0 45.5 -14.5t10.5 -38.5q0 -23 -10 -39.5t-46 -16.5z" />
    <glyph glyph-name="igrave" unicode="&#xec;" horiz-adv-x="243" 
d="M176 19q0 -8 -3.5 -13.5t-14.5 -5.5h-71q-20 0 -20 19v452q0 19 20 19h71q11 0 14.5 -5.5t3.5 -13.5v-452zM47 738q7 3 12 3t10 -8l88 -150q8 -12 -3 -18l-37 -24q-10 -6 -19 4l-110 137q-5 5 -5 10.5t8 10.5z" />
    <glyph glyph-name="iacute" unicode="&#xed;" horiz-adv-x="243" 
d="M176 19q0 -8 -3.5 -13.5t-14.5 -5.5h-71q-20 0 -20 19v452q0 19 20 19h71q11 0 14.5 -5.5t3.5 -13.5v-452zM256 709q15 -8 4 -22l-102 -140q-8 -11 -19 -6l-39 18q-11 6 -5 19l80 155q6 13 22 6z" />
    <glyph glyph-name="icircumflex" unicode="&#xee;" horiz-adv-x="324" 
d="M215 19q0 -8 -3.5 -13.5t-14.5 -5.5h-71q-20 0 -20 19v452q0 19 20 19h71q11 0 14.5 -5.5t3.5 -13.5v-452zM46 538q-8 -7 -12 -7.5t-11 5.5l-27 25q-6 5 -6 8.5t6 10.5l106 125q6 8 12 11t20 3h55q16 0 22 -2.5t11 -9.5l105 -127q11 -11 1 -20l-27 -24q-12 -9 -22 0
l-119 105z" />
    <glyph glyph-name="idieresis" unicode="&#xef;" horiz-adv-x="286" 
d="M197 19q0 -8 -3.5 -13.5t-14.5 -5.5h-71q-20 0 -20 19v452q0 19 20 19h71q11 0 14.5 -5.5t3.5 -13.5v-452zM46 557q-19 0 -30 4.5t-17 12.5t-7.5 18t-1.5 21q0 23 10.5 38t45.5 15t45 -14.5t10 -38.5q0 -23 -10 -39.5t-45 -16.5zM240 557q-36 0 -45.5 17t-9.5 39
q0 23 11 38t44 15q35 0 45.5 -14.5t10.5 -38.5q0 -23 -10 -39.5t-46 -16.5z" />
    <glyph glyph-name="ntilde" unicode="&#xf1;" horiz-adv-x="528" 
d="M477 19q0 -9 -4 -14t-15 -5h-72q-19 0 -19 19l1 281q0 44 -14.5 71t-57.5 27q-15 0 -34.5 -5t-39 -12.5t-36.5 -15t-27 -12.5v-334q0 -19 -19 -19h-71q-19 0 -19 19v451q0 20 19 20h71q19 0 19 -20v-30q1 0 1.5 -0.5t1.5 -0.5q14 10 33.5 20.5t41.5 19.5t46 14.5t47 5.5
q51 0 80 -15.5t44 -41.5t19 -60.5t4 -72.5v-290zM338 548q-17 0 -37.5 8t-41.5 17.5t-41 17.5t-35 8q-11 0 -25 -6t-30 -32q-4 -6 -7.5 -7.5t-13.5 3.5l-28 12q-11 4 -6 19q20 53 51 74t59 21q20 0 41 -8t41.5 -17t38.5 -17t33 -8q32 0 52 37q4 6 8.5 8t13.5 -2l28 -13
q8 -3 8.5 -8t-1.5 -11q-20 -52 -47 -74t-61 -22z" />
    <glyph glyph-name="ograve" unicode="&#xf2;" horiz-adv-x="523" 
d="M479 253q0 -43 -5.5 -89t-27.5 -84.5t-66 -63t-122 -24.5q-75 0 -118 24.5t-64.5 63t-26.5 84.5t-5 89q0 35 6.5 78t28.5 80.5t64.5 63t114.5 25.5q73 0 116.5 -22t66.5 -57.5t30.5 -79.5t7.5 -88zM367 246q0 40 -4 69.5t-16 49t-33 29.5t-55 10q-32 0 -52 -10t-31.5 -30
t-16 -49.5t-4.5 -68.5q0 -40 4.5 -69.5t15.5 -49t31 -29.5t52 -10q34 0 55.5 9.5t33.5 29t16 49.5t4 70zM201 738q7 3 12 3t10 -8l88 -150q8 -12 -3 -18l-37 -24q-10 -6 -19 4l-110 137q-5 5 -5 10.5t8 10.5z" />
    <glyph glyph-name="oacute" unicode="&#xf3;" horiz-adv-x="523" 
d="M479 253q0 -43 -5.5 -89t-27.5 -84.5t-66 -63t-122 -24.5q-75 0 -118 24.5t-64.5 63t-26.5 84.5t-5 89q0 35 6.5 78t28.5 80.5t64.5 63t114.5 25.5q73 0 116.5 -22t66.5 -57.5t30.5 -79.5t7.5 -88zM367 246q0 40 -4 69.5t-16 49t-33 29.5t-55 10q-32 0 -52 -10t-31.5 -30
t-16 -49.5t-4.5 -68.5q0 -40 4.5 -69.5t15.5 -49t31 -29.5t52 -10q34 0 55.5 9.5t33.5 29t16 49.5t4 70zM388 709q15 -8 4 -22l-102 -140q-8 -11 -19 -6l-39 18q-11 6 -5 19l80 155q6 13 22 6z" />
    <glyph glyph-name="ocircumflex" unicode="&#xf4;" horiz-adv-x="523" 
d="M479 253q0 -43 -5.5 -89t-27.5 -84.5t-66 -63t-122 -24.5q-75 0 -118 24.5t-64.5 63t-26.5 84.5t-5 89q0 35 6.5 78t28.5 80.5t64.5 63t114.5 25.5q73 0 116.5 -22t66.5 -57.5t30.5 -79.5t7.5 -88zM367 246q0 40 -4 69.5t-16 49t-33 29.5t-55 10q-32 0 -52 -10t-31.5 -30
t-16 -49.5t-4.5 -68.5q0 -40 4.5 -69.5t15.5 -49t31 -29.5t52 -10q34 0 55.5 9.5t33.5 29t16 49.5t4 70zM148 538q-8 -7 -12 -7.5t-11 5.5l-27 25q-6 5 -6 8.5t6 10.5l106 125q6 8 12 11t20 3h55q16 0 22 -2.5t11 -9.5l105 -127q11 -11 1 -20l-27 -24q-12 -9 -22 0l-119 105
z" />
    <glyph glyph-name="otilde" unicode="&#xf5;" horiz-adv-x="523" 
d="M479 253q0 -43 -5.5 -89t-27.5 -84.5t-66 -63t-122 -24.5q-75 0 -118 24.5t-64.5 63t-26.5 84.5t-5 89q0 35 6.5 78t28.5 80.5t64.5 63t114.5 25.5q73 0 116.5 -22t66.5 -57.5t30.5 -79.5t7.5 -88zM367 246q0 40 -4 69.5t-16 49t-33 29.5t-55 10q-32 0 -52 -10t-31.5 -30
t-16 -49.5t-4.5 -68.5q0 -40 4.5 -69.5t15.5 -49t31 -29.5t52 -10q34 0 55.5 9.5t33.5 29t16 49.5t4 70zM344 548q-17 0 -37.5 8t-41.5 17.5t-41 17.5t-35 8q-11 0 -25 -6t-30 -32q-4 -6 -7.5 -7.5t-13.5 3.5l-28 12q-11 4 -6 19q20 53 51 74t59 21q20 0 41 -8t41.5 -17
t38.5 -17t33 -8q32 0 52 37q4 6 8.5 8t13.5 -2l28 -13q8 -3 8.5 -8t-1.5 -11q-20 -52 -47 -74t-61 -22z" />
    <glyph glyph-name="odieresis" unicode="&#xf6;" horiz-adv-x="523" 
d="M479 253q0 -43 -5.5 -89t-27.5 -84.5t-66 -63t-122 -24.5q-75 0 -118 24.5t-64.5 63t-26.5 84.5t-5 89q0 35 6.5 78t28.5 80.5t64.5 63t114.5 25.5q73 0 116.5 -22t66.5 -57.5t30.5 -79.5t7.5 -88zM367 246q0 40 -4 69.5t-16 49t-33 29.5t-55 10q-32 0 -52 -10t-31.5 -30
t-16 -49.5t-4.5 -68.5q0 -40 4.5 -69.5t15.5 -49t31 -29.5t52 -10q34 0 55.5 9.5t33.5 29t16 49.5t4 70zM167 557q-19 0 -30 4.5t-17 12.5t-7.5 18t-1.5 21q0 23 10.5 38t45.5 15t45 -14.5t10 -38.5q0 -23 -10 -39.5t-45 -16.5zM361 557q-36 0 -45.5 17t-9.5 39q0 23 11 38
t44 15q35 0 45.5 -14.5t10.5 -38.5q0 -23 -10 -39.5t-46 -16.5z" />
    <glyph glyph-name="ugrave" unicode="&#xf9;" horiz-adv-x="531" 
d="M478 19q0 -19 -19 -19h-71q-11 0 -15 5t-4 14v31l-2 1q-15 -10 -34.5 -20.5t-41.5 -19.5t-45.5 -14.5t-46.5 -5.5q-51 0 -80.5 14t-44.5 39t-19 59t-4 73v294q0 20 19 20h73q18 0 18 -20v-281q0 -23 3 -41t11 -30.5t22 -19.5t37 -7q16 0 35.5 5t38.5 12.5t35 15t26 12.5
v334q0 9 4 14.5t15 5.5h71q19 0 19 -20v-451zM211 738q7 3 12 3t10 -8l88 -150q8 -12 -3 -18l-37 -24q-10 -6 -19 4l-110 137q-5 5 -5 10.5t8 10.5z" />
    <glyph glyph-name="uacute" unicode="&#xfa;" horiz-adv-x="531" 
d="M478 19q0 -19 -19 -19h-71q-11 0 -15 5t-4 14v31l-2 1q-15 -10 -34.5 -20.5t-41.5 -19.5t-45.5 -14.5t-46.5 -5.5q-51 0 -80.5 14t-44.5 39t-19 59t-4 73v294q0 20 19 20h73q18 0 18 -20v-281q0 -23 3 -41t11 -30.5t22 -19.5t37 -7q16 0 35.5 5t38.5 12.5t35 15t26 12.5
v334q0 9 4 14.5t15 5.5h71q19 0 19 -20v-451zM388 709q15 -8 4 -22l-102 -140q-8 -11 -19 -6l-39 18q-11 6 -5 19l80 155q6 13 22 6z" />
    <glyph glyph-name="ucircumflex" unicode="&#xfb;" horiz-adv-x="531" 
d="M478 19q0 -19 -19 -19h-71q-11 0 -15 5t-4 14v31l-2 1q-15 -10 -34.5 -20.5t-41.5 -19.5t-45.5 -14.5t-46.5 -5.5q-51 0 -80.5 14t-44.5 39t-19 59t-4 73v294q0 20 19 20h73q18 0 18 -20v-281q0 -23 3 -41t11 -30.5t22 -19.5t37 -7q16 0 35.5 5t38.5 12.5t35 15t26 12.5
v334q0 9 4 14.5t15 5.5h71q19 0 19 -20v-451zM150 538q-8 -7 -12 -7.5t-11 5.5l-27 25q-6 5 -6 8.5t6 10.5l106 125q6 8 12 11t20 3h55q16 0 22 -2.5t11 -9.5l105 -127q11 -11 1 -20l-27 -24q-12 -9 -22 0l-119 105z" />
    <glyph glyph-name="udieresis" unicode="&#xfc;" horiz-adv-x="531" 
d="M478 19q0 -19 -19 -19h-71q-11 0 -15 5t-4 14v31l-2 1q-15 -10 -34.5 -20.5t-41.5 -19.5t-45.5 -14.5t-46.5 -5.5q-51 0 -80.5 14t-44.5 39t-19 59t-4 73v294q0 20 19 20h73q18 0 18 -20v-281q0 -23 3 -41t11 -30.5t22 -19.5t37 -7q16 0 35.5 5t38.5 12.5t35 15t26 12.5
v334q0 9 4 14.5t15 5.5h71q19 0 19 -20v-451zM175 557q-19 0 -30 4.5t-17 12.5t-7.5 18t-1.5 21q0 23 10.5 38t45.5 15t45 -14.5t10 -38.5q0 -23 -10 -39.5t-45 -16.5zM369 557q-36 0 -45.5 17t-9.5 39q0 23 11 38t44 15q35 0 45.5 -14.5t10.5 -38.5q0 -23 -10 -39.5
t-46 -16.5z" />
    <glyph glyph-name="yacute" unicode="&#xfd;" horiz-adv-x="491" 
d="M249 140q11 31 20.5 58t16.5 47q8 24 15 44l62 184q3 9 8 13t16 4h74q12 0 13 -6t-2 -14l-233 -636q-4 -10 -9 -14t-18 -4h-68q-12 0 -13.5 6t1.5 14l63 169l-175 465q-3 8 -1.5 14t12.5 6h77q10 0 14 -2t8 -13l65 -186l50 -149h4zM368 709q15 -8 4 -22l-102 -140
q-8 -11 -19 -6l-39 18q-11 6 -5 19l80 155q6 13 22 6z" />
    <glyph glyph-name="ydieresis" unicode="&#xff;" horiz-adv-x="491" 
d="M249 140q11 31 20.5 58t16.5 47q8 24 15 44l62 184q3 9 8 13t16 4h74q12 0 13 -6t-2 -14l-233 -636q-4 -10 -9 -14t-18 -4h-68q-12 0 -13.5 6t1.5 14l63 169l-175 465q-3 8 -1.5 14t12.5 6h77q10 0 14 -2t8 -13l65 -186l50 -149h4zM152 557q-19 0 -30 4.5t-17 12.5
t-7.5 18t-1.5 21q0 23 10.5 38t45.5 15t45 -14.5t10 -38.5q0 -23 -10 -39.5t-45 -16.5zM346 557q-36 0 -45.5 17t-9.5 39q0 23 11 38t44 15q35 0 45.5 -14.5t10.5 -38.5q0 -23 -10 -39.5t-46 -16.5z" />
    <glyph glyph-name="Amacron" unicode="&#x100;" horiz-adv-x="579" 
d="M129 21q-4 -12 -10 -16.5t-17 -4.5h-78q-18 0 -11 20l202 622q4 11 9 16t19 5h87q14 0 19 -5.5t8 -15.5l206 -624q5 -18 -10 -18h-88q-12 0 -16.5 5t-8.5 16l-42 144h-224zM329 401l-41 144h-4l-40 -142l-42 -144h169zM149 718q-17 0 -17 16v52q0 10 4.5 13t12.5 3h275
q9 0 13 -3t4 -13v-52q0 -16 -17 -16h-275z" />
    <glyph glyph-name="amacron" unicode="&#x101;" horiz-adv-x="540" 
d="M357 223h-122q-38 0 -60 -17.5t-22 -66.5q0 -33 13.5 -45.5t48.5 -12.5q16 0 35 4t38 11t37 15.5t32 16.5v95zM363 57q-38 -29 -85.5 -47t-98.5 -18q-40 0 -66.5 10.5t-42 29t-22 44.5t-6.5 58q-1 88 46 127.5t142 39.5h128v26q0 22 -4.5 37.5t-16.5 25.5t-32 14t-51 4
q-12 0 -29.5 -1t-36 -2t-37 -3t-33.5 -3q-15 -2 -20.5 -0.5t-7.5 12.5l-9 37q-2 10 2 16.5t21 13.5q16 6 38 10t45 6.5t45.5 4t40.5 1.5q65 0 103.5 -13t58.5 -36.5t26 -57.5t6 -76v-193q0 -15 1.5 -23.5t5 -13t10.5 -6.5t19 -3q11 -1 15 -4t4 -11v-42q0 -17 -24 -21
q-12 -2 -24 -3.5t-23 -1.5q-35 0 -56.5 13t-29.5 48zM139 569q-17 0 -17 16v52q0 17 17 17h275q17 0 17 -16v-53q0 -16 -17 -16h-275z" />
    <glyph glyph-name="Abreve" unicode="&#x102;" horiz-adv-x="579" 
d="M129 21q-4 -12 -10 -16.5t-17 -4.5h-78q-18 0 -11 20l202 622q4 11 9 16t19 5h87q14 0 19 -5.5t8 -15.5l206 -624q5 -18 -10 -18h-88q-12 0 -16.5 5t-8.5 16l-42 144h-224zM329 401l-41 144h-4l-40 -142l-42 -144h169zM280 697q-49 0 -94.5 23t-71.5 76q-4 8 -7 17t5 16
l28 22q8 5 13 3t12 -9q29 -34 53.5 -50t61.5 -16q34 0 58.5 15t53.5 51q12 14 25 5l27 -17q9 -7 6.5 -16.5t-7.5 -18.5q-27 -52 -70 -76.5t-93 -24.5z" />
    <glyph glyph-name="abreve" unicode="&#x103;" horiz-adv-x="540" 
d="M357 223h-122q-38 0 -60 -17.5t-22 -66.5q0 -33 13.5 -45.5t48.5 -12.5q16 0 35 4t38 11t37 15.5t32 16.5v95zM363 57q-38 -29 -85.5 -47t-98.5 -18q-40 0 -66.5 10.5t-42 29t-22 44.5t-6.5 58q-1 88 46 127.5t142 39.5h128v26q0 22 -4.5 37.5t-16.5 25.5t-32 14t-51 4
q-12 0 -29.5 -1t-36 -2t-37 -3t-33.5 -3q-15 -2 -20.5 -0.5t-7.5 12.5l-9 37q-2 10 2 16.5t21 13.5q16 6 38 10t45 6.5t45.5 4t40.5 1.5q65 0 103.5 -13t58.5 -36.5t26 -57.5t6 -76v-193q0 -15 1.5 -23.5t5 -13t10.5 -6.5t19 -3q11 -1 15 -4t4 -11v-42q0 -17 -24 -21
q-12 -2 -24 -3.5t-23 -1.5q-35 0 -56.5 13t-29.5 48zM276 536q-49 0 -95.5 25.5t-70.5 78.5q-4 8 -7 17t5 16l27 22q9 6 14 3.5t12 -9.5q30 -36 54.5 -53t61.5 -17q17 0 30.5 4t26 13t25.5 22t29 31q12 14 25 5l27 -17q10 -6 6.5 -16t-7.5 -19q-27 -53 -70 -79.5t-93 -26.5z
" />
    <glyph glyph-name="Cacute" unicode="&#x106;" horiz-adv-x="562" 
d="M62 326q0 64 10 126t39.5 110.5t82 78.5t138.5 30q18 0 41.5 -1.5t48.5 -5t49 -9t44 -13.5q12 -5 16.5 -12t2.5 -19l-9 -41q-2 -9 -7 -13t-19 -2q-37 5 -79.5 9t-81.5 4q-51 0 -82 -19t-47.5 -52t-21.5 -76.5t-5 -92.5t6 -92t23 -74.5t47.5 -49.5t79.5 -18q44 0 82 4
t79 9q14 2 19 -2t8 -14l8 -38q6 -22 -17 -32q-18 -8 -42.5 -13.5t-50 -9.5t-50 -5.5t-42.5 -1.5q-84 0 -136.5 28.5t-82 75.5t-40.5 107t-11 124zM482 798q5 -7 2.5 -12.5t-9.5 -8.5l-155 -76q-5 -2 -10 -2t-10 6l-26 35q-7 10 5 18l143 100q8 5 12.5 2.5t9.5 -7.5z" />
    <glyph glyph-name="cacute" unicode="&#x107;" horiz-adv-x="448" 
d="M426 46q3 -11 0 -18t-17 -13q-29 -12 -72 -17.5t-80 -5.5q-70 0 -112.5 21t-65 56t-29.5 81.5t-7 97.5q0 46 7.5 91.5t30 81t65 57.5t111.5 22q17 0 37.5 -1t41 -4t40 -7.5t35.5 -11.5q18 -8 15 -28l-7 -40q-3 -11 -10 -13t-21 -1q-31 3 -63.5 6t-58.5 3q-61 0 -85 -35
t-24 -118q0 -47 5.5 -78t18.5 -50t33.5 -26.5t50.5 -7.5q23 0 60.5 2.5t68.5 6.5q12 2 18 0t8 -15zM362 709q15 -8 4 -22l-102 -140q-8 -11 -19 -6l-39 18q-11 6 -5 19l80 155q6 13 22 6z" />
    <glyph glyph-name="Ccircumflex" unicode="&#x108;" horiz-adv-x="562" 
d="M62 326q0 64 10 126t39.5 110.5t82 78.5t138.5 30q18 0 41.5 -1.5t48.5 -5t49 -9t44 -13.5q12 -5 16.5 -12t2.5 -19l-9 -41q-2 -9 -7 -13t-19 -2q-37 5 -79.5 9t-81.5 4q-51 0 -82 -19t-47.5 -52t-21.5 -76.5t-5 -92.5t6 -92t23 -74.5t47.5 -49.5t79.5 -18q44 0 82 4
t79 9q14 2 19 -2t8 -14l8 -38q6 -22 -17 -32q-18 -8 -42.5 -13.5t-50 -9.5t-50 -5.5t-42.5 -1.5q-84 0 -136.5 28.5t-82 75.5t-40.5 107t-11 124zM204 697q-8 -6 -12.5 -6.5t-10.5 5.5l-25 26q-5 5 -5.5 8.5t5.5 10.5l111 104q8 7 14.5 10.5t18.5 3.5h54q14 0 20 -3t14 -9
l110 -103q7 -6 6 -11t-6 -10l-25 -25q-6 -6 -10 -5.5t-11 5.5l-126 85z" />
    <glyph glyph-name="ccircumflex" unicode="&#x109;" horiz-adv-x="448" 
d="M426 46q3 -11 0 -18t-17 -13q-29 -12 -72 -17.5t-80 -5.5q-70 0 -112.5 21t-65 56t-29.5 81.5t-7 97.5q0 46 7.5 91.5t30 81t65 57.5t111.5 22q17 0 37.5 -1t41 -4t40 -7.5t35.5 -11.5q18 -8 15 -28l-7 -40q-3 -11 -10 -13t-21 -1q-31 3 -63.5 6t-58.5 3q-61 0 -85 -35
t-24 -118q0 -47 5.5 -78t18.5 -50t33.5 -26.5t50.5 -7.5q23 0 60.5 2.5t68.5 6.5q12 2 18 0t8 -15zM133 538q-8 -7 -12 -7.5t-11 5.5l-27 25q-6 5 -6 8.5t6 10.5l106 125q6 8 12 11t20 3h55q16 0 22 -2.5t11 -9.5l105 -127q11 -11 1 -20l-27 -24q-12 -9 -22 0l-119 105z" />
    <glyph glyph-name="Cdotaccent" unicode="&#x10a;" horiz-adv-x="562" 
d="M62 326q0 64 10 126t39.5 110.5t82 78.5t138.5 30q18 0 41.5 -1.5t48.5 -5t49 -9t44 -13.5q12 -5 16.5 -12t2.5 -19l-9 -41q-2 -9 -7 -13t-19 -2q-37 5 -79.5 9t-81.5 4q-51 0 -82 -19t-47.5 -52t-21.5 -76.5t-5 -92.5t6 -92t23 -74.5t47.5 -49.5t79.5 -18q44 0 82 4
t79 9q14 2 19 -2t8 -14l8 -38q6 -22 -17 -32q-18 -8 -42.5 -13.5t-50 -9.5t-50 -5.5t-42.5 -1.5q-84 0 -136.5 28.5t-82 75.5t-40.5 107t-11 124zM399 784q0 -11 -2 -21.5t-8.5 -18.5t-18 -12.5t-29.5 -4.5q-19 0 -30.5 5t-17.5 13t-8 18t-2 21q0 23 11.5 39t46.5 16
q36 0 47 -15.5t11 -39.5z" />
    <glyph glyph-name="cdotaccent" unicode="&#x10b;" horiz-adv-x="448" 
d="M426 46q3 -11 0 -18t-17 -13q-29 -12 -72 -17.5t-80 -5.5q-70 0 -112.5 21t-65 56t-29.5 81.5t-7 97.5q0 46 7.5 91.5t30 81t65 57.5t111.5 22q17 0 37.5 -1t41 -4t40 -7.5t35.5 -11.5q18 -8 15 -28l-7 -40q-3 -11 -10 -13t-21 -1q-31 3 -63.5 6t-58.5 3q-61 0 -85 -35
t-24 -118q0 -47 5.5 -78t18.5 -50t33.5 -26.5t50.5 -7.5q23 0 60.5 2.5t68.5 6.5q12 2 18 0t8 -15zM319 617q0 -11 -2 -21.5t-8.5 -18.5t-18 -12.5t-29.5 -4.5q-19 0 -30.5 5t-17.5 13t-8 18t-2 21q0 23 11.5 39t46.5 16q36 0 47 -15.5t11 -39.5z" />
    <glyph glyph-name="Ccaron" unicode="&#x10c;" horiz-adv-x="562" 
d="M62 326q0 64 10 126t39.5 110.5t82 78.5t138.5 30q18 0 41.5 -1.5t48.5 -5t49 -9t44 -13.5q12 -5 16.5 -12t2.5 -19l-9 -41q-2 -9 -7 -13t-19 -2q-37 5 -79.5 9t-81.5 4q-51 0 -82 -19t-47.5 -52t-21.5 -76.5t-5 -92.5t6 -92t23 -74.5t47.5 -49.5t79.5 -18q44 0 82 4
t79 9q14 2 19 -2t8 -14l8 -38q6 -22 -17 -32q-18 -8 -42.5 -13.5t-50 -9.5t-50 -5.5t-42.5 -1.5q-84 0 -136.5 28.5t-82 75.5t-40.5 107t-11 124zM330 778l123 81q8 5 12 6t11 -5l25 -24q5 -5 5.5 -8.5t-5.5 -10.5l-112 -105q-7 -6 -13.5 -9.5t-18.5 -3.5h-54q-14 0 -21 4
t-13 10l-111 101q-11 12 -1 21l26 25q5 6 9.5 5.5t11.5 -5.5z" />
    <glyph glyph-name="ccaron" unicode="&#x10d;" horiz-adv-x="448" 
d="M426 46q3 -11 0 -18t-17 -13q-29 -12 -72 -17.5t-80 -5.5q-70 0 -112.5 21t-65 56t-29.5 81.5t-7 97.5q0 46 7.5 91.5t30 81t65 57.5t111.5 22q17 0 37.5 -1t41 -4t40 -7.5t35.5 -11.5q18 -8 15 -28l-7 -40q-3 -11 -10 -13t-21 -1q-31 3 -63.5 6t-58.5 3q-61 0 -85 -35
t-24 -118q0 -47 5.5 -78t18.5 -50t33.5 -26.5t50.5 -7.5q23 0 60.5 2.5t68.5 6.5q12 2 18 0t8 -15zM248 611l118 105q11 10 22 0l27 -24q10 -9 0 -20l-105 -127q-6 -7 -11.5 -9.5t-22.5 -2.5h-54q-14 0 -20.5 3t-12.5 11l-106 125q-6 7 -5.5 10.5t5.5 8.5l27 25
q7 6 11.5 5.5t11.5 -7.5z" />
    <glyph glyph-name="Dcaron" unicode="&#x10e;" horiz-adv-x="631" 
d="M92 0q-13 0 -17.5 5t-4.5 14v625q0 19 19 19h203q83 0 137 -26.5t85.5 -71.5t44 -105t12.5 -127q0 -68 -12 -128.5t-43 -106t-85.5 -72t-138.5 -26.5h-200zM453 326q0 70 -12.5 116.5t-34.5 73.5t-52.5 38t-66.5 11h-104v-466h97q34 0 65 9t55 34t38.5 69.5t14.5 114.5z
M288 778l123 81q8 5 12 6t11 -5l25 -24q5 -5 5.5 -8.5t-5.5 -10.5l-112 -105q-7 -6 -13.5 -9.5t-18.5 -3.5h-54q-14 0 -21 4t-13 10l-111 101q-11 12 -1 21l26 25q5 6 9.5 5.5t11.5 -5.5z" />
    <glyph glyph-name="dcaron" unicode="&#x10f;" horiz-adv-x="658" 
d="M663 648q0 -57 -25.5 -96.5t-60.5 -60.5q-7 -4 -13.5 -4t-11.5 5l-20 19q-5 7 -4.5 11.5t8.5 12.5q18 17 24 34.5t6 33.5q0 17 -7 30.5t-18 26.5q-8 8 -8 15t11 17l50 36q11 8 19 6t16 -10q17 -16 25.5 -37t8.5 -39zM475 19q0 -9 -3.5 -14t-14.5 -5h-72q-18 0 -18 18v32
q-1 0 -1.5 0.5t-1.5 0.5q-13 -9 -31 -19.5t-39 -19.5t-43.5 -14.5t-44.5 -5.5q-49 0 -80.5 17.5t-50 49.5t-26 77.5t-7.5 102.5q0 61 8.5 109.5t30.5 82.5t60.5 51.5t99.5 17.5q62 0 124 -23q1 0 1 0.5t1 0.5v207q0 10 3.5 15t15.5 5h71q12 0 15 -5.5t3 -14.5v-666zM366 387
q-35 10 -62.5 13.5t-52.5 3.5q-27 0 -46 -8t-30 -27t-16 -50.5t-5 -78.5q0 -48 4.5 -77.5t14.5 -45t24 -21t34 -5.5q15 0 34 5t38 12t35.5 14.5t27.5 13.5v251z" />
    <glyph glyph-name="Emacron" unicode="&#x112;" horiz-adv-x="528" 
d="M71 644q0 20 20 20h368q19 0 19 -19v-62q0 -18 -20 -18h-273v-172h242q20 0 20 -18v-62q0 -18 -20 -18h-242v-197h280q18 0 18 -19v-61q0 -18 -19 -18h-373q-20 0 -20 18v626zM142 718q-17 0 -17 16v52q0 10 4.5 13t12.5 3h275q9 0 13 -3t4 -13v-52q0 -16 -17 -16h-275z
" />
    <glyph glyph-name="emacron" unicode="&#x113;" horiz-adv-x="508" 
d="M157 215q1 -38 8.5 -63t22.5 -39.5t37 -20.5t53 -6q27 0 64 4t66 7q14 2 19.5 -0.5t7.5 -16.5l6 -33q2 -11 -0.5 -18t-16.5 -13q-15 -6 -35 -10.5t-42 -7.5t-44 -5t-40 -2q-72 0 -115 21t-66 56t-30.5 80.5t-7.5 94.5q0 36 6 81t27.5 84t64 65.5t115.5 26.5
q67 0 108.5 -20t64.5 -51.5t31.5 -72t9.5 -80.5q1 -27 -9 -44t-40 -17h-265zM257 410q-28 0 -46 -8t-29.5 -23.5t-16.5 -38t-7 -50.5h198q0 23 -4 44.5t-14.5 38.5t-30 27t-50.5 10zM125 569q-17 0 -17 16v52q0 17 17 17h275q17 0 17 -16v-53q0 -16 -17 -16h-275z" />
    <glyph glyph-name="Ebreve" unicode="&#x114;" horiz-adv-x="528" 
d="M71 644q0 20 20 20h368q19 0 19 -19v-62q0 -18 -20 -18h-273v-172h242q20 0 20 -18v-62q0 -18 -20 -18h-242v-197h280q18 0 18 -19v-61q0 -18 -19 -18h-373q-20 0 -20 18v626zM268 697q-49 0 -94.5 23t-71.5 76q-4 8 -7 17t5 16l28 22q8 5 13 3t12 -9q29 -34 53.5 -50
t61.5 -16q34 0 58.5 15t53.5 51q12 14 25 5l27 -17q9 -7 6.5 -16.5t-7.5 -18.5q-27 -52 -70 -76.5t-93 -24.5z" />
    <glyph glyph-name="ebreve" unicode="&#x115;" horiz-adv-x="508" 
d="M157 215q1 -38 8.5 -63t22.5 -39.5t37 -20.5t53 -6q27 0 64 4t66 7q14 2 19.5 -0.5t7.5 -16.5l6 -33q2 -11 -0.5 -18t-16.5 -13q-15 -6 -35 -10.5t-42 -7.5t-44 -5t-40 -2q-72 0 -115 21t-66 56t-30.5 80.5t-7.5 94.5q0 36 6 81t27.5 84t64 65.5t115.5 26.5
q67 0 108.5 -20t64.5 -51.5t31.5 -72t9.5 -80.5q1 -27 -9 -44t-40 -17h-265zM257 410q-28 0 -46 -8t-29.5 -23.5t-16.5 -38t-7 -50.5h198q0 23 -4 44.5t-14.5 38.5t-30 27t-50.5 10zM260 536q-49 0 -95.5 25.5t-70.5 78.5q-4 8 -7 17t5 16l27 22q9 6 14 3.5t12 -9.5
q30 -36 54.5 -53t61.5 -17q17 0 30.5 4t26 13t25.5 22t29 31q12 14 25 5l27 -17q10 -6 6.5 -16t-7.5 -19q-27 -53 -70 -79.5t-93 -26.5z" />
    <glyph glyph-name="Edotaccent" unicode="&#x116;" horiz-adv-x="528" 
d="M71 644q0 20 20 20h368q19 0 19 -19v-62q0 -18 -20 -18h-273v-172h242q20 0 20 -18v-62q0 -18 -20 -18h-242v-197h280q18 0 18 -19v-61q0 -18 -19 -18h-373q-20 0 -20 18v626zM345 767q0 -11 -2 -21.5t-8.5 -18.5t-18 -12.5t-29.5 -4.5q-19 0 -30.5 5t-17.5 13t-8 18
t-2 21q0 23 11.5 39t46.5 16q36 0 47 -15.5t11 -39.5z" />
    <glyph glyph-name="edotaccent" unicode="&#x117;" horiz-adv-x="508" 
d="M157 215q1 -38 8.5 -63t22.5 -39.5t37 -20.5t53 -6q27 0 64 4t66 7q14 2 19.5 -0.5t7.5 -16.5l6 -33q2 -11 -0.5 -18t-16.5 -13q-15 -6 -35 -10.5t-42 -7.5t-44 -5t-40 -2q-72 0 -115 21t-66 56t-30.5 80.5t-7.5 94.5q0 36 6 81t27.5 84t64 65.5t115.5 26.5
q67 0 108.5 -20t64.5 -51.5t31.5 -72t9.5 -80.5q1 -27 -9 -44t-40 -17h-265zM257 410q-28 0 -46 -8t-29.5 -23.5t-16.5 -38t-7 -50.5h198q0 23 -4 44.5t-14.5 38.5t-30 27t-50.5 10zM325 617q0 -11 -2 -21.5t-8.5 -18.5t-18 -12.5t-29.5 -4.5q-19 0 -30.5 5t-17.5 13t-8 18
t-2 21q0 23 11.5 39t46.5 16q36 0 47 -15.5t11 -39.5z" />
    <glyph glyph-name="Ecaron" unicode="&#x11a;" horiz-adv-x="528" 
d="M71 644q0 20 20 20h368q19 0 19 -19v-62q0 -18 -20 -18h-273v-172h242q20 0 20 -18v-62q0 -18 -20 -18h-242v-197h280q18 0 18 -19v-61q0 -18 -19 -18h-373q-20 0 -20 18v626zM272 778l123 81q8 5 12 6t11 -5l25 -24q5 -5 5.5 -8.5t-5.5 -10.5l-112 -105
q-7 -6 -13.5 -9.5t-18.5 -3.5h-54q-14 0 -21 4t-13 10l-111 101q-11 12 -1 21l26 25q5 6 9.5 5.5t11.5 -5.5z" />
    <glyph glyph-name="ecaron" unicode="&#x11b;" horiz-adv-x="508" 
d="M157 215q1 -38 8.5 -63t22.5 -39.5t37 -20.5t53 -6q27 0 64 4t66 7q14 2 19.5 -0.5t7.5 -16.5l6 -33q2 -11 -0.5 -18t-16.5 -13q-15 -6 -35 -10.5t-42 -7.5t-44 -5t-40 -2q-72 0 -115 21t-66 56t-30.5 80.5t-7.5 94.5q0 36 6 81t27.5 84t64 65.5t115.5 26.5
q67 0 108.5 -20t64.5 -51.5t31.5 -72t9.5 -80.5q1 -27 -9 -44t-40 -17h-265zM257 410q-28 0 -46 -8t-29.5 -23.5t-16.5 -38t-7 -50.5h198q0 23 -4 44.5t-14.5 38.5t-30 27t-50.5 10zM259 611l118 105q11 10 22 0l27 -24q10 -9 0 -20l-105 -127q-6 -7 -11.5 -9.5t-22.5 -2.5
h-54q-14 0 -20.5 3t-12.5 11l-106 125q-6 7 -5.5 10.5t5.5 8.5l27 25q7 6 11.5 5.5t11.5 -7.5z" />
    <glyph glyph-name="Gcircumflex" unicode="&#x11c;" horiz-adv-x="622" 
d="M184 328q0 -47 6 -90t23 -75.5t47.5 -51.5t80.5 -19q23 0 53 3t50 9v167h-81q-20 0 -20 19v59q0 18 20 18h173q11 0 16 -6.5t5 -12.5v-29v-48v-58v-60t-0.5 -53t-0.5 -37q0 -15 -5.5 -26t-22.5 -17q-44 -15 -95 -22t-95 -7q-80 0 -133 25.5t-84.5 70.5t-44.5 106.5
t-13 133.5q0 64 10.5 125.5t40 110t82.5 78.5t137 30q18 0 41.5 -1.5t48.5 -5t49 -9t44 -13.5q12 -5 16.5 -11.5t2.5 -19.5l-10 -42q-2 -9 -6.5 -12.5t-18.5 -1.5q-37 5 -79 9t-80 4q-51 0 -81.5 -19t-47.5 -52t-22.5 -76.5t-5.5 -92.5zM217 697q-8 -6 -12.5 -6.5t-10.5 5.5
l-25 26q-5 5 -5.5 8.5t5.5 10.5l111 104q8 7 14.5 10.5t18.5 3.5h54q14 0 20 -3t14 -9l110 -103q7 -6 6 -11t-6 -10l-25 -25q-6 -6 -10 -5.5t-11 5.5l-126 85z" />
    <glyph glyph-name="gcircumflex" unicode="&#x11d;" horiz-adv-x="529" 
d="M265 500q48 0 100 -7t89 -19q18 -6 22.5 -18.5t4.5 -26.5v-423q0 -43 -6 -80t-28 -64t-63.5 -42t-113.5 -15q-39 0 -84.5 5t-76.5 18q-16 6 -19 13.5t-1 15.5l8 37q2 12 8.5 14t20.5 0q34 -5 71.5 -7.5t66.5 -2.5q32 0 52.5 5t32.5 15.5t16.5 27.5t4.5 40v33
q-38 -14 -68.5 -19t-54.5 -5q-61 0 -100 18t-61.5 50.5t-31 78t-8.5 101.5q0 59 10 106.5t35 81t67.5 51.5t106.5 18zM160 252q0 -46 5.5 -77t17 -49.5t30 -26.5t44.5 -8q22 0 51.5 4t61.5 13v285q-23 4 -49.5 6.5t-50.5 2.5q-23 0 -43 -5t-35 -20.5t-23.5 -45.5t-8.5 -79z
M166 538q-8 -7 -12 -7.5t-11 5.5l-27 25q-6 5 -6 8.5t6 10.5l106 125q6 8 12 11t20 3h55q16 0 22 -2.5t11 -9.5l105 -127q11 -11 1 -20l-27 -24q-12 -9 -22 0l-119 105z" />
    <glyph glyph-name="Gbreve" unicode="&#x11e;" horiz-adv-x="622" 
d="M184 328q0 -47 6 -90t23 -75.5t47.5 -51.5t80.5 -19q23 0 53 3t50 9v167h-81q-20 0 -20 19v59q0 18 20 18h173q11 0 16 -6.5t5 -12.5v-29v-48v-58v-60t-0.5 -53t-0.5 -37q0 -15 -5.5 -26t-22.5 -17q-44 -15 -95 -22t-95 -7q-80 0 -133 25.5t-84.5 70.5t-44.5 106.5
t-13 133.5q0 64 10.5 125.5t40 110t82.5 78.5t137 30q18 0 41.5 -1.5t48.5 -5t49 -9t44 -13.5q12 -5 16.5 -11.5t2.5 -19.5l-10 -42q-2 -9 -6.5 -12.5t-18.5 -1.5q-37 5 -79 9t-80 4q-51 0 -81.5 -19t-47.5 -52t-22.5 -76.5t-5.5 -92.5zM339 697q-49 0 -94.5 23t-71.5 76
q-4 8 -7 17t5 16l28 22q8 5 13 3t12 -9q29 -34 53.5 -50t61.5 -16q34 0 58.5 15t53.5 51q12 14 25 5l27 -17q9 -7 6.5 -16.5t-7.5 -18.5q-27 -52 -70 -76.5t-93 -24.5z" />
    <glyph glyph-name="gbreve" unicode="&#x11f;" horiz-adv-x="529" 
d="M265 500q48 0 100 -7t89 -19q18 -6 22.5 -18.5t4.5 -26.5v-423q0 -43 -6 -80t-28 -64t-63.5 -42t-113.5 -15q-39 0 -84.5 5t-76.5 18q-16 6 -19 13.5t-1 15.5l8 37q2 12 8.5 14t20.5 0q34 -5 71.5 -7.5t66.5 -2.5q32 0 52.5 5t32.5 15.5t16.5 27.5t4.5 40v33
q-38 -14 -68.5 -19t-54.5 -5q-61 0 -100 18t-61.5 50.5t-31 78t-8.5 101.5q0 59 10 106.5t35 81t67.5 51.5t106.5 18zM160 252q0 -46 5.5 -77t17 -49.5t30 -26.5t44.5 -8q22 0 51.5 4t61.5 13v285q-23 4 -49.5 6.5t-50.5 2.5q-23 0 -43 -5t-35 -20.5t-23.5 -45.5t-8.5 -79z
M276 536q-49 0 -95.5 25.5t-70.5 78.5q-4 8 -7 17t5 16l27 22q9 6 14 3.5t12 -9.5q30 -36 54.5 -53t61.5 -17q17 0 30.5 4t26 13t25.5 22t29 31q12 14 25 5l27 -17q10 -6 6.5 -16t-7.5 -19q-27 -53 -70 -79.5t-93 -26.5z" />
    <glyph glyph-name="Gdotaccent" unicode="&#x120;" horiz-adv-x="622" 
d="M184 328q0 -47 6 -90t23 -75.5t47.5 -51.5t80.5 -19q23 0 53 3t50 9v167h-81q-20 0 -20 19v59q0 18 20 18h173q11 0 16 -6.5t5 -12.5v-29v-48v-58v-60t-0.5 -53t-0.5 -37q0 -15 -5.5 -26t-22.5 -17q-44 -15 -95 -22t-95 -7q-80 0 -133 25.5t-84.5 70.5t-44.5 106.5
t-13 133.5q0 64 10.5 125.5t40 110t82.5 78.5t137 30q18 0 41.5 -1.5t48.5 -5t49 -9t44 -13.5q12 -5 16.5 -11.5t2.5 -19.5l-10 -42q-2 -9 -6.5 -12.5t-18.5 -1.5q-37 5 -79 9t-80 4q-51 0 -81.5 -19t-47.5 -52t-22.5 -76.5t-5.5 -92.5zM400 767q0 -11 -2 -21.5t-8.5 -18.5
t-18 -12.5t-29.5 -4.5q-19 0 -30.5 5t-17.5 13t-8 18t-2 21q0 23 11.5 39t46.5 16q36 0 47 -15.5t11 -39.5z" />
    <glyph glyph-name="gdotaccent" unicode="&#x121;" horiz-adv-x="529" 
d="M265 500q48 0 100 -7t89 -19q18 -6 22.5 -18.5t4.5 -26.5v-423q0 -43 -6 -80t-28 -64t-63.5 -42t-113.5 -15q-39 0 -84.5 5t-76.5 18q-16 6 -19 13.5t-1 15.5l8 37q2 12 8.5 14t20.5 0q34 -5 71.5 -7.5t66.5 -2.5q32 0 52.5 5t32.5 15.5t16.5 27.5t4.5 40v33
q-38 -14 -68.5 -19t-54.5 -5q-61 0 -100 18t-61.5 50.5t-31 78t-8.5 101.5q0 59 10 106.5t35 81t67.5 51.5t106.5 18zM160 252q0 -46 5.5 -77t17 -49.5t30 -26.5t44.5 -8q22 0 51.5 4t61.5 13v285q-23 4 -49.5 6.5t-50.5 2.5q-23 0 -43 -5t-35 -20.5t-23.5 -45.5t-8.5 -79z
M342 617q0 -11 -2 -21.5t-8.5 -18.5t-18 -12.5t-29.5 -4.5q-19 0 -30.5 5t-17.5 13t-8 18t-2 21q0 23 11.5 39t46.5 16q36 0 47 -15.5t11 -39.5z" />
    <glyph glyph-name="Gcommaaccent" unicode="&#x122;" horiz-adv-x="622" 
d="M184 328q0 -47 6 -90t23 -75.5t47.5 -51.5t80.5 -19q23 0 53 3t50 9v167h-81q-20 0 -20 19v59q0 18 20 18h173q11 0 16 -6.5t5 -12.5v-29v-48v-58v-60t-0.5 -53t-0.5 -37q0 -15 -5.5 -26t-22.5 -17q-44 -15 -95 -22t-95 -7q-80 0 -133 25.5t-84.5 70.5t-44.5 106.5
t-13 133.5q0 64 10.5 125.5t40 110t82.5 78.5t137 30q18 0 41.5 -1.5t48.5 -5t49 -9t44 -13.5q12 -5 16.5 -11.5t2.5 -19.5l-10 -42q-2 -9 -6.5 -12.5t-18.5 -1.5q-37 5 -79 9t-80 4q-51 0 -81.5 -19t-47.5 -52t-22.5 -76.5t-5.5 -92.5zM408 -134q0 -57 -25.5 -96.5
t-60.5 -60.5q-7 -4 -13.5 -4t-11.5 5l-20 19q-5 7 -4.5 11.5t8.5 12.5q18 17 24 34.5t6 33.5q0 17 -7 30.5t-18 26.5q-8 8 -8 15t11 17l50 36q11 8 19 6t16 -10q17 -16 25.5 -37t8.5 -39z" />
    <glyph glyph-name="gcommaaccent" unicode="&#x123;" horiz-adv-x="529" 
d="M223 623q0 30 7.5 55t20.5 45.5t29 35.5t33 25q7 4 14 4t13 -5l17 -17q7 -7 5.5 -11.5t-9.5 -12.5q-17 -15 -24.5 -32.5t-7.5 -34.5t6.5 -32.5t16.5 -27.5q8 -8 8.5 -15t-10.5 -15l-50 -37q-11 -8 -19 -5.5t-16 9.5q-17 15 -25.5 34.5t-8.5 36.5zM265 500q48 0 100 -7
t89 -19q18 -6 22.5 -18.5t4.5 -26.5v-423q0 -43 -6 -80t-28 -64t-63.5 -42t-113.5 -15q-39 0 -84.5 5t-76.5 18q-16 6 -19 13.5t-1 15.5l8 37q2 12 8.5 14t20.5 0q34 -5 71.5 -7.5t66.5 -2.5q32 0 52.5 5t32.5 15.5t16.5 27.5t4.5 40v33q-38 -14 -68.5 -19t-54.5 -5
q-61 0 -100 18t-61.5 50.5t-31 78t-8.5 101.5q0 59 10 106.5t35 81t67.5 51.5t106.5 18zM160 252q0 -46 5.5 -77t17 -49.5t30 -26.5t44.5 -8q22 0 51.5 4t61.5 13v285q-23 4 -49.5 6.5t-50.5 2.5q-23 0 -43 -5t-35 -20.5t-23.5 -45.5t-8.5 -79z" />
    <glyph glyph-name="Hcircumflex" unicode="&#x124;" horiz-adv-x="618" 
d="M435 644q0 20 20 20h75q11 0 14.5 -5.5t3.5 -14.5v-625q0 -8 -3.5 -13.5t-14.5 -5.5h-75q-20 0 -20 19v280h-252v-280q0 -8 -3.5 -13.5t-14.5 -5.5h-75q-20 0 -20 19v625q0 20 20 20h75q11 0 14.5 -5.5t3.5 -14.5v-246h252v246zM185 697q-8 -6 -12.5 -6.5t-10.5 5.5
l-25 26q-5 5 -5.5 8.5t5.5 10.5l111 104q8 7 14.5 10.5t18.5 3.5h54q14 0 20 -3t14 -9l110 -103q7 -6 6 -11t-6 -10l-25 -25q-6 -6 -10 -5.5t-11 5.5l-126 85z" />
    <glyph glyph-name="hcircumflex" unicode="&#x125;" horiz-adv-x="532" 
d="M479 19q0 -19 -20 -19h-71q-20 0 -20 19q0 73 0.5 144.5t0.5 144.5q0 42 -13.5 67.5t-58.5 25.5q-15 0 -34.5 -5.5t-39 -12.5t-36.5 -15t-27 -12v-337q0 -9 -4 -14t-15 -5h-71q-18 0 -18 19v667q0 19 18 19h71q20 0 20 -19v-242q13 8 32 17.5t41 18t46 14t47 5.5
q52 0 82 -15.5t45.5 -41.5t20 -60.5t4.5 -72.5v-290zM-11 703q-8 -6 -12.5 -6.5t-10.5 5.5l-25 26q-5 5 -5.5 8.5t5.5 10.5l111 104q8 7 14.5 10.5t18.5 3.5h54q14 0 20 -3t14 -9l110 -103q7 -6 6 -11t-6 -10l-25 -25q-6 -6 -10 -5.5t-11 5.5l-126 85z" />
    <glyph glyph-name="IJ" unicode="&#x132;" horiz-adv-x="663" 
d="M467 644q0 20 20 20h75q19 0 19 -20v-476q0 -85 -47 -131t-154 -46q-29 0 -62.5 4.5t-64.5 16.5q-18 7 -22.5 13.5t-0.5 18.5l10 45q3 10 7 12.5t15 0.5q23 -3 51.5 -5.5t50.5 -2.5q32 0 52 6t31.5 17.5t15.5 28.5t4 39v459zM80 644q0 20 19 20h76q19 0 19 -20v-625
q0 -19 -19 -19h-76q-19 0 -19 19v625z" />
    <glyph glyph-name="ij" unicode="&#x133;" horiz-adv-x="466" 
d="M183 620q0 -12 -2 -22.5t-8.5 -18.5t-18 -12.5t-30.5 -4.5q-20 0 -31.5 5t-17.5 13t-8 18.5t-2 21.5q0 24 11.5 40.5t47.5 16.5q37 0 48 -15.5t11 -41.5zM177 19q0 -8 -3.5 -13.5t-14.5 -5.5h-71q-20 0 -20 19v452q0 19 20 19h71q11 0 14.5 -5.5t3.5 -13.5v-452zM395 -11
q0 -49 -11 -86.5t-37.5 -63t-69 -37.5t-105.5 -10q-5 0 -13 4t-9 16l-4 47q-2 12 1.5 16t14.5 6q35 7 58.5 13.5t38 17.5t20.5 28.5t6 46.5v484q0 19 20 19h70q20 0 20 -19v-482zM399 620q0 -12 -2 -22.5t-8.5 -18.5t-18 -12.5t-30.5 -4.5q-20 0 -31.5 5t-17.5 13t-8 18.5
t-2 21.5q0 24 12 40.5t47 16.5q37 0 48 -15.5t11 -41.5z" />
    <glyph glyph-name="Jcircumflex" unicode="&#x134;" horiz-adv-x="442" 
d="M246 645q0 20 20 20h75q19 0 19 -20v-476q0 -85 -47 -131t-154 -46q-29 0 -62.5 4.5t-64.5 16.5q-18 7 -22.5 13.5t-0.5 18.5l10 45q3 10 7 12.5t15 0.5q23 -3 51.5 -5.5t50.5 -2.5q32 0 52 6t31.5 17.5t15.5 28.5t4 39v459zM181 699q-8 -6 -12.5 -6.5t-10.5 5.5l-25 26
q-5 5 -5.5 8.5t5.5 10.5l111 104q8 7 14.5 10.5t18.5 3.5h54q14 0 20 -3t14 -9l110 -103q7 -6 6 -11t-6 -10l-25 -25q-6 -6 -10 -5.5t-11 5.5l-126 85z" />
    <glyph glyph-name="jcircumflex" unicode="&#x135;" horiz-adv-x="346" 
d="M240 -11q0 -49 -11 -86.5t-37.5 -63t-69 -37.5t-105.5 -10q-5 0 -13 4t-9 16l-4 47q-2 11 2 15.5t14 6.5q35 7 58.5 13.5t38 17.5t20.5 28.5t6 46.5v484q0 19 20 19h70q20 0 20 -19v-482zM68 538q-8 -7 -12 -7.5t-11 5.5l-27 25q-6 5 -6 8.5t6 10.5l106 125q6 8 12 11
t20 3h55q16 0 22 -2.5t11 -9.5l105 -127q11 -11 1 -20l-27 -24q-12 -9 -22 0l-119 105z" />
    <glyph glyph-name="Kcommaaccent" unicode="&#x136;" horiz-adv-x="580" 
d="M181 344l76 98l168 207q7 8 14 11.5t19 3.5h91q11 0 13.5 -6t-4.5 -14l-217 -264l224 -359q6 -10 2 -15.5t-12 -5.5h-92q-13 0 -19.5 5t-12.5 14l-164 272l-88 -109v-163q0 -8 -3.5 -13.5t-14.5 -5.5h-75q-20 0 -20 19v625q0 20 20 20h75q11 0 14.5 -5.5t3.5 -14.5v-300
h2zM353 -114q0 -57 -25.5 -96.5t-60.5 -60.5q-7 -4 -13.5 -4t-11.5 5l-20 19q-5 7 -4.5 11.5t8.5 12.5q18 17 24 34.5t6 33.5q0 17 -7 30.5t-18 26.5q-8 8 -8 15t11 17l50 36q11 8 19 6t16 -10q17 -16 25.5 -37t8.5 -39z" />
    <glyph glyph-name="kcommaaccent" unicode="&#x137;" horiz-adv-x="483" 
d="M168 309l77 81l83 84q8 8 15 12.5t21 4.5h80q14 0 16.5 -7t-5.5 -16l-160 -163l180 -282q5 -9 1.5 -16t-14.5 -7h-77q-16 0 -23 5t-12 14l-128 205l-57 -58v-147q0 -8 -4 -13.5t-15 -5.5h-71q-19 0 -19 19v667q0 20 19 20h71q11 0 15 -5.5t4 -14.5v-376zM313 -134
q0 -57 -25.5 -96.5t-60.5 -60.5q-7 -4 -13.5 -4t-11.5 5l-20 19q-5 7 -4.5 11.5t8.5 12.5q18 17 24 34.5t6 33.5q0 17 -7 30.5t-18 26.5q-8 8 -8 15t11 17l50 36q11 8 19 6t16 -10q17 -16 25.5 -37t8.5 -39z" />
    <glyph glyph-name="kgreenlandic" unicode="&#x138;" horiz-adv-x="483" 
d="M168 309l75 81l83 84q8 8 15 12.5t21 4.5h80q14 0 16.5 -7t-5.5 -16l-160 -163l180 -282q5 -9 1.5 -16t-14.5 -7h-79q-16 0 -23 5t-12 14l-126 205l-55 -58v-147q0 -8 -4 -13.5t-15 -5.5h-71q-19 0 -19 19v451q0 20 19 20h71q11 0 15 -5.5t4 -14.5v-160z" />
    <glyph glyph-name="Lacute" unicode="&#x139;" horiz-adv-x="502" 
d="M185 98h286q18 0 18 -17v-63q0 -18 -19 -18h-378q-20 0 -20 18v626q0 20 19 20h75q19 0 19 -20v-546zM295 798q5 -7 2.5 -12.5t-9.5 -8.5l-155 -76q-5 -2 -10 -2t-10 6l-26 35q-7 10 5 18l143 100q8 5 12.5 2.5t9.5 -7.5z" />
    <glyph glyph-name="lacute" unicode="&#x13a;" horiz-adv-x="265" 
d="M175 124q0 -23 10.5 -28.5t36.5 -5.5q11 -1 14.5 -3t5.5 -10l4 -51q1 -12 -13 -19t-33 -9.5t-32 -2.5q-57 0 -79.5 25.5t-22.5 76.5v589q0 19 19 19h71q19 0 19 -19v-562zM294 835q5 -7 2.5 -12.5t-9.5 -8.5l-155 -76q-5 -2 -10 -2t-10 6l-26 35q-7 10 5 18l143 100
q8 5 12.5 2.5t9.5 -7.5z" />
    <glyph glyph-name="Lcommaaccent" unicode="&#x13b;" horiz-adv-x="502" 
d="M185 98h286q18 0 18 -17v-63q0 -18 -19 -18h-378q-20 0 -20 18v626q0 20 19 20h75q19 0 19 -20v-546zM343 -134q0 -57 -25.5 -96.5t-60.5 -60.5q-7 -4 -13.5 -4t-11.5 5l-20 19q-5 7 -4.5 11.5t8.5 12.5q18 17 24 34.5t6 33.5q0 17 -7 30.5t-18 26.5q-8 8 -8 15t11 17
l50 36q11 8 19 6t16 -10q17 -16 25.5 -37t8.5 -39z" />
    <glyph glyph-name="lcommaaccent" unicode="&#x13c;" horiz-adv-x="265" 
d="M175 124q0 -23 10.5 -28.5t36.5 -5.5q11 -1 14.5 -3t5.5 -10l4 -51q1 -12 -13 -19t-33 -9.5t-32 -2.5q-57 0 -79.5 25.5t-22.5 76.5v589q0 19 19 19h71q19 0 19 -19v-562zM201 -134q0 -57 -25.5 -96.5t-60.5 -60.5q-7 -4 -13.5 -4t-11.5 5l-20 19q-5 7 -4.5 11.5
t8.5 12.5q18 17 24 34.5t6 33.5q0 17 -7 30.5t-18 26.5q-8 8 -8 15t11 17l50 36q11 8 19 6t16 -10q17 -16 25.5 -37t8.5 -39z" />
    <glyph glyph-name="Lcaron" unicode="&#x13d;" horiz-adv-x="502" 
d="M185 98h286q18 0 18 -17v-63q0 -18 -19 -18h-378q-20 0 -20 18v626q0 20 19 20h75q19 0 19 -20v-546zM416 579q0 -57 -25.5 -96.5t-60.5 -60.5q-7 -4 -13.5 -4t-11.5 5l-20 19q-5 7 -4.5 11.5t8.5 12.5q18 17 24 34.5t6 33.5q0 17 -7 30.5t-18 26.5q-8 8 -8 15t11 17
l50 36q11 8 19 6t16 -10q17 -16 25.5 -37t8.5 -39z" />
    <glyph glyph-name="lcaron" unicode="&#x13e;" horiz-adv-x="353" 
d="M357 628q0 -57 -25.5 -96.5t-60.5 -60.5q-7 -4 -13.5 -4t-11.5 5l-20 19q-5 7 -4.5 11.5t8.5 12.5q18 17 24 34.5t6 33.5q0 17 -7 30.5t-18 26.5q-8 8 -8 15t11 17l50 36q11 8 19 6t16 -10q17 -16 25.5 -37t8.5 -39zM175 124q0 -23 10.5 -28.5t36.5 -5.5q11 -1 14.5 -3
t5.5 -10l4 -51q1 -12 -13 -19t-33 -9.5t-32 -2.5q-57 0 -79.5 25.5t-22.5 76.5v589q0 19 19 19h71q19 0 19 -19v-562z" />
    <glyph glyph-name="Ldot" unicode="&#x13f;" horiz-adv-x="502" 
d="M185 98h286q18 0 18 -17v-63q0 -18 -19 -18h-378q-20 0 -20 18v626q0 20 19 20h75q19 0 19 -20v-546zM404 347q0 -11 -2 -21.5t-8.5 -18.5t-18 -12.5t-29.5 -4.5q-19 0 -30.5 5t-17.5 13t-8 18t-2 21q0 23 11.5 39t46.5 16q36 0 47 -15.5t11 -39.5z" />
    <glyph glyph-name="ldot" unicode="&#x140;" horiz-adv-x="331" 
d="M337 367q0 -11 -2 -21.5t-8.5 -18.5t-18 -12.5t-29.5 -4.5q-19 0 -30.5 5t-17.5 13t-8 18t-2 21q0 23 11.5 39t46.5 16q36 0 47 -15.5t11 -39.5zM175 124q0 -23 10.5 -28.5t36.5 -5.5q11 -1 14.5 -3t5.5 -10l4 -51q1 -12 -13 -19t-33 -9.5t-32 -2.5q-57 0 -79.5 25.5
t-22.5 76.5v589q0 19 19 19h71q19 0 19 -19v-562z" />
    <glyph glyph-name="Nacute" unicode="&#x143;" horiz-adv-x="647" 
d="M183 457h-3v-438q0 -19 -19 -19h-72q-20 0 -20 19v626q0 18 19 18h57q23 0 30.5 -10t17.5 -24l126 -196l144 -225h3v435q0 10 4 15t15 5h72q19 0 19 -20v-625q0 -18 -19 -18h-57q-14 0 -20.5 4.5t-12.5 14.5l-217 331zM471 798q5 -7 2.5 -12.5t-9.5 -8.5l-155 -76
q-5 -2 -10 -2t-10 6l-26 35q-7 10 5 18l143 100q8 5 12.5 2.5t9.5 -7.5z" />
    <glyph glyph-name="nacute" unicode="&#x144;" horiz-adv-x="528" 
d="M477 19q0 -9 -4 -14t-15 -5h-72q-19 0 -19 19l1 281q0 44 -14.5 71t-57.5 27q-15 0 -34.5 -5t-39 -12.5t-36.5 -15t-27 -12.5v-334q0 -19 -19 -19h-71q-19 0 -19 19v451q0 20 19 20h71q19 0 19 -20v-30q1 0 1.5 -0.5t1.5 -0.5q14 10 33.5 20.5t41.5 19.5t46 14.5t47 5.5
q51 0 80 -15.5t44 -41.5t19 -60.5t4 -72.5v-290zM359 709q15 -8 4 -22l-102 -140q-8 -11 -19 -6l-39 18q-11 6 -5 19l80 155q6 13 22 6z" />
    <glyph glyph-name="Ncommaaccent" unicode="&#x145;" horiz-adv-x="647" 
d="M183 457h-3v-438q0 -19 -19 -19h-72q-20 0 -20 19v626q0 18 19 18h57q23 0 30.5 -10t17.5 -24l126 -196l144 -225h3v435q0 10 4 15t15 5h72q19 0 19 -20v-625q0 -18 -19 -18h-57q-14 0 -20.5 4.5t-12.5 14.5l-217 331zM387 -114q0 -57 -25.5 -96.5t-60.5 -60.5
q-7 -4 -13.5 -4t-11.5 5l-20 19q-5 7 -4.5 11.5t8.5 12.5q18 17 24 34.5t6 33.5q0 17 -7 30.5t-18 26.5q-8 8 -8 15t11 17l50 36q11 8 19 6t16 -10q17 -16 25.5 -37t8.5 -39z" />
    <glyph glyph-name="ncommaaccent" unicode="&#x146;" horiz-adv-x="528" 
d="M477 19q0 -9 -4 -14t-15 -5h-72q-19 0 -19 19l1 281q0 44 -14.5 71t-57.5 27q-15 0 -34.5 -5t-39 -12.5t-36.5 -15t-27 -12.5v-334q0 -19 -19 -19h-71q-19 0 -19 19v451q0 20 19 20h71q19 0 19 -20v-30q1 0 1.5 -0.5t1.5 -0.5q14 10 33.5 20.5t41.5 19.5t46 14.5t47 5.5
q51 0 80 -15.5t44 -41.5t19 -60.5t4 -72.5v-290zM325 -134q0 -57 -25.5 -96.5t-60.5 -60.5q-7 -4 -13.5 -4t-11.5 5l-20 19q-5 7 -4.5 11.5t8.5 12.5q18 17 24 34.5t6 33.5q0 17 -7 30.5t-18 26.5q-8 8 -8 15t11 17l50 36q11 8 19 6t16 -10q17 -16 25.5 -37t8.5 -39z" />
    <glyph glyph-name="Ncaron" unicode="&#x147;" horiz-adv-x="647" 
d="M183 457h-3v-438q0 -19 -19 -19h-72q-20 0 -20 19v626q0 18 19 18h57q23 0 30.5 -10t17.5 -24l126 -196l144 -225h3v435q0 10 4 15t15 5h72q19 0 19 -20v-625q0 -18 -19 -18h-57q-14 0 -20.5 4.5t-12.5 14.5l-217 331zM325 778l123 81q8 5 12 6t11 -5l25 -24
q5 -5 5.5 -8.5t-5.5 -10.5l-112 -105q-7 -6 -13.5 -9.5t-18.5 -3.5h-54q-14 0 -21 4t-13 10l-111 101q-11 12 -1 21l26 25q5 6 9.5 5.5t11.5 -5.5z" />
    <glyph glyph-name="ncaron" unicode="&#x148;" horiz-adv-x="528" 
d="M477 19q0 -9 -4 -14t-15 -5h-72q-19 0 -19 19l1 281q0 44 -14.5 71t-57.5 27q-15 0 -34.5 -5t-39 -12.5t-36.5 -15t-27 -12.5v-334q0 -19 -19 -19h-71q-19 0 -19 19v451q0 20 19 20h71q19 0 19 -20v-30q1 0 1.5 -0.5t1.5 -0.5q14 10 33.5 20.5t41.5 19.5t46 14.5t47 5.5
q51 0 80 -15.5t44 -41.5t19 -60.5t4 -72.5v-290zM249 611l118 105q11 10 22 0l27 -24q10 -9 0 -20l-105 -127q-6 -7 -11.5 -9.5t-22.5 -2.5h-54q-14 0 -20.5 3t-12.5 11l-106 125q-6 7 -5.5 10.5t5.5 8.5l27 25q7 6 11.5 5.5t11.5 -7.5z" />
    <glyph glyph-name="napostrophe" unicode="&#x149;" horiz-adv-x="612" 
d="M561 19q0 -9 -4 -14t-15 -5h-72q-19 0 -19 19l1 281q0 44 -14.5 71t-57.5 27q-15 0 -34.5 -5t-39 -12.5t-36.5 -15t-27 -12.5v-334q0 -19 -19 -19h-71q-19 0 -19 19v451q0 20 19 20h71q19 0 19 -20v-30q1 0 1.5 -0.5t1.5 -0.5q14 10 33.5 20.5t41.5 19.5t46 14.5t47 5.5
q51 0 80 -15.5t44 -41.5t19 -60.5t4 -72.5v-290zM131 611q0 -57 -25.5 -96.5t-60.5 -60.5q-7 -4 -13.5 -4t-11.5 5l-20 19q-5 7 -4.5 11.5t8.5 12.5q18 17 24 34.5t6 33.5q0 17 -7 30.5t-18 26.5q-8 8 -8 15t11 17l50 36q11 8 19 6t16 -10q17 -16 25.5 -37t8.5 -39z" />
    <glyph glyph-name="Omacron" unicode="&#x14c;" horiz-adv-x="660" 
d="M600 341q0 -58 -8 -120t-35.5 -113t-82 -84t-147.5 -33q-61 0 -104.5 15t-73.5 41t-47.5 60.5t-26.5 73.5t-12 80t-3 80q0 30 3 66.5t13 73t28 71t48 61.5t73 43t103 16q89 0 143 -29t82.5 -76.5t37.5 -106.5t9 -119zM485 331q0 60 -7.5 105.5t-25.5 76t-48 46t-76 15.5
q-43 0 -71.5 -16.5t-46 -47.5t-25 -76t-7.5 -103q0 -56 6.5 -101t23.5 -76t46 -47.5t74 -16.5q46 0 76 16t48 46.5t25.5 75.5t7.5 103zM188 718q-17 0 -17 16v52q0 10 4.5 13t12.5 3h275q9 0 13 -3t4 -13v-52q0 -16 -17 -16h-275z" />
    <glyph glyph-name="omacron" unicode="&#x14d;" horiz-adv-x="523" 
d="M479 253q0 -43 -5.5 -89t-27.5 -84.5t-66 -63t-122 -24.5q-75 0 -118 24.5t-64.5 63t-26.5 84.5t-5 89q0 35 6.5 78t28.5 80.5t64.5 63t114.5 25.5q73 0 116.5 -22t66.5 -57.5t30.5 -79.5t7.5 -88zM367 246q0 40 -4 69.5t-16 49t-33 29.5t-55 10q-32 0 -52 -10t-31.5 -30
t-16 -49.5t-4.5 -68.5q0 -40 4.5 -69.5t15.5 -49t31 -29.5t52 -10q34 0 55.5 9.5t33.5 29t16 49.5t4 70zM125 569q-17 0 -17 16v52q0 17 17 17h275q17 0 17 -16v-53q0 -16 -17 -16h-275z" />
    <glyph glyph-name="Obreve" unicode="&#x14e;" horiz-adv-x="660" 
d="M600 341q0 -58 -8 -120t-35.5 -113t-82 -84t-147.5 -33q-61 0 -104.5 15t-73.5 41t-47.5 60.5t-26.5 73.5t-12 80t-3 80q0 30 3 66.5t13 73t28 71t48 61.5t73 43t103 16q89 0 143 -29t82.5 -76.5t37.5 -106.5t9 -119zM485 331q0 60 -7.5 105.5t-25.5 76t-48 46t-76 15.5
q-43 0 -71.5 -16.5t-46 -47.5t-25 -76t-7.5 -103q0 -56 6.5 -101t23.5 -76t46 -47.5t74 -16.5q46 0 76 16t48 46.5t25.5 75.5t7.5 103zM331 697q-49 0 -94.5 23t-71.5 76q-4 8 -7 17t5 16l28 22q8 5 13 3t12 -9q29 -34 53.5 -50t61.5 -16q34 0 58.5 15t53.5 51q12 14 25 5
l27 -17q9 -7 6.5 -16.5t-7.5 -18.5q-27 -52 -70 -76.5t-93 -24.5z" />
    <glyph glyph-name="obreve" unicode="&#x14f;" horiz-adv-x="523" 
d="M479 253q0 -43 -5.5 -89t-27.5 -84.5t-66 -63t-122 -24.5q-75 0 -118 24.5t-64.5 63t-26.5 84.5t-5 89q0 35 6.5 78t28.5 80.5t64.5 63t114.5 25.5q73 0 116.5 -22t66.5 -57.5t30.5 -79.5t7.5 -88zM367 246q0 40 -4 69.5t-16 49t-33 29.5t-55 10q-32 0 -52 -10t-31.5 -30
t-16 -49.5t-4.5 -68.5q0 -40 4.5 -69.5t15.5 -49t31 -29.5t52 -10q34 0 55.5 9.5t33.5 29t16 49.5t4 70zM258 536q-49 0 -95.5 25.5t-70.5 78.5q-4 8 -7 17t5 16l27 22q9 6 14 3.5t12 -9.5q30 -36 54.5 -53t61.5 -17q17 0 30.5 4t26 13t25.5 22t29 31q12 14 25 5l27 -17
q10 -6 6.5 -16t-7.5 -19q-27 -53 -70 -79.5t-93 -26.5z" />
    <glyph glyph-name="Ohungarumlaut" unicode="&#x150;" horiz-adv-x="660" 
d="M600 341q0 -58 -8 -120t-35.5 -113t-82 -84t-147.5 -33q-61 0 -104.5 15t-73.5 41t-47.5 60.5t-26.5 73.5t-12 80t-3 80q0 30 3 66.5t13 73t28 71t48 61.5t73 43t103 16q89 0 143 -29t82.5 -76.5t37.5 -106.5t9 -119zM485 331q0 60 -7.5 105.5t-25.5 76t-48 46t-76 15.5
q-43 0 -71.5 -16.5t-46 -47.5t-25 -76t-7.5 -103q0 -56 6.5 -101t23.5 -76t46 -47.5t74 -16.5q46 0 76 16t48 46.5t25.5 75.5t7.5 103zM375 802q5 -7 2.5 -12.5t-8.5 -8.5l-152 -83q-5 -3 -9.5 -3.5t-10.5 5.5l-28 34q-9 9 4 17l138 107q7 6 12 4t10 -7zM560 802
q5 -7 2.5 -12.5t-8.5 -8.5l-152 -83q-5 -3 -9.5 -3.5t-10.5 5.5l-28 34q-9 9 4 17l138 107q7 6 12 4t10 -7z" />
    <glyph glyph-name="ohungarumlaut" unicode="&#x151;" horiz-adv-x="523" 
d="M479 253q0 -43 -5.5 -89t-27.5 -84.5t-66 -63t-122 -24.5q-75 0 -118 24.5t-64.5 63t-26.5 84.5t-5 89q0 35 6.5 78t28.5 80.5t64.5 63t114.5 25.5q73 0 116.5 -22t66.5 -57.5t30.5 -79.5t7.5 -88zM367 246q0 40 -4 69.5t-16 49t-33 29.5t-55 10q-32 0 -52 -10t-31.5 -30
t-16 -49.5t-4.5 -68.5q0 -40 4.5 -69.5t15.5 -49t31 -29.5t52 -10q34 0 55.5 9.5t33.5 29t16 49.5t4 70zM307 709q13 -8 4 -22l-102 -140q-8 -11 -19 -6l-40 18q-5 3 -7 7t3 12l79 155q8 13 22 6zM454 709q13 -8 4 -22l-102 -140q-4 -5 -7.5 -7t-11.5 1l-39 18q-11 6 -5 19
l80 155q7 13 21 6z" />
    <glyph glyph-name="Racute" unicode="&#x154;" horiz-adv-x="558" 
d="M524 21q4 -9 0.5 -15t-11.5 -6h-86q-11 0 -17.5 3t-11.5 14l-117 251h-102v-248q0 -20 -19 -20h-74q-20 0 -20 19v626q0 19 20 19h222q39 0 75.5 -11t65 -34.5t46 -60.5t17.5 -89q0 -27 -6.5 -54t-20.5 -51.5t-36.5 -45t-55.5 -32.5zM395 469q0 28 -9 46.5t-24 29.5
t-35 15.5t-42 4.5h-106v-202h104q18 0 38 4t36.5 15t27 32t10.5 55zM419 798q5 -7 2.5 -12.5t-9.5 -8.5l-155 -76q-5 -2 -10 -2t-10 6l-26 35q-7 10 5 18l143 100q8 5 12.5 2.5t9.5 -7.5z" />
    <glyph glyph-name="racute" unicode="&#x155;" horiz-adv-x="364" 
d="M182 19q0 -19 -19 -19h-72q-19 0 -19 19v451q0 20 19 20h71q20 0 20 -20v-44l2 -2q11 10 29 21.5t38.5 21t41.5 17.5t39 11q10 2 16 -1t8 -16l7 -67q1 -11 -1 -16t-18 -8q-21 -4 -44 -9.5t-45 -12t-41 -12.5t-32 -12v-322zM304 709q15 -8 4 -22l-102 -140q-8 -11 -19 -6
l-39 18q-11 6 -5 19l80 155q6 13 22 6z" />
    <glyph glyph-name="Rcommaaccent" unicode="&#x156;" horiz-adv-x="558" 
d="M524 21q4 -9 0.5 -15t-11.5 -6h-86q-11 0 -17.5 3t-11.5 14l-117 251h-102v-248q0 -20 -19 -20h-74q-20 0 -20 19v626q0 19 20 19h222q39 0 75.5 -11t65 -34.5t46 -60.5t17.5 -89q0 -27 -6.5 -54t-20.5 -51.5t-36.5 -45t-55.5 -32.5zM395 469q0 28 -9 46.5t-24 29.5
t-35 15.5t-42 4.5h-106v-202h104q18 0 38 4t36.5 15t27 32t10.5 55zM343 -114q0 -57 -25.5 -96.5t-60.5 -60.5q-7 -4 -13.5 -4t-11.5 5l-20 19q-5 7 -4.5 11.5t8.5 12.5q18 17 24 34.5t6 33.5q0 17 -7 30.5t-18 26.5q-8 8 -8 15t11 17l50 36q11 8 19 6t16 -10
q17 -16 25.5 -37t8.5 -39z" />
    <glyph glyph-name="rcommaaccent" unicode="&#x157;" horiz-adv-x="364" 
d="M182 19q0 -19 -19 -19h-72q-19 0 -19 19v451q0 20 19 20h71q20 0 20 -20v-44l2 -2q11 10 29 21.5t38.5 21t41.5 17.5t39 11q10 2 16 -1t8 -16l7 -67q1 -11 -1 -16t-18 -8q-21 -4 -44 -9.5t-45 -12t-41 -12.5t-32 -12v-322zM192 -134q0 -57 -25.5 -96.5t-60.5 -60.5
q-7 -4 -13.5 -4t-11.5 5l-20 19q-5 7 -4.5 11.5t8.5 12.5q18 17 24 34.5t6 33.5q0 17 -7 30.5t-18 26.5q-8 8 -8 15t11 17l50 36q11 8 19 6t16 -10q17 -16 25.5 -37t8.5 -39z" />
    <glyph glyph-name="Rcaron" unicode="&#x158;" horiz-adv-x="558" 
d="M524 21q4 -9 0.5 -15t-11.5 -6h-86q-11 0 -17.5 3t-11.5 14l-117 251h-102v-248q0 -20 -19 -20h-74q-20 0 -20 19v626q0 19 20 19h222q39 0 75.5 -11t65 -34.5t46 -60.5t17.5 -89q0 -27 -6.5 -54t-20.5 -51.5t-36.5 -45t-55.5 -32.5zM395 469q0 28 -9 46.5t-24 29.5
t-35 15.5t-42 4.5h-106v-202h104q18 0 38 4t36.5 15t27 32t10.5 55zM269 778l123 81q8 5 12 6t11 -5l25 -24q5 -5 5.5 -8.5t-5.5 -10.5l-112 -105q-7 -6 -13.5 -9.5t-18.5 -3.5h-54q-14 0 -21 4t-13 10l-111 101q-11 12 -1 21l26 25q5 6 9.5 5.5t11.5 -5.5z" />
    <glyph glyph-name="rcaron" unicode="&#x159;" horiz-adv-x="364" 
d="M182 19q0 -19 -19 -19h-72q-19 0 -19 19v451q0 20 19 20h71q20 0 20 -20v-44l2 -2q11 10 29 21.5t38.5 21t41.5 17.5t39 11q10 2 16 -1t8 -16l7 -67q1 -11 -1 -16t-18 -8q-21 -4 -44 -9.5t-45 -12t-41 -12.5t-32 -12v-322zM174 611l118 105q11 10 22 0l27 -24
q10 -9 0 -20l-105 -127q-6 -7 -11.5 -9.5t-22.5 -2.5h-54q-14 0 -20.5 3t-12.5 11l-106 125q-6 7 -5.5 10.5t5.5 8.5l27 25q7 6 11.5 5.5t11.5 -7.5z" />
    <glyph glyph-name="Sacute" unicode="&#x15a;" horiz-adv-x="550" 
d="M262 -9q-19 0 -44 1.5t-51.5 5t-52.5 9t-45 13.5q-17 7 -19.5 14t-0.5 17l9 41q3 13 8.5 15t18.5 0q19 -2 43 -4.5t48 -4.5t46.5 -3.5t39.5 -1.5q128 0 128 88q0 27 -6 44.5t-20 29.5t-36.5 19t-56.5 13q-44 9 -84.5 20t-71.5 31t-49 53t-18 84q0 95 60.5 145t166.5 50
q14 0 36.5 -1t48 -3.5t51.5 -8t48 -14.5q17 -7 19.5 -14t0.5 -17l-10 -41q-3 -12 -9 -14.5t-20 -1.5q-34 5 -74.5 9t-85.5 4q-64 0 -89.5 -23.5t-25.5 -65.5q0 -24 6.5 -38.5t20.5 -23.5t36.5 -14.5t55.5 -11.5q43 -9 83 -20t70.5 -32t49 -56t18.5 -92t-20 -95t-53.5 -61.5
t-77.5 -33.5t-92 -10zM403 798q5 -7 2.5 -12.5t-9.5 -8.5l-155 -76q-5 -2 -10 -2t-10 6l-26 35q-7 10 5 18l143 100q8 5 12.5 2.5t9.5 -7.5z" />
    <glyph glyph-name="sacute" unicode="&#x15b;" horiz-adv-x="459" 
d="M420 147q0 -44 -17 -73.5t-45.5 -47.5t-64.5 -26t-75 -8q-38 0 -82 5.5t-73 16.5q-15 6 -19 13.5t-2 19.5l7 33q2 12 8 14.5t18 0.5q16 -3 35.5 -5t39 -3.5t37 -2.5t30.5 -1q48 0 69 13.5t21 43.5q0 17 -3.5 28t-12.5 18t-24.5 11.5t-39.5 7.5q-37 5 -70 13t-58.5 23.5
t-40.5 41t-15 66.5q0 74 52 112.5t136 38.5q15 0 35 -1t40.5 -4t40.5 -7t36 -10q25 -10 21 -30l-8 -36q-2 -11 -7.5 -13.5t-19.5 -0.5q-32 4 -70 7.5t-66 3.5q-48 0 -63.5 -13.5t-15.5 -42.5t19.5 -38t65.5 -16q36 -5 68.5 -13t57.5 -24t40 -43t15 -72zM348 709q15 -8 4 -22
l-102 -140q-8 -11 -19 -6l-39 18q-11 6 -5 19l80 155q6 13 22 6z" />
    <glyph glyph-name="Scircumflex" unicode="&#x15c;" horiz-adv-x="550" 
d="M262 -9q-19 0 -44 1.5t-51.5 5t-52.5 9t-45 13.5q-17 7 -19.5 14t-0.5 17l9 41q3 13 8.5 15t18.5 0q19 -2 43 -4.5t48 -4.5t46.5 -3.5t39.5 -1.5q128 0 128 88q0 27 -6 44.5t-20 29.5t-36.5 19t-56.5 13q-44 9 -84.5 20t-71.5 31t-49 53t-18 84q0 95 60.5 145t166.5 50
q14 0 36.5 -1t48 -3.5t51.5 -8t48 -14.5q17 -7 19.5 -14t0.5 -17l-10 -41q-3 -12 -9 -14.5t-20 -1.5q-34 5 -74.5 9t-85.5 4q-64 0 -89.5 -23.5t-25.5 -65.5q0 -24 6.5 -38.5t20.5 -23.5t36.5 -14.5t55.5 -11.5q43 -9 83 -20t70.5 -32t49 -56t18.5 -92t-20 -95t-53.5 -61.5
t-77.5 -33.5t-92 -10zM148 697q-8 -6 -12.5 -6.5t-10.5 5.5l-25 26q-5 5 -5.5 8.5t5.5 10.5l111 104q8 7 14.5 10.5t18.5 3.5h54q14 0 20 -3t14 -9l110 -103q7 -6 6 -11t-6 -10l-25 -25q-6 -6 -10 -5.5t-11 5.5l-126 85z" />
    <glyph glyph-name="scircumflex" unicode="&#x15d;" horiz-adv-x="459" 
d="M420 147q0 -44 -17 -73.5t-45.5 -47.5t-64.5 -26t-75 -8q-38 0 -82 5.5t-73 16.5q-15 6 -19 13.5t-2 19.5l7 33q2 12 8 14.5t18 0.5q16 -3 35.5 -5t39 -3.5t37 -2.5t30.5 -1q48 0 69 13.5t21 43.5q0 17 -3.5 28t-12.5 18t-24.5 11.5t-39.5 7.5q-37 5 -70 13t-58.5 23.5
t-40.5 41t-15 66.5q0 74 52 112.5t136 38.5q15 0 35 -1t40.5 -4t40.5 -7t36 -10q25 -10 21 -30l-8 -36q-2 -11 -7.5 -13.5t-19.5 -0.5q-32 4 -70 7.5t-66 3.5q-48 0 -63.5 -13.5t-15.5 -42.5t19.5 -38t65.5 -16q36 -5 68.5 -13t57.5 -24t40 -43t15 -72zM112 538
q-8 -7 -12 -7.5t-11 5.5l-27 25q-6 5 -6 8.5t6 10.5l106 125q6 8 12 11t20 3h55q16 0 22 -2.5t11 -9.5l105 -127q11 -11 1 -20l-27 -24q-12 -9 -22 0l-119 105z" />
    <glyph glyph-name="Scedilla" unicode="&#x15e;" horiz-adv-x="550" 
d="M292 -119q0 20 -15 25t-53 7q-22 2 -14 23l19 56q-19 1 -40.5 3t-43 5.5t-41 8.5t-35.5 11q-17 7 -19.5 14t-0.5 17l9 41q3 13 8.5 15t18.5 0q19 -2 43 -4.5t48 -4.5t46.5 -3.5t39.5 -1.5q128 0 128 88q0 27 -6 44.5t-20 29.5t-36.5 19t-56.5 13q-44 9 -84.5 20t-71.5 31
t-49 53t-18 84q0 95 60.5 145t166.5 50q14 0 36.5 -1t48 -3.5t51.5 -8t48 -14.5q17 -7 19.5 -14t0.5 -17l-10 -41q-3 -12 -9 -14.5t-20 -1.5q-34 5 -74.5 9t-85.5 4q-64 0 -89.5 -23.5t-25.5 -65.5q0 -24 6.5 -38.5t20.5 -23.5t36.5 -14.5t55.5 -11.5q43 -9 83 -20t70.5 -32
t49 -56t18.5 -92q0 -54 -18.5 -91.5t-49.5 -61t-72.5 -34.5t-86.5 -12l-14 -38q30 -1 49 -7t29.5 -16t14.5 -22.5t4 -26.5q0 -42 -30 -66t-89 -24q-14 0 -36.5 3t-39.5 8q-10 3 -8 12l7 28q1 7 11 6q14 -2 31 -4t29 -2q23 0 39.5 6.5t16.5 31.5z" />
    <glyph glyph-name="scedilla" unicode="&#x15f;" horiz-adv-x="459" 
d="M256 -119q0 20 -15 25t-53 7q-22 2 -14 23l20 57q-35 2 -71 6.5t-60 14.5q-15 6 -19 13.5t-2 19.5l7 33q2 12 8 14.5t18 0.5q16 -3 35.5 -5t39 -3.5t37 -2.5t30.5 -1q48 0 69 13.5t21 43.5q0 17 -3.5 28t-12.5 18t-24.5 11.5t-39.5 7.5q-37 5 -70 13t-58.5 23.5t-40.5 41
t-15 66.5q0 74 52 112.5t136 38.5q15 0 35 -1t40.5 -4t40.5 -7t36 -10q25 -10 21 -30l-8 -36q-2 -11 -7.5 -13.5t-19.5 -0.5q-32 4 -70 7.5t-66 3.5q-48 0 -63.5 -13.5t-15.5 -42.5t19.5 -38t65.5 -16q36 -5 68.5 -13t57.5 -24t40 -43t15 -72q0 -41 -14.5 -69t-39 -46
t-57 -27.5t-67.5 -11.5l-14 -39q30 -1 49 -7t29.5 -16t14.5 -22.5t4 -26.5q0 -42 -30 -66t-89 -24q-14 0 -36.5 3t-39.5 8q-10 3 -8 12l7 28q1 7 11 6q14 -2 31 -4t29 -2q23 0 39.5 6.5t16.5 31.5z" />
    <glyph glyph-name="Tcommaaccent" unicode="&#x162;" horiz-adv-x="498" 
d="M484 583q0 -18 -20 -18h-159v-546q0 -8 -3.5 -13.5t-14.5 -5.5h-75q-19 0 -19 19v546h-158q-12 0 -16 4.5t-4 13.5v62q0 9 4 14t15 5h431q19 0 19 -19v-62zM310 -134q0 -57 -25.5 -96.5t-60.5 -60.5q-7 -4 -13.5 -4t-11.5 5l-20 19q-5 7 -4.5 11.5t8.5 12.5
q18 17 24 34.5t6 33.5q0 17 -7 30.5t-18 26.5q-8 8 -8 15t11 17l50 36q11 8 19 6t16 -10q17 -16 25.5 -37t8.5 -39z" />
    <glyph glyph-name="tcommaaccent" unicode="&#x163;" horiz-adv-x="361" 
d="M359 38q3 -17 -13 -25q-13 -6 -30.5 -10t-36 -6.5t-35 -3.5t-28.5 -1q-44 0 -68.5 12.5t-36.5 34.5t-15 51t-3 61v251h-50q-11 0 -15 4.5t-4 14.5v49q0 10 4 15t15 5h51v103q0 11 5.5 15.5t13.5 6.5l67 18q20 5 20 -12v-131h107q12 0 15.5 -5t3.5 -14v-50
q0 -10 -3.5 -14.5t-15.5 -4.5h-107v-249q0 -20 3 -31t10.5 -16.5t20.5 -6.5t33 -1q11 0 31.5 1t35.5 3q8 1 12 -2t6 -12zM247 -134q0 -57 -25.5 -96.5t-60.5 -60.5q-7 -4 -13.5 -4t-11.5 5l-20 19q-5 7 -4.5 11.5t8.5 12.5q18 17 24 34.5t6 33.5q0 17 -7 30.5t-18 26.5
q-8 8 -8 15t11 17l50 36q11 8 19 6t16 -10q17 -16 25.5 -37t8.5 -39z" />
    <glyph glyph-name="Tcaron" unicode="&#x164;" horiz-adv-x="498" 
d="M484 583q0 -18 -20 -18h-159v-546q0 -8 -3.5 -13.5t-14.5 -5.5h-75q-19 0 -19 19v546h-158q-12 0 -16 4.5t-4 13.5v62q0 9 4 14t15 5h431q19 0 19 -19v-62zM249 778l123 81q8 5 12 6t11 -5l25 -24q5 -5 5.5 -8.5t-5.5 -10.5l-112 -105q-7 -6 -13.5 -9.5t-18.5 -3.5h-54
q-14 0 -21 4t-13 10l-111 101q-11 12 -1 21l26 25q5 6 9.5 5.5t11.5 -5.5z" />
    <glyph glyph-name="tcaron" unicode="&#x165;" horiz-adv-x="385" 
d="M395 689q0 -57 -25.5 -96.5t-60.5 -60.5q-7 -4 -13.5 -4t-11.5 5l-20 19q-5 7 -4.5 11.5t8.5 12.5q18 17 24 34.5t6 33.5q0 17 -7 30.5t-18 26.5q-8 8 -8 15t11 17l50 36q11 8 19 6t16 -10q17 -16 25.5 -37t8.5 -39zM359 38q3 -17 -13 -25q-13 -6 -30.5 -10t-36 -6.5
t-35 -3.5t-28.5 -1q-44 0 -68.5 12.5t-36.5 34.5t-15 51t-3 61v251h-50q-11 0 -15 4.5t-4 14.5v49q0 10 4 15t15 5h51v103q0 11 5.5 15.5t13.5 6.5l67 18q20 5 20 -12v-131h107q12 0 15.5 -5t3.5 -14v-50q0 -10 -3.5 -14.5t-15.5 -4.5h-107v-249q0 -20 3 -31t10.5 -16.5
t20.5 -6.5t33 -1q11 0 31.5 1t35.5 3q8 1 12 -2t6 -12z" />
    <glyph glyph-name="Utilde" unicode="&#x168;" horiz-adv-x="628" 
d="M314 92q66 0 100.5 36.5t34.5 114.5v401q0 20 20 20h75q11 0 14.5 -5.5t3.5 -14.5l-1 -401q0 -30 -3.5 -59.5t-14.5 -58.5q-15 -36 -38.5 -61t-53.5 -41t-65 -23.5t-72 -7.5q-158 0 -216 111q-16 30 -23 65.5t-7 74.5v401q0 20 19 20h75q19 0 19 -20v-401
q0 -74 33.5 -112.5t99.5 -38.5zM400 698q-17 0 -37.5 8t-41.5 17.5t-41 17.5t-35 8q-11 0 -25 -6t-30 -32q-4 -6 -7.5 -7.5t-13.5 3.5l-28 12q-11 4 -6 19q20 53 51 74t59 21q20 0 41 -8t41.5 -17t38.5 -17t33 -8q32 0 52 37q4 6 8.5 8t13.5 -2l28 -13q8 -3 8.5 -8t-1.5 -11
q-20 -52 -47 -74t-61 -22z" />
    <glyph glyph-name="utilde" unicode="&#x169;" horiz-adv-x="531" 
d="M478 19q0 -19 -19 -19h-71q-11 0 -15 5t-4 14v31l-2 1q-15 -10 -34.5 -20.5t-41.5 -19.5t-45.5 -14.5t-46.5 -5.5q-51 0 -80.5 14t-44.5 39t-19 59t-4 73v294q0 20 19 20h73q18 0 18 -20v-281q0 -23 3 -41t11 -30.5t22 -19.5t37 -7q16 0 35.5 5t38.5 12.5t35 15t26 12.5
v334q0 9 4 14.5t15 5.5h71q19 0 19 -20v-451zM348 548q-17 0 -37.5 8t-41.5 17.5t-41 17.5t-35 8q-11 0 -25 -6t-30 -32q-4 -6 -7.5 -7.5t-13.5 3.5l-28 12q-11 4 -6 19q20 53 51 74t59 21q20 0 41 -8t41.5 -17t38.5 -17t33 -8q32 0 52 37q4 6 8.5 8t13.5 -2l28 -13
q8 -3 8.5 -8t-1.5 -11q-20 -52 -47 -74t-61 -22z" />
    <glyph glyph-name="Umacron" unicode="&#x16a;" horiz-adv-x="628" 
d="M314 92q66 0 100.5 36.5t34.5 114.5v401q0 20 20 20h75q11 0 14.5 -5.5t3.5 -14.5l-1 -401q0 -30 -3.5 -59.5t-14.5 -58.5q-15 -36 -38.5 -61t-53.5 -41t-65 -23.5t-72 -7.5q-158 0 -216 111q-16 30 -23 65.5t-7 74.5v401q0 20 19 20h75q19 0 19 -20v-401
q0 -74 33.5 -112.5t99.5 -38.5zM180 718q-17 0 -17 16v52q0 10 4.5 13t12.5 3h275q9 0 13 -3t4 -13v-52q0 -16 -17 -16h-275z" />
    <glyph glyph-name="umacron" unicode="&#x16b;" horiz-adv-x="531" 
d="M478 19q0 -19 -19 -19h-71q-11 0 -15 5t-4 14v31l-2 1q-15 -10 -34.5 -20.5t-41.5 -19.5t-45.5 -14.5t-46.5 -5.5q-51 0 -80.5 14t-44.5 39t-19 59t-4 73v294q0 20 19 20h73q18 0 18 -20v-281q0 -23 3 -41t11 -30.5t22 -19.5t37 -7q16 0 35.5 5t38.5 12.5t35 15t26 12.5
v334q0 9 4 14.5t15 5.5h71q19 0 19 -20v-451zM128 569q-17 0 -17 16v52q0 17 17 17h275q17 0 17 -16v-53q0 -16 -17 -16h-275z" />
    <glyph glyph-name="Ubreve" unicode="&#x16c;" horiz-adv-x="628" 
d="M314 92q66 0 100.5 36.5t34.5 114.5v401q0 20 20 20h75q11 0 14.5 -5.5t3.5 -14.5l-1 -401q0 -30 -3.5 -59.5t-14.5 -58.5q-15 -36 -38.5 -61t-53.5 -41t-65 -23.5t-72 -7.5q-158 0 -216 111q-16 30 -23 65.5t-7 74.5v401q0 20 19 20h75q19 0 19 -20v-401
q0 -74 33.5 -112.5t99.5 -38.5zM318 686q-49 0 -95.5 25.5t-70.5 78.5q-4 8 -7 17t5 16l27 22q9 6 14 3.5t12 -9.5q30 -36 54.5 -53t61.5 -17q17 0 30.5 4t26 13t25.5 22t29 31q12 14 25 5l27 -17q10 -6 6.5 -16t-7.5 -19q-27 -53 -70 -79.5t-93 -26.5z" />
    <glyph glyph-name="ubreve" unicode="&#x16d;" horiz-adv-x="531" 
d="M478 19q0 -19 -19 -19h-71q-11 0 -15 5t-4 14v31l-2 1q-15 -10 -34.5 -20.5t-41.5 -19.5t-45.5 -14.5t-46.5 -5.5q-51 0 -80.5 14t-44.5 39t-19 59t-4 73v294q0 20 19 20h73q18 0 18 -20v-281q0 -23 3 -41t11 -30.5t22 -19.5t37 -7q16 0 35.5 5t38.5 12.5t35 15t26 12.5
v334q0 9 4 14.5t15 5.5h71q19 0 19 -20v-451zM264 536q-49 0 -95.5 25.5t-70.5 78.5q-4 8 -7 17t5 16l27 22q9 6 14 3.5t12 -9.5q30 -36 54.5 -53t61.5 -17q17 0 30.5 4t26 13t25.5 22t29 31q12 14 25 5l27 -17q10 -6 6.5 -16t-7.5 -19q-27 -53 -70 -79.5t-93 -26.5z" />
    <glyph glyph-name="Uring" unicode="&#x16e;" horiz-adv-x="628" 
d="M314 92q66 0 100.5 36.5t34.5 114.5v401q0 20 20 20h75q11 0 14.5 -5.5t3.5 -14.5l-1 -401q0 -30 -3.5 -59.5t-14.5 -58.5q-15 -36 -38.5 -61t-53.5 -41t-65 -23.5t-72 -7.5q-158 0 -216 111q-16 30 -23 65.5t-7 74.5v401q0 20 19 20h75q19 0 19 -20v-401
q0 -74 33.5 -112.5t99.5 -38.5zM321 678q-22 0 -42 8t-35.5 22.5t-25 34t-9.5 43.5q0 23 9.5 42.5t25 34t35.5 22.5t42 8q23 0 43 -8.5t35 -23.5t23.5 -34.5t8.5 -40.5q0 -22 -8.5 -41.5t-23.5 -34.5t-35 -23.5t-43 -8.5zM321 835q-19 0 -33 -15t-14 -34q0 -22 13 -36
t34 -14q20 0 33.5 14.5t13.5 35.5q0 19 -13.5 34t-33.5 15z" />
    <glyph glyph-name="uring" unicode="&#x16f;" horiz-adv-x="531" 
d="M478 19q0 -19 -19 -19h-71q-11 0 -15 5t-4 14v31l-2 1q-15 -10 -34.5 -20.5t-41.5 -19.5t-45.5 -14.5t-46.5 -5.5q-51 0 -80.5 14t-44.5 39t-19 59t-4 73v294q0 20 19 20h73q18 0 18 -20v-281q0 -23 3 -41t11 -30.5t22 -19.5t37 -7q16 0 35.5 5t38.5 12.5t35 15t26 12.5
v334q0 9 4 14.5t15 5.5h71q19 0 19 -20v-451zM268 524q-22 0 -42 8t-35.5 22.5t-25 34t-9.5 43.5q0 23 9.5 42.5t25 34t35.5 22.5t42 8q23 0 43 -8.5t35 -23.5t23.5 -34.5t8.5 -40.5q0 -22 -8.5 -41.5t-23.5 -34.5t-35 -23.5t-43 -8.5zM268 681q-19 0 -33 -15t-14 -34
q0 -22 13 -36t34 -14q20 0 33.5 14.5t13.5 35.5q0 19 -13.5 34t-33.5 15z" />
    <glyph glyph-name="Uhungarumlaut" unicode="&#x170;" horiz-adv-x="628" 
d="M314 92q66 0 100.5 36.5t34.5 114.5v401q0 20 20 20h75q11 0 14.5 -5.5t3.5 -14.5l-1 -401q0 -30 -3.5 -59.5t-14.5 -58.5q-15 -36 -38.5 -61t-53.5 -41t-65 -23.5t-72 -7.5q-158 0 -216 111q-16 30 -23 65.5t-7 74.5v401q0 20 19 20h75q19 0 19 -20v-401
q0 -74 33.5 -112.5t99.5 -38.5zM365 802q5 -7 2.5 -12.5t-8.5 -8.5l-152 -83q-5 -3 -9.5 -3.5t-10.5 5.5l-28 34q-9 9 4 17l138 107q7 6 12 4t10 -7zM550 802q5 -7 2.5 -12.5t-8.5 -8.5l-152 -83q-5 -3 -9.5 -3.5t-10.5 5.5l-28 34q-9 9 4 17l138 107q7 6 12 4t10 -7z" />
    <glyph glyph-name="uhungarumlaut" unicode="&#x171;" horiz-adv-x="531" 
d="M478 19q0 -19 -19 -19h-71q-11 0 -15 5t-4 14v31l-2 1q-15 -10 -34.5 -20.5t-41.5 -19.5t-45.5 -14.5t-46.5 -5.5q-51 0 -80.5 14t-44.5 39t-19 59t-4 73v294q0 20 19 20h73q18 0 18 -20v-281q0 -23 3 -41t11 -30.5t22 -19.5t37 -7q16 0 35.5 5t38.5 12.5t35 15t26 12.5
v334q0 9 4 14.5t15 5.5h71q19 0 19 -20v-451zM313 709q13 -8 4 -22l-102 -140q-8 -11 -19 -6l-40 18q-5 3 -7 7t3 12l79 155q8 13 22 6zM460 709q13 -8 4 -22l-102 -140q-4 -5 -7.5 -7t-11.5 1l-39 18q-11 6 -5 19l80 155q7 13 21 6z" />
    <glyph glyph-name="Wcircumflex" unicode="&#x174;" horiz-adv-x="842" 
d="M419 337l-21 -71l-73 -245q-3 -11 -8.5 -16t-19.5 -5h-72q-14 0 -20 5t-8 15l-179 624q-5 20 13 20h79q12 0 17.5 -4.5t8.5 -15.5q25 -91 46 -166q9 -32 17.5 -63.5t16 -57.5t12.5 -45t7 -25l32 -125h3l29 103q1 4 6 22.5t12.5 44t16 54.5t16 55t12.5 44.5t7 23.5
l-41 135q-2 8 0.5 14t10.5 6h75q23 0 28 -20q27 -93 48 -170q9 -33 18 -65t16.5 -59t12.5 -46.5t7 -25.5l30 -116h4l28 119q2 6 7 25.5t12 46.5t15.5 59t17.5 64q20 76 45 168q5 20 28 20h76q18 0 11 -22l-173 -621q-3 -11 -9.5 -16t-20.5 -5h-69q-16 0 -21.5 5.5t-8.5 15.5
l-73 247l-20 70zM282 697q-8 -6 -12.5 -6.5t-10.5 5.5l-25 26q-5 5 -5.5 8.5t5.5 10.5l111 104q8 7 14.5 10.5t18.5 3.5h54q14 0 20 -3t14 -9l110 -103q7 -6 6 -11t-6 -10l-25 -25q-6 -6 -10 -5.5t-11 5.5l-126 85z" />
    <glyph glyph-name="wcircumflex" unicode="&#x175;" horiz-adv-x="719" 
d="M446 287l46 -154l1 1q1 0 2 -1l47 166l50 173q2 11 6 14.5t13 3.5h80q11 0 11.5 -5.5t-1.5 -12.5l-147 -451q-5 -17 -13.5 -19t-15.5 -2h-57q-21 0 -27 20l-35 105l-42 127h-2l-42 -128l-34 -101q-7 -23 -32 -23h-52q-18 0 -23.5 6.5t-10.5 20.5l-150 444q-2 7 0 13t11 6
h80q10 0 14.5 -4t7.5 -14l51 -169l50 -173h3l48 151l31 92l-31 98q-2 7 0.5 13t10.5 6h74q11 0 15 -4t7 -15zM232 538q-8 -7 -12 -7.5t-11 5.5l-27 25q-6 5 -6 8.5t6 10.5l106 125q6 8 12 11t20 3h55q16 0 22 -2.5t11 -9.5l105 -127q11 -11 1 -20l-27 -24q-12 -9 -22 0
l-119 105z" />
    <glyph glyph-name="Ycircumflex" unicode="&#x176;" horiz-adv-x="560" 
d="M221 273l-206 372q-3 7 -0.5 12.5t10.5 5.5h85q13 0 18 -3.5t10 -13.5l81 -156l57 -110h6l60 113l81 150q5 11 10.5 15.5t17.5 4.5h82q10 0 12.5 -5t-1.5 -13l-211 -372v-254q0 -8 -3.5 -13.5t-14.5 -5.5h-74q-20 0 -20 19v254zM156 697q-8 -6 -12.5 -6.5t-10.5 5.5
l-25 26q-5 5 -5.5 8.5t5.5 10.5l111 104q8 7 14.5 10.5t18.5 3.5h54q14 0 20 -3t14 -9l110 -103q7 -6 6 -11t-6 -10l-25 -25q-6 -6 -10 -5.5t-11 5.5l-126 85z" />
    <glyph glyph-name="ycircumflex" unicode="&#x177;" horiz-adv-x="491" 
d="M249 140q11 31 20.5 58t16.5 47q8 24 15 44l62 184q3 9 8 13t16 4h74q12 0 13 -6t-2 -14l-233 -636q-4 -10 -9 -14t-18 -4h-68q-12 0 -13.5 6t1.5 14l63 169l-175 465q-3 8 -1.5 14t12.5 6h77q10 0 14 -2t8 -13l65 -186l50 -149h4zM134 538q-8 -7 -12 -7.5t-11 5.5
l-27 25q-6 5 -6 8.5t6 10.5l106 125q6 8 12 11t20 3h55q16 0 22 -2.5t11 -9.5l105 -127q11 -11 1 -20l-27 -24q-12 -9 -22 0l-119 105z" />
    <glyph glyph-name="Zacute" unicode="&#x179;" horiz-adv-x="515" 
d="M168 98h291q11 0 15 -4.5t4 -13.5v-61q0 -9 -3.5 -14t-14.5 -5h-403q-18 0 -18 18v55q0 8 2 17.5t8 17.5l298 457h-269q-11 0 -15 4.5t-4 13.5v62q0 9 3.5 14t14.5 5h380q19 0 19 -17l-1 -55q0 -11 -2.5 -18.5t-7.5 -16.5zM391 798q5 -7 2.5 -12.5t-9.5 -8.5l-155 -76
q-5 -2 -10 -2t-10 6l-26 35q-7 10 5 18l143 100q8 5 12.5 2.5t9.5 -7.5z" />
    <glyph glyph-name="zacute" unicode="&#x17a;" horiz-adv-x="450" 
d="M396 93q20 0 20 -18v-56q0 -19 -19 -19h-349q-17 0 -17 17v44q0 8 1.5 16t9.5 17l240 305h-218q-19 0 -19 19v54q0 18 19 18h328q10 0 14.5 -3t4.5 -14v-49q0 -18 -12 -33l-234 -298h231zM341 709q15 -8 4 -22l-102 -140q-8 -11 -19 -6l-39 18q-11 6 -5 19l80 155
q6 13 22 6z" />
    <glyph glyph-name="Zdotaccent" unicode="&#x17b;" horiz-adv-x="515" 
d="M168 98h291q11 0 15 -4.5t4 -13.5v-61q0 -9 -3.5 -14t-14.5 -5h-403q-18 0 -18 18v55q0 8 2 17.5t8 17.5l298 457h-269q-11 0 -15 4.5t-4 13.5v62q0 9 3.5 14t14.5 5h380q19 0 19 -17l-1 -55q0 -11 -2.5 -18.5t-7.5 -16.5zM337 776q0 -11 -2 -21.5t-8.5 -18.5t-18 -12.5
t-29.5 -4.5q-19 0 -30.5 5t-17.5 13t-8 18t-2 21q0 23 11.5 39t46.5 16q36 0 47 -15.5t11 -39.5z" />
    <glyph glyph-name="zdotaccent" unicode="&#x17c;" horiz-adv-x="450" 
d="M396 93q20 0 20 -18v-56q0 -19 -19 -19h-349q-17 0 -17 17v44q0 8 1.5 16t9.5 17l240 305h-218q-19 0 -19 19v54q0 18 19 18h328q10 0 14.5 -3t4.5 -14v-49q0 -18 -12 -33l-234 -298h231zM298 617q0 -11 -2 -21.5t-8.5 -18.5t-18 -12.5t-29.5 -4.5q-19 0 -30.5 5
t-17.5 13t-8 18t-2 21q0 23 11.5 39t46.5 16q36 0 47 -15.5t11 -39.5z" />
    <glyph glyph-name="AEacute" unicode="&#x1fc;" horiz-adv-x="902" 
d="M445 165h-225l-86 -146q-7 -11 -14 -15t-18 -4h-82q-20 0 -9 19l363 625q6 11 13 15.5t21 4.5h424q20 0 20 -19v-62q0 -18 -20 -18h-273v-172h242q19 0 19 -18v-62q0 -18 -19 -18h-242v-197h280q18 0 18 -19v-61q0 -18 -19 -18h-373q-14 0 -17 4t-3 12v149zM442 561
l-169 -302h172v302h-3zM697 798q5 -7 2.5 -12.5t-9.5 -8.5l-155 -76q-5 -2 -10 -2t-10 6l-26 35q-7 10 5 18l143 100q8 5 12.5 2.5t9.5 -7.5z" />
    <glyph glyph-name="aeacute" unicode="&#x1fd;" horiz-adv-x="816" 
d="M576 499q67 0 109.5 -20t66 -52.5t32 -73.5t8.5 -83q0 -25 -10 -41t-39 -16h-269q1 -38 8 -62.5t20.5 -39t35.5 -20t54 -5.5q14 0 31.5 1t36.5 2.5t37 3.5t32 4q11 3 17.5 1.5t9.5 -14.5l8 -38q5 -22 -19 -30q-15 -6 -36 -10.5t-44 -7.5t-45.5 -5t-40.5 -2
q-71 0 -113.5 19.5t-65.5 53.5q-8 -6 -16 -11.5t-18 -11.5q-37 -22 -82 -35.5t-100 -13.5q-41 0 -68 10t-43 29t-22.5 44.5t-6.5 57.5q0 84 46 120.5t142 36.5h128v37q0 22 -4.5 37.5t-16.5 25t-32 13.5t-51 4q-12 0 -29 -1t-36 -2t-37.5 -3t-34.5 -3q-9 -1 -16.5 -0.5
t-10.5 13.5l-9 37q-2 11 2 16.5t21 12.5q16 6 38 10t45 7t45.5 4t40.5 1q62 0 98.5 -13t56.5 -39q24 23 59.5 37.5t86.5 14.5zM217 80q15 0 35.5 5t41.5 12.5t41 17t35 17.5q-5 22 -7 39.5t-3 41.5h-120q-43 0 -64 -16.5t-21 -60.5q0 -29 13.5 -42.5t48.5 -13.5zM675 289
q-1 21 -5 42.5t-14.5 39t-29.5 28t-51 10.5q-29 0 -47.5 -8.5t-29 -24t-15.5 -38t-7 -49.5h199zM564 709q15 -8 4 -22l-102 -140q-8 -11 -19 -6l-39 18q-11 6 -5 19l80 155q6 13 22 6z" />
    <glyph glyph-name="Oslashacute" unicode="&#x1fe;" horiz-adv-x="660" 
d="M600 341q0 -58 -8 -120t-35.5 -113t-82 -84t-147.5 -33q-60 0 -102 14t-72 38l-29 -39q-5 -6 -9 -8.5t-12 2.5l-24 17q-7 5 -6.5 9t5.5 11l37 50q-36 54 -45.5 122t-9.5 134q0 30 3 66.5t13 73t28 71t48 61.5t73 43t103 16q63 0 107 -14.5t75 -40.5l30 40q6 7 9.5 10
t11.5 -3l24 -18q8 -5 7.5 -9t-5.5 -11l-39 -52q32 -48 42 -109t10 -124zM178 331q0 -42 3.5 -77t11.5 -64l250 336q-19 23 -46.5 35.5t-68.5 12.5q-43 0 -71.5 -16.5t-46 -47.5t-25 -76t-7.5 -103zM485 331q0 42 -3.5 76.5t-11.5 61.5l-249 -335q17 -22 43 -33t64 -11
q46 0 76 16t48 46.5t25.5 75.5t7.5 103zM476 798q5 -7 2.5 -12.5t-9.5 -8.5l-155 -76q-5 -2 -10 -2t-10 6l-26 35q-7 10 5 18l143 100q8 5 12.5 2.5t9.5 -7.5z" />
    <glyph glyph-name="oslashacute" unicode="&#x1ff;" horiz-adv-x="523" 
d="M479 253q0 -43 -5.5 -89t-27.5 -84.5t-66 -63t-122 -24.5q-42 0 -72.5 7.5t-53.5 21.5l-16 -21q-5 -6 -9 -8.5t-12 2.5l-24 17q-7 5 -6.5 9t5.5 11l20 27q-16 20 -25 43.5t-13.5 49t-6 51.5t-1.5 51q0 35 6.5 78t28.5 80.5t64.5 63t114.5 25.5q46 0 79.5 -9t57.5 -25
l23 30q6 7 9.5 10t11.5 -3l24 -18q8 -5 7.5 -9t-5.5 -11l-29 -38q26 -36 34.5 -81.5t8.5 -92.5zM155 246q0 -28 1.5 -50.5t6.5 -39.5l170 226q-25 22 -74 22q-32 0 -52 -10t-31.5 -30t-16 -49.5t-4.5 -68.5zM367 246q0 47 -6 80l-166 -222q22 -16 63 -16q34 0 55.5 9.5
t33.5 29t16 49.5t4 70zM388 709q15 -8 4 -22l-102 -140q-8 -11 -19 -6l-39 18q-11 6 -5 19l80 155q6 13 22 6z" />
    <glyph glyph-name="Itilde" unicode="&#x128;" horiz-adv-x="276" 
d="M80 644q0 20 19 20h76q19 0 19 -20v-625q0 -19 -19 -19h-76q-19 0 -19 19v625zM215 718q-17 0 -37.5 8t-41.5 17.5t-41 17.5t-35 8q-11 0 -25 -6t-30 -32q-4 -6 -7.5 -7.5t-13.5 3.5l-28 12q-11 4 -6 19q20 53 51 74t59 21q20 0 41 -8t41.5 -17t38.5 -17t33 -8
q32 0 52 37q4 6 8.5 8t13.5 -2l28 -13q8 -3 8.5 -8t-1.5 -11q-20 -52 -47 -74t-61 -22z" />
    <glyph glyph-name="itilde" unicode="&#x129;" horiz-adv-x="357" 
d="M232 19q0 -8 -3.5 -13.5t-14.5 -5.5h-71q-20 0 -20 19v452q0 19 20 19h71q11 0 14.5 -5.5t3.5 -13.5v-452zM257 548q-17 0 -37.5 8t-41.5 17.5t-41 17.5t-35 8q-11 0 -25 -6t-30 -32q-4 -6 -7.5 -7.5t-13.5 3.5l-28 12q-11 4 -6 19q20 53 51 74t59 21q20 0 41 -8
t41.5 -17t38.5 -17t33 -8q32 0 52 37q4 6 8.5 8t13.5 -2l28 -13q8 -3 8.5 -8t-1.5 -11q-20 -52 -47 -74t-61 -22z" />
    <glyph glyph-name="Imacron" unicode="&#x12a;" horiz-adv-x="289" 
d="M88 644q0 20 19 20h76q19 0 19 -20v-625q0 -19 -19 -19h-76q-19 0 -19 19v625zM7 718q-17 0 -17 16v52q0 10 4.5 13t12.5 3h275q9 0 13 -3t4 -13v-52q0 -16 -17 -16h-275z" />
    <glyph glyph-name="imacron" unicode="&#x12b;" horiz-adv-x="289" 
d="M198 19q0 -8 -3.5 -13.5t-14.5 -5.5h-71q-20 0 -20 19v452q0 19 20 19h71q11 0 14.5 -5.5t3.5 -13.5v-452zM7 569q-17 0 -17 16v52q0 17 17 17h275q17 0 17 -16v-53q0 -16 -17 -16h-275z" />
    </font>
</defs>
</svg>
